
<svg width="217" height="31" viewBox="0 0 217 31" fill="none" xmlns="http://www.w3.org/2000/svg">
<path d="M20.8183 7.62002C22.8383 7.62002 24.4383 8.22002 25.6183 9.42002C26.8183 10.6 27.4183 12.38 27.4183 14.76V24H22.7383V15.48C22.7383 14.2 22.4683 13.25 21.9283 12.63C21.4083 11.99 20.6583 11.67 19.6783 11.67C18.5783 11.67 17.7083 12.03 17.0683 12.75C16.4283 13.45 16.1083 14.5 16.1083 15.9V24H11.4283V15.48C11.4283 12.94 10.4083 11.67 8.36832 11.67C7.28832 11.67 6.42832 12.03 5.78832 12.75C5.14832 13.45 4.82832 14.5 4.82832 15.9V24H0.148315V7.86001H4.61832V9.72002C5.21832 9.04002 5.94832 8.52002 6.80832 8.16002C7.68832 7.80002 8.64832 7.62002 9.68832 7.62002C10.8283 7.62002 11.8583 7.85002 12.7783 8.31002C13.6983 8.75002 14.4383 9.40002 14.9983 10.26C15.6583 9.42002 16.4883 8.77002 17.4883 8.31002C18.5083 7.85002 19.6183 7.62002 20.8183 7.62002Z" fill="#FF3877"/>
<path d="M47.3402 7.86001L40.0502 24.99C39.3102 26.85 38.3902 28.16 37.2902 28.92C36.2102 29.68 34.9002 30.06 33.3602 30.06C32.5202 30.06 31.6902 29.93 30.8702 29.67C30.0502 29.41 29.3802 29.05 28.8602 28.59L30.5702 25.26C30.9302 25.58 31.3402 25.83 31.8002 26.01C32.2802 26.19 32.7502 26.28 33.2102 26.28C33.8502 26.28 34.3702 26.12 34.7702 25.8C35.1702 25.5 35.5302 24.99 35.8502 24.27L35.9102 24.12L28.9202 7.86001H33.7502L38.2802 18.81L42.8402 7.86001H47.3402Z" fill="#FF3877"/>
<path d="M59.5127 24.36C57.3727 24.36 55.4327 23.9 53.6927 22.98C51.9727 22.04 50.6127 20.75 49.6127 19.11C48.6327 17.45 48.1427 15.58 48.1427 13.5C48.1427 11.42 48.6327 9.56002 49.6127 7.92002C50.6127 6.26002 51.9727 4.97002 53.6927 4.05002C55.4327 3.11002 57.3827 2.64002 59.5427 2.64002C61.3627 2.64002 63.0027 2.96002 64.4627 3.60002C65.9427 4.24002 67.1827 5.16002 68.1827 6.36002L65.0627 9.24002C63.6427 7.60002 61.8827 6.78002 59.7827 6.78002C58.4827 6.78002 57.3227 7.07002 56.3027 7.65002C55.2827 8.21002 54.4827 9.00002 53.9027 10.02C53.3427 11.04 53.0627 12.2 53.0627 13.5C53.0627 14.8 53.3427 15.96 53.9027 16.98C54.4827 18 55.2827 18.8 56.3027 19.38C57.3227 19.94 58.4827 20.22 59.7827 20.22C61.8827 20.22 63.6427 19.39 65.0627 17.73L68.1827 20.61C67.1827 21.83 65.9427 22.76 64.4627 23.4C62.9827 24.04 61.3327 24.36 59.5127 24.36Z" fill="#FF3877"/>
<path d="M77.5275 7.62002C80.0275 7.62002 81.9475 8.22002 83.2875 9.42002C84.6275 10.6 85.2975 12.39 85.2975 14.79V24H80.9175V21.99C80.0375 23.49 78.3975 24.24 75.9975 24.24C74.7575 24.24 73.6775 24.03 72.7575 23.61C71.8575 23.19 71.1675 22.61 70.6875 21.87C70.2075 21.13 69.9675 20.29 69.9675 19.35C69.9675 17.85 70.5275 16.67 71.6475 15.81C72.7875 14.95 74.5375 14.52 76.8975 14.52H80.6175C80.6175 13.5 80.3075 12.72 79.6875 12.18C79.0675 11.62 78.1375 11.34 76.8975 11.34C76.0375 11.34 75.1875 11.48 74.3475 11.76C73.5275 12.02 72.8275 12.38 72.2475 12.84L70.5675 9.57001C71.4475 8.95002 72.4975 8.47002 73.7175 8.13002C74.9575 7.79002 76.2275 7.62002 77.5275 7.62002ZM77.1675 21.09C77.9675 21.09 78.6775 20.91 79.2975 20.55C79.9175 20.17 80.3575 19.62 80.6175 18.9V17.25H77.4075C75.4875 17.25 74.5275 17.88 74.5275 19.14C74.5275 19.74 74.7575 20.22 75.2175 20.58C75.6975 20.92 76.3475 21.09 77.1675 21.09Z" fill="#FF3877"/>
<path d="M89.5331 1.74002H94.2131V24H89.5331V1.74002Z" fill="#FF3877"/>
<path d="M114.367 15.99C114.367 16.05 114.337 16.47 114.277 17.25H102.067C102.287 18.25 102.807 19.04 103.627 19.62C104.447 20.2 105.467 20.49 106.687 20.49C107.527 20.49 108.267 20.37 108.907 20.13C109.567 19.87 110.177 19.47 110.737 18.93L113.227 21.63C111.707 23.37 109.487 24.24 106.567 24.24C104.747 24.24 103.137 23.89 101.737 23.19C100.337 22.47 99.2565 21.48 98.4965 20.22C97.7365 18.96 97.3565 17.53 97.3565 15.93C97.3565 14.35 97.7265 12.93 98.4665 11.67C99.2265 10.39 100.257 9.40002 101.557 8.70002C102.877 7.98002 104.347 7.62002 105.967 7.62002C107.547 7.62002 108.977 7.96002 110.257 8.64002C111.537 9.32002 112.537 10.3 113.257 11.58C113.997 12.84 114.367 14.31 114.367 15.99ZM105.997 11.16C104.937 11.16 104.047 11.46 103.327 12.06C102.607 12.66 102.167 13.48 102.007 14.52H109.957C109.797 13.5 109.357 12.69 108.637 12.09C107.917 11.47 107.037 11.16 105.997 11.16Z" fill="#FF3877"/>
<path d="M127.292 7.62002C129.292 7.62002 130.902 8.22002 132.122 9.42002C133.362 10.62 133.982 12.4 133.982 14.76V24H129.302V15.48C129.302 14.2 129.022 13.25 128.462 12.63C127.902 11.99 127.092 11.67 126.032 11.67C124.852 11.67 123.912 12.04 123.212 12.78C122.512 13.5 122.162 14.58 122.162 16.02V24H117.482V7.86001H121.952V9.75002C122.572 9.07002 123.342 8.55002 124.262 8.19002C125.182 7.81002 126.192 7.62002 127.292 7.62002Z" fill="#FF3877"/>
<path d="M154.84 1.74002V24H150.37V22.14C149.21 23.54 147.53 24.24 145.33 24.24C143.81 24.24 142.43 23.9 141.19 23.22C139.97 22.54 139.01 21.57 138.31 20.31C137.61 19.05 137.26 17.59 137.26 15.93C137.26 14.27 137.61 12.81 138.31 11.55C139.01 10.29 139.97 9.32002 141.19 8.64002C142.43 7.96002 143.81 7.62002 145.33 7.62002C147.39 7.62002 149 8.27002 150.16 9.57001V1.74002H154.84ZM146.14 20.4C147.32 20.4 148.3 20 149.08 19.2C149.86 18.38 150.25 17.29 150.25 15.93C150.25 14.57 149.86 13.49 149.08 12.69C148.3 11.87 147.32 11.46 146.14 11.46C144.94 11.46 143.95 11.87 143.17 12.69C142.39 13.49 142 14.57 142 15.93C142 17.29 142.39 18.38 143.17 19.2C143.95 20 144.94 20.4 146.14 20.4Z" fill="#FF3877"/>
<path d="M165.682 7.62002C168.182 7.62002 170.102 8.22002 171.442 9.42002C172.782 10.6 173.452 12.39 173.452 14.79V24H169.072V21.99C168.192 23.49 166.552 24.24 164.152 24.24C162.912 24.24 161.832 24.03 160.912 23.61C160.012 23.19 159.322 22.61 158.842 21.87C158.362 21.13 158.122 20.29 158.122 19.35C158.122 17.85 158.682 16.67 159.802 15.81C160.942 14.95 162.692 14.52 165.052 14.52H168.772C168.772 13.5 168.462 12.72 167.842 12.18C167.222 11.62 166.292 11.34 165.052 11.34C164.192 11.34 163.342 11.48 162.502 11.76C161.682 12.02 160.982 12.38 160.402 12.84L158.722 9.57001C159.602 8.95002 160.652 8.47002 161.872 8.13002C163.112 7.79002 164.382 7.62002 165.682 7.62002ZM165.322 21.09C166.122 21.09 166.832 20.91 167.452 20.55C168.072 20.17 168.512 19.62 168.772 18.9V17.25H165.562C163.642 17.25 162.682 17.88 162.682 19.14C162.682 19.74 162.912 20.22 163.372 20.58C163.852 20.92 164.502 21.09 165.322 21.09Z" fill="#FF3877"/>
<path d="M182.157 9.99002C182.717 9.21002 183.467 8.62002 184.407 8.22002C185.367 7.82002 186.467 7.62002 187.707 7.62002V11.94C187.187 11.9 186.837 11.88 186.657 11.88C185.317 11.88 184.267 12.26 183.507 13.02C182.747 13.76 182.367 14.88 182.367 16.38V24H177.687V7.86001H182.157V9.99002Z" fill="#FF3877"/>
<path d="M190.49 7.86001H195.17V24H190.49V7.86001ZM192.83 5.61002C191.97 5.61002 191.27 5.36002 190.73 4.86002C190.19 4.36002 189.92 3.74002 189.92 3.00002C189.92 2.26002 190.19 1.64002 190.73 1.14002C191.27 0.640015 191.97 0.390015 192.83 0.390015C193.69 0.390015 194.39 0.630015 194.93 1.11002C195.47 1.59002 195.74 2.19002 195.74 2.91002C195.74 3.69002 195.47 4.34002 194.93 4.86002C194.39 5.36002 193.69 5.61002 192.83 5.61002Z" fill="#FF3877"/>
<path d="M207.194 24.24C205.494 24.24 203.964 23.89 202.604 23.19C201.264 22.47 200.214 21.48 199.454 20.22C198.694 18.96 198.314 17.53 198.314 15.93C198.314 14.33 198.694 12.9 199.454 11.64C200.214 10.38 201.264 9.40002 202.604 8.70002C203.964 7.98002 205.494 7.62002 207.194 7.62002C208.894 7.62002 210.414 7.98002 211.754 8.70002C213.094 9.40002 214.144 10.38 214.904 11.64C215.664 12.9 216.044 14.33 216.044 15.93C216.044 17.53 215.664 18.96 214.904 20.22C214.144 21.48 213.094 22.47 211.754 23.19C210.414 23.89 208.894 24.24 207.194 24.24ZM207.194 20.4C208.394 20.4 209.374 20 210.134 19.2C210.914 18.38 211.304 17.29 211.304 15.93C211.304 14.57 210.914 13.49 210.134 12.69C209.374 11.87 208.394 11.46 207.194 11.46C205.994 11.46 205.004 11.87 204.224 12.69C203.444 13.49 203.054 14.57 203.054 15.93C203.054 17.29 203.444 18.38 204.224 19.2C205.004 20 205.994 20.4 207.194 20.4Z" fill="#FF3877"/>
</svg>
