<svg width="217" height="32" viewBox="0 0 217 32" fill="none" xmlns="http://www.w3.org/2000/svg">
<path d="M22.7601 0L13.1637 9.59775L3.56726 0H0V25.2423H3.55051V9.94951L13.147 19.5473L22.7434 9.94951V25.2423H26.2939V0H22.7601ZM22.7601 6.3985L13.1637 15.9963L3.56726 6.3985V3.551L13.1637 13.1488L22.7601 3.551V6.3985Z" fill="#FF3877"/>
<path d="M32.5239 31.4231C31.7033 31.4231 30.8827 31.2891 30.0788 31.0043C29.2749 30.7196 28.6217 30.3343 28.1025 29.8486L29.6098 26.9341C29.995 27.2691 30.4305 27.5538 30.9162 27.7716C31.4018 27.9893 31.9043 28.0898 32.4402 28.0898C33.1436 28.0898 33.713 27.9056 34.1317 27.5371C34.5672 27.1686 34.9691 26.5488 35.3375 25.6778L36.2587 23.5003L36.6271 22.9811L42.8238 7.85583H46.525L38.8043 26.3813C38.2851 27.6376 37.7157 28.6426 37.0961 29.3796C36.4764 30.1166 35.773 30.6358 35.0026 30.9541C34.2657 31.2556 33.4283 31.4231 32.5239 31.4231ZM35.8902 25.5773L28.4542 7.85583H32.4402L38.5196 22.6293L35.8902 25.5773Z" fill="#FF3877"/>
<path d="M59.1863 25.3596C57.5115 25.3596 55.9875 25.0748 54.5807 24.5053C53.1739 23.9358 51.968 23.1318 50.9297 22.0933C49.8913 21.0548 49.0874 19.8321 48.5012 18.4418C47.9318 17.0516 47.6304 15.5106 47.6304 13.8188C47.6304 12.1271 47.9151 10.5861 48.5012 9.19583C49.0707 7.80558 49.8913 6.58283 50.9464 5.54433C52.0015 4.50583 53.2241 3.68508 54.6142 3.13233C56.021 2.56283 57.545 2.27808 59.2198 2.27808C60.995 2.27808 62.6028 2.59633 64.0599 3.21608C65.5169 3.85258 66.7563 4.77383 67.7611 6.01333L65.1652 8.54258C64.3613 7.67158 63.4737 7.00158 62.5191 6.56608C61.5477 6.13058 60.5094 5.91283 59.404 5.91283C58.2652 5.91283 57.2436 6.09708 56.3057 6.48233C55.3678 6.86758 54.5639 7.40358 53.8605 8.12383C53.1739 8.82733 52.6379 9.66483 52.236 10.6196C51.8508 11.5743 51.6498 12.6463 51.6498 13.7853C51.6498 14.9411 51.8508 15.9963 52.236 16.9511C52.6212 17.9058 53.1739 18.7433 53.8605 19.4468C54.5472 20.1503 55.3678 20.7031 56.3057 21.0883C57.2436 21.4736 58.2819 21.6578 59.404 21.6578C60.5094 21.6578 61.5477 21.4401 62.5191 21.0046C63.4905 20.5691 64.3781 19.8991 65.1652 18.9946L67.7611 21.5238C66.7563 22.7633 65.5169 23.7013 64.0599 24.3378C62.6028 25.0246 60.9783 25.3596 59.1863 25.3596Z" fill="#FF3877"/>
<path d="M75.9841 25.3595C74.7448 25.3595 73.6562 25.1418 72.7183 24.6895C71.7804 24.254 71.0603 23.6343 70.5578 22.847C70.0554 22.0598 69.8042 21.172 69.8042 20.1838C69.8042 19.2123 70.0219 18.3413 70.4741 17.5708C70.9263 16.8003 71.6464 16.1805 72.6681 15.7283C73.6897 15.276 75.0295 15.0583 76.7043 15.0583H81.5108V17.7383H76.9722C75.6659 17.7383 74.7783 17.956 74.3093 18.4083C73.8404 18.8438 73.6059 19.3965 73.6059 20.0665C73.6059 20.77 73.8906 21.3395 74.4433 21.775C74.996 22.2105 75.7831 22.4283 76.7712 22.4283C77.7259 22.4283 78.58 22.2105 79.3336 21.7583C80.0873 21.306 80.64 20.636 80.9917 19.7483L81.6113 22.177C81.2429 23.182 80.573 23.9693 79.6184 24.5388C78.6972 25.0748 77.4747 25.3595 75.9841 25.3595ZM81.1759 25.1083V21.6075L81.0084 20.904V14.8405C81.0084 13.668 80.6567 12.7468 79.9701 12.0935C79.2834 11.4403 78.2283 11.122 76.8215 11.122C75.9171 11.122 75.0127 11.2728 74.1251 11.5743C73.2375 11.8758 72.4671 12.2945 71.8307 12.8305L70.3066 9.916C71.211 9.2125 72.2829 8.6765 73.5054 8.308C74.728 7.9395 76.0009 7.75525 77.3239 7.75525C79.7523 7.75525 81.6113 8.35825 82.9177 9.5475C84.224 10.7368 84.8771 12.5793 84.8771 15.0583V25.1083H81.1759Z" fill="#FF3877"/>
<path d="M89.8848 25.1083V1.32324H93.7367V25.1083H89.8848Z" fill="#FF3877"/>
<path d="M106.498 25.259C104.673 25.259 103.065 24.8738 101.692 24.12C100.319 23.3663 99.2634 22.3278 98.5098 21.0045C97.7561 19.698 97.3877 18.1738 97.3877 16.4653C97.3877 14.7568 97.7561 13.2493 98.4763 11.926C99.2132 10.6195 100.218 9.58101 101.508 8.81051C102.797 8.05676 104.254 7.67151 105.912 7.67151C107.52 7.67151 108.944 8.04001 110.2 8.77701C111.456 9.51401 112.444 10.5525 113.164 11.8758C113.884 13.199 114.253 14.7735 114.253 16.5825C114.253 16.7333 114.253 16.9175 114.236 17.1353C114.219 17.353 114.202 17.554 114.186 17.7048H100.436V15.0248H112.159L110.618 15.8958C110.635 14.941 110.451 14.07 110.049 13.3163C109.647 12.5625 109.094 11.9763 108.391 11.5575C107.688 11.1388 106.867 10.9378 105.929 10.9378C105.008 10.9378 104.171 11.1388 103.45 11.5575C102.713 11.9763 102.161 12.5625 101.776 13.333C101.39 14.1035 101.189 14.9913 101.122 15.9963V16.6328C101.173 17.6545 101.407 18.559 101.843 19.363C102.278 20.1503 102.914 20.77 103.735 21.2055C104.556 21.641 105.51 21.8588 106.599 21.8588C107.52 21.8588 108.357 21.6913 109.094 21.373C109.831 21.0548 110.501 20.5858 111.071 19.966L113.164 22.4618C112.41 23.3663 111.456 24.0363 110.334 24.5053C109.228 25.0245 107.939 25.259 106.498 25.259Z" fill="#FF3877"/>
<path d="M127.366 7.63794C128.706 7.63794 129.895 7.90594 130.917 8.44194C131.938 8.97794 132.759 9.79869 133.362 10.9042C133.965 12.0097 134.266 13.4334 134.266 15.1587V24.9407H130.414V15.6444C130.414 14.1202 130.079 12.9979 129.393 12.2442C128.706 11.4904 127.735 11.1219 126.479 11.1219C125.574 11.1219 124.77 11.3062 124.067 11.6914C123.364 12.0767 122.828 12.6462 122.442 13.3999C122.057 14.1537 121.873 15.1084 121.873 16.2642V24.9407H118.021V7.85569H121.705V12.4954L121.052 11.0549C121.605 9.96619 122.442 9.12869 123.548 8.52569C124.653 7.92269 125.926 7.63794 127.366 7.63794Z" fill="#FF3877"/>
<path d="M146.107 25.259C144.516 25.259 143.092 24.8905 141.836 24.1703C140.563 23.45 139.575 22.4283 138.855 21.105C138.135 19.7985 137.767 18.2408 137.767 16.4653C137.767 14.7065 138.118 13.1823 138.855 11.8422C139.575 10.519 140.563 9.49725 141.836 8.76025C143.109 8.04 144.533 7.6715 146.107 7.6715C147.48 7.6715 148.72 7.98975 149.808 8.6095C150.897 9.246 151.768 10.2007 152.404 11.4905C153.041 12.7802 153.359 14.4385 153.359 16.4485C153.359 18.4418 153.057 20.0833 152.438 21.3898C151.818 22.6963 150.964 23.6678 149.892 24.2875C148.803 24.9408 147.547 25.259 146.107 25.259ZM146.559 21.8588C147.48 21.8588 148.318 21.641 149.038 21.2055C149.775 20.77 150.361 20.1335 150.796 19.3128C151.232 18.492 151.466 17.5373 151.466 16.482C151.466 15.3933 151.249 14.4385 150.796 13.6513C150.361 12.8473 149.775 12.2275 149.038 11.792C148.301 11.3565 147.48 11.1387 146.559 11.1387C145.638 11.1387 144.801 11.3565 144.08 11.792C143.344 12.2275 142.757 12.8473 142.322 13.6513C141.887 14.4553 141.652 15.3933 141.652 16.482C141.652 17.554 141.87 18.492 142.322 19.3128C142.757 20.1335 143.344 20.77 144.08 21.2055C144.817 21.641 145.638 21.8588 146.559 21.8588ZM151.516 25.1083V20.9878L151.684 16.4318L151.349 11.8757V1.32324H155.201V25.1083H151.516Z" fill="#FF3877"/>
<path d="M165.25 25.3595C164.01 25.3595 162.922 25.1418 161.984 24.6895C161.046 24.254 160.326 23.6343 159.823 22.847C159.321 22.0598 159.07 21.172 159.07 20.1838C159.07 19.2123 159.288 18.3413 159.74 17.5708C160.192 16.8003 160.912 16.1805 161.934 15.7283C162.955 15.276 164.295 15.0583 165.97 15.0583H170.793V17.7383H166.255C164.948 17.7383 164.061 17.956 163.592 18.4083C163.123 18.8438 162.888 19.3965 162.888 20.0665C162.888 20.77 163.173 21.3395 163.726 21.775C164.278 22.2105 165.066 22.4283 166.054 22.4283C167.008 22.4283 167.862 22.2105 168.616 21.7583C169.37 21.306 169.922 20.636 170.274 19.7483L170.894 22.177C170.525 23.182 169.855 23.9693 168.901 24.5388C167.963 25.0748 166.74 25.3595 165.25 25.3595ZM170.442 25.1083V21.6075L170.274 20.904V14.8405C170.274 13.668 169.922 12.7468 169.236 12.0935C168.549 11.4403 167.494 11.122 166.087 11.122C165.183 11.122 164.278 11.2728 163.391 11.5743C162.503 11.8758 161.733 12.2945 161.096 12.8305L159.572 9.916C160.477 9.2125 161.548 8.6765 162.771 8.308C163.994 7.9395 165.266 7.75525 166.59 7.75525C169.018 7.75525 170.877 8.35825 172.183 9.5475C173.49 10.7368 174.143 12.5793 174.143 15.0583V25.1083H170.442Z" fill="#FF3877"/>
<path d="M179.15 24.9407V7.85571H182.667V12.5625L182.232 11.189C182.718 10.0332 183.488 9.14547 184.577 8.54247C185.665 7.93947 186.972 7.62122 188.529 7.62122V11.4737C188.378 11.457 188.244 11.4402 188.094 11.4235C187.943 11.4067 187.809 11.4067 187.692 11.4067C186.201 11.4067 185.012 11.8422 184.141 12.73C183.27 13.6177 182.835 14.9577 182.835 16.7667V24.9407H179.15Z" fill="#FF3877"/>
<path d="M193.821 5.09204C193.101 5.09204 192.515 4.85754 192.046 4.38854C191.577 3.91954 191.359 3.35004 191.359 2.66329C191.359 2.02679 191.594 1.47404 192.046 0.98829C192.515 0.51929 193.101 0.28479 193.821 0.28479C194.541 0.28479 195.128 0.502539 195.597 0.938039C196.065 1.37354 196.283 1.94304 196.283 2.61304C196.283 3.29979 196.049 3.88604 195.597 4.35504C195.161 4.85754 194.558 5.09204 193.821 5.09204ZM191.879 24.9408V7.85579H195.731V24.9408H191.879Z" fill="#FF3877"/>
<path d="M208.207 25.259C206.533 25.259 205.042 24.8738 203.719 24.12C202.396 23.3663 201.341 22.3278 200.587 20.9878C199.833 19.6645 199.448 18.157 199.448 16.4653C199.448 14.74 199.833 13.2158 200.587 11.9093C201.341 10.6028 202.379 9.58101 203.702 8.81051C205.025 8.05676 206.516 7.67151 208.207 7.67151C209.916 7.67151 211.44 8.05676 212.763 8.81051C214.086 9.56426 215.124 10.6028 215.878 11.9093C216.631 13.2158 217 14.7233 217 16.4653C217 18.1738 216.631 19.6813 215.878 21.0045C215.124 22.311 214.086 23.3495 212.746 24.12C211.406 24.8738 209.882 25.259 208.207 25.259ZM208.207 21.8588C209.145 21.8588 209.999 21.641 210.736 21.2055C211.473 20.77 212.059 20.1335 212.478 19.3128C212.897 18.492 213.114 17.5373 213.114 16.482C213.114 15.3933 212.897 14.4385 212.478 13.6513C212.059 12.8473 211.473 12.2275 210.736 11.792C209.999 11.3565 209.162 11.1388 208.241 11.1388C207.32 11.1388 206.482 11.3565 205.745 11.792C205.008 12.2275 204.422 12.8473 203.987 13.6513C203.551 14.4553 203.334 15.3933 203.334 16.482C203.334 17.554 203.551 18.492 203.987 19.3128C204.422 20.1335 205.008 20.77 205.745 21.2055C206.482 21.641 207.303 21.8588 208.207 21.8588Z" fill="#FF3877"/>
</svg>
