<svg width="284" height="327" viewBox="0 0 284 327" fill="none" xmlns="http://www.w3.org/2000/svg">
<g clip-path="url(#clip0_662_1552)">
<path d="M44.7498 244.497L44.2153 170.776C44.2153 170.776 57.0437 178.618 54.6918 189.238C53.5372 194.324 51.6558 197.786 55.1836 202.059C58.7115 206.333 60.3791 209.047 60.037 214.004C59.6949 218.962 53.9862 220.586 54.6918 226.227C55.3974 231.868 58.968 236.078 58.3694 239.518C57.9211 241.836 56.9585 244.024 55.5524 245.921C54.1464 247.818 52.3327 249.376 50.2447 250.48L44.7498 244.497Z" fill="#FFC1C1"/>
<path d="M49.2825 186.097H31.7504V187.08H49.2825V186.097Z" fill="#8EA8DD"/>
<path d="M52.1048 210.949H34.5726V211.932H52.1048V210.949Z" fill="#8EA8DD"/>
<path d="M50.9716 238.065H33.4395V239.048H50.9716V238.065Z" fill="#8EA8DD"/>
<path d="M21.958 245.565L20.8463 152.399C20.8463 152.399 36.6466 162.057 33.6747 175.135C32.2636 181.396 29.9544 185.605 34.2947 190.819C38.635 196.033 40.7088 199.367 40.2598 205.521C39.8108 211.675 32.7981 213.619 33.6747 220.585C34.5513 227.551 38.9985 232.701 38.2074 236.932C37.6503 239.783 36.4627 242.473 34.7314 244.806C33.0002 247.139 30.7689 249.055 28.2011 250.416L21.958 245.565Z" fill="#FFC1C1"/>
<path d="M27.068 171.374H5.49487V172.357H27.068V171.374Z" fill="#8EA8DD"/>
<path d="M30.5531 201.974H8.97992V202.957H30.5531V201.974Z" fill="#8EA8DD"/>
<path d="M29.1633 235.33H7.59021V236.313H29.1633V235.33Z" fill="#8EA8DD"/>
<path d="M63.9711 253.536V144.984C63.9711 144.984 82.273 156.16 78.9376 171.31C77.3127 178.575 74.6614 183.447 79.6645 189.495C84.6676 195.542 87.3403 199.495 86.5706 206.589C85.5443 215.842 78.0183 215.97 78.9376 224.026C79.857 232.082 85.7366 238.236 84.1972 243.001C82.3024 249.413 78.197 254.947 72.6089 258.621L63.9711 253.536Z" fill="#FFC1C1"/>
<path d="M72.2027 169.558H52.511V170.541H72.2027V169.558Z" fill="#8EA8DD"/>
<path d="M77.2913 203.512H57.5997V204.495H77.2913V203.512Z" fill="#8EA8DD"/>
<path d="M72.2027 237.787H52.511V238.77H72.2027V237.787Z" fill="#8EA8DD"/>
<path d="M52.789 244.24H52.7034H21.7869L35.4064 325.825H50.4371H55.0553H70.086L83.6841 244.24H52.789Z" fill="#FE958E"/>
<path d="M97.3464 253.151H13.4271V254.134H97.3464V253.151Z" fill="#8EA8DD"/>
<path d="M262.17 248.514C264.779 247.98 271.856 242.488 277.607 227.317C280.9 218.641 290.179 173.896 277.607 170.797C265.035 167.699 267.409 190.157 267.409 210.82C267.409 223.364 262.17 248.514 262.17 248.514Z" fill="#425AC2"/>
<path d="M256.419 250.523C263.025 250.095 261.636 183.298 262.17 167.592C262.705 151.886 265.826 93.2942 257.039 83.9776C248.251 74.661 238.972 82.9305 238.202 95.1105C237.818 100.88 239.763 142.847 240.811 154.942C241.858 167.036 243.163 194.196 244.21 211.461C245.258 228.727 248.487 251.057 256.419 250.523Z" fill="#425AC2"/>
<path d="M244.21 251.313C244.21 251.313 229.543 222.402 225.887 200.029C219.345 160.006 218.04 120.966 226.935 121.543C235.829 122.12 236.471 161.331 236.877 178.063C237.925 221.483 248.145 248.707 248.145 248.707L244.21 251.313Z" fill="#425AC2"/>
<path d="M255.072 246.078H254.088C254.088 237.167 252.528 211.055 252.528 210.799H253.49C253.511 210.991 255.072 237.146 255.072 246.078Z" fill="#231F20"/>
<path d="M264.843 248.236L263.945 247.852C267.281 239.546 270.136 231.056 272.497 222.423C274.396 214.74 275.181 206.824 274.828 198.918H275.811C276.14 206.889 275.341 214.867 273.438 222.615C271.084 231.319 268.214 239.874 264.843 248.236Z" fill="#231F20"/>
<path d="M250.625 211.291C250.625 211.679 250.74 212.059 250.956 212.383C251.172 212.706 251.48 212.958 251.839 213.107C252.198 213.256 252.594 213.295 252.975 213.219C253.357 213.143 253.708 212.956 253.983 212.681C254.258 212.406 254.445 212.055 254.521 211.674C254.597 211.293 254.558 210.897 254.409 210.538C254.26 210.179 254.008 209.872 253.685 209.656C253.361 209.44 252.981 209.325 252.592 209.325C252.07 209.325 251.57 209.532 251.201 209.901C250.832 210.269 250.625 210.769 250.625 211.291Z" fill="white"/>
<path d="M273.416 199.367C273.416 199.888 273.624 200.388 273.993 200.757C274.362 201.126 274.862 201.333 275.384 201.333C275.905 201.333 276.406 201.126 276.774 200.757C277.143 200.388 277.351 199.888 277.351 199.367C277.351 198.845 277.143 198.345 276.774 197.977C276.406 197.608 275.905 197.401 275.384 197.401C274.862 197.401 274.362 197.608 273.993 197.977C273.624 198.345 273.416 198.845 273.416 199.367Z" fill="white"/>
<path d="M227.213 181.716C227.209 182.106 227.32 182.488 227.534 182.814C227.747 183.141 228.053 183.396 228.412 183.548C228.771 183.7 229.167 183.742 229.55 183.669C229.933 183.595 230.286 183.41 230.563 183.136C230.84 182.861 231.03 182.511 231.107 182.129C231.185 181.747 231.147 181.351 230.999 180.991C230.851 180.63 230.599 180.322 230.275 180.105C229.951 179.888 229.57 179.772 229.18 179.772C228.662 179.772 228.165 179.976 227.796 180.34C227.428 180.704 227.218 181.199 227.213 181.716Z" fill="white"/>
<path d="M228.367 192.657V51.925C228.37 50.6212 228.116 49.3296 227.618 48.1242C227.121 46.9188 226.391 45.8233 225.469 44.9003C224.548 43.9774 223.453 43.2452 222.248 42.7455C221.043 42.2459 219.751 41.9888 218.447 41.9888H141.049C138.415 41.9944 135.892 43.0438 134.032 44.9066C132.172 46.7694 131.128 49.2935 131.128 51.925V191.161L228.367 192.657Z" fill="#03053F"/>
<path d="M224.968 242.916C224.968 243.578 224.968 244.262 224.968 244.945C225.166 251.975 228.099 258.649 233.143 263.551C238.188 268.453 244.946 271.195 251.982 271.195C259.018 271.195 265.777 268.453 270.821 263.551C275.866 258.649 278.799 251.975 278.997 244.945C278.997 244.262 278.997 243.578 278.997 242.916H224.968Z" fill="#FFC1C1"/>
<path d="M224.968 270.289C224.968 270.972 224.968 271.635 224.968 272.319C224.866 275.928 225.49 279.521 226.802 282.886C228.114 286.25 230.087 289.317 232.606 291.906C235.124 294.495 238.137 296.553 241.465 297.959C244.793 299.364 248.369 300.088 251.982 300.088C255.595 300.088 259.172 299.364 262.5 297.959C265.828 296.553 268.84 294.495 271.359 291.906C273.878 289.317 275.851 286.25 277.163 282.886C278.475 279.521 279.099 275.928 278.997 272.319C278.997 271.635 278.997 270.972 278.997 270.289H224.968Z" fill="#FFC1C1"/>
<path d="M224.968 297.982C224.968 298.644 224.968 299.307 224.968 299.991C224.866 303.6 225.49 307.193 226.802 310.558C228.114 313.922 230.087 316.989 232.606 319.578C235.124 322.167 238.137 324.225 241.465 325.63C244.793 327.036 248.369 327.76 251.982 327.76C255.595 327.76 259.172 327.036 262.5 325.63C265.828 324.225 268.84 322.167 271.359 319.578C273.878 316.989 275.851 313.922 277.163 310.558C278.475 307.193 279.099 303.6 278.997 299.991C278.997 299.307 278.997 298.644 278.997 297.982H224.968Z" fill="#FFC1C1"/>
<path d="M112.195 83.7428C116.766 55.8142 97.8177 29.47 69.873 24.9015C41.9282 20.333 15.5688 39.2703 10.9977 67.1989C6.42657 95.1275 25.3747 121.472 53.3194 126.04C81.2642 130.609 107.624 111.671 112.195 83.7428Z" fill="#FFC1C1"/>
<path d="M104.356 76.1266C108.124 52.8299 92.2809 30.8919 68.9708 27.1268C45.6606 23.3617 23.7099 39.1952 19.9426 62.4919C16.1753 85.7886 32.018 107.727 55.3282 111.492C78.6383 115.257 100.589 99.4233 104.356 76.1266Z" fill="white"/>
<path d="M63.0944 38.3561C63.0944 38.7755 62.9277 39.1777 62.631 39.4742C62.3343 39.7708 61.9319 39.9374 61.5123 39.9374C61.0926 39.9374 60.6902 39.7708 60.3935 39.4742C60.0968 39.1777 59.9301 38.7755 59.9301 38.3561C59.9301 37.9368 60.0968 37.5346 60.3935 37.238C60.6902 36.9415 61.0926 36.7749 61.5123 36.7749C61.9319 36.7749 62.3343 36.9415 62.631 37.238C62.9277 37.5346 63.0944 37.9368 63.0944 38.3561Z" fill="#425AC2"/>
<path d="M44.3222 42.5441C44.4247 42.7223 44.491 42.919 44.5174 43.1228C44.5439 43.3267 44.5299 43.5337 44.4763 43.7321C44.4227 43.9305 44.3305 44.1165 44.205 44.2793C44.0795 44.4421 43.9232 44.5786 43.7449 44.681C43.5666 44.7834 43.3699 44.8498 43.166 44.8762C42.9621 44.9027 42.7549 44.8887 42.5563 44.8351C42.3578 44.7815 42.1718 44.6894 42.0089 44.5639C41.846 44.4385 41.7093 44.2823 41.6068 44.1041C41.5036 43.926 41.4367 43.7294 41.4099 43.5254C41.3831 43.3215 41.397 43.1142 41.4506 42.9156C41.5043 42.717 41.5967 42.531 41.7226 42.3682C41.8485 42.2054 42.0053 42.0692 42.1841 41.9672C42.3615 41.8612 42.5584 41.7919 42.7632 41.7636C42.9679 41.7352 43.1762 41.7484 43.3757 41.8022C43.5752 41.8561 43.7618 41.9495 43.9245 42.077C44.0871 42.2045 44.2224 42.3633 44.3222 42.5441Z" fill="#425AC2"/>
<path d="M30.1682 55.5363C30.5282 55.7432 30.7913 56.0845 30.8996 56.4853C31.0079 56.886 30.9523 57.3133 30.7453 57.6731C30.5384 58.033 30.1969 58.296 29.796 58.4042C29.395 58.5124 28.9674 58.4569 28.6073 58.2501C28.429 58.1476 28.2726 58.0111 28.1471 57.8483C28.0216 57.6855 27.9294 57.4996 27.8758 57.3012C27.8222 57.1028 27.8083 56.8957 27.8347 56.6918C27.8612 56.488 27.9276 56.2914 28.0301 56.1132C28.1326 55.935 28.2691 55.7788 28.432 55.6534C28.5949 55.5279 28.781 55.4358 28.9796 55.3822C29.1781 55.3286 29.3852 55.3147 29.5891 55.3411C29.7931 55.3676 29.9899 55.4339 30.1682 55.5363Z" fill="#425AC2"/>
<path d="M24.4168 73.8491C24.8364 73.8491 25.2388 74.0157 25.5356 74.3123C25.8323 74.6088 25.999 75.011 25.999 75.4304C25.999 75.8497 25.8323 76.2519 25.5356 76.5485C25.2388 76.845 24.8364 77.0116 24.4168 77.0116C23.9972 77.0116 23.5948 76.845 23.2981 76.5485C23.0013 76.2519 22.8347 75.8497 22.8347 75.4304C22.8347 75.011 23.0013 74.6088 23.2981 74.3123C23.5948 74.0157 23.9972 73.8491 24.4168 73.8491Z" fill="#425AC2"/>
<path d="M28.6073 92.5249C28.7847 92.4188 28.9816 92.3496 29.1863 92.3212C29.391 92.2929 29.5994 92.306 29.7989 92.3598C29.9984 92.4137 30.1851 92.5071 30.3478 92.6346C30.5104 92.7621 30.6455 92.9209 30.7454 93.1018C30.8479 93.28 30.9143 93.4767 30.9407 93.6805C30.9672 93.8843 30.9532 94.0913 30.8996 94.2897C30.846 94.4882 30.7538 94.674 30.6283 94.8369C30.5028 94.9997 30.3465 95.1362 30.1682 95.2386C29.9899 95.3411 29.7931 95.4074 29.5892 95.4338C29.3852 95.4602 29.1782 95.4463 28.9796 95.3927C28.7811 95.3392 28.595 95.247 28.4321 95.1216C28.2691 94.9961 28.1326 94.8399 28.0301 94.6617C27.924 94.4845 27.8546 94.2877 27.8263 94.0831C27.7979 93.8785 27.811 93.6702 27.8649 93.4708C27.9188 93.2714 28.0123 93.0849 28.1399 92.9224C28.2674 92.7599 28.4264 92.6247 28.6073 92.5249Z" fill="#425AC2"/>
<path d="M41.6068 106.756C41.7088 106.578 41.8451 106.421 42.008 106.295C42.1708 106.169 42.3571 106.077 42.5558 106.023C42.7545 105.97 42.9619 105.956 43.166 105.983C43.3701 106.009 43.5668 106.076 43.7449 106.179C43.9232 106.282 44.0795 106.418 44.205 106.581C44.3305 106.744 44.4227 106.93 44.4763 107.128C44.5299 107.327 44.5439 107.534 44.5174 107.738C44.491 107.941 44.4247 108.138 44.3222 108.316C44.2197 108.494 44.0831 108.651 43.9201 108.776C43.7572 108.901 43.5712 108.994 43.3727 109.047C43.1742 109.101 42.967 109.115 42.763 109.088C42.5591 109.062 42.3624 108.996 42.1841 108.893C42.0053 108.791 41.8485 108.655 41.7226 108.492C41.5967 108.329 41.5043 108.143 41.4506 107.945C41.397 107.746 41.3831 107.539 41.4099 107.335C41.4367 107.131 41.5036 106.934 41.6068 106.756Z" fill="#425AC2"/>
<path d="M59.9301 112.505C59.9301 112.085 60.0968 111.683 60.3935 111.387C60.6902 111.09 61.0926 110.923 61.5123 110.923C61.9319 110.923 62.3343 111.09 62.631 111.387C62.9277 111.683 63.0944 112.085 63.0944 112.505C63.0944 112.924 62.9277 113.326 62.631 113.623C62.3343 113.919 61.9319 114.086 61.5123 114.086C61.0926 114.086 60.6902 113.919 60.3935 113.623C60.0968 113.326 59.9301 112.924 59.9301 112.505Z" fill="#425AC2"/>
<path d="M78.7024 108.316C78.4954 107.956 78.4399 107.529 78.5482 107.128C78.6564 106.728 78.9195 106.386 79.2796 106.179C79.6397 105.973 80.0672 105.917 80.4682 106.025C80.8691 106.133 81.2107 106.396 81.4177 106.756C81.5202 106.935 81.5866 107.131 81.613 107.335C81.6395 107.539 81.6255 107.746 81.5719 107.944C81.5183 108.143 81.4261 108.329 81.3006 108.491C81.1751 108.654 81.0188 108.791 80.8405 108.893C80.6622 108.996 80.4654 109.062 80.2615 109.088C80.0575 109.115 79.8503 109.101 79.6518 109.047C79.4532 108.994 79.2673 108.902 79.1043 108.776C78.9414 108.651 78.8049 108.494 78.7024 108.316Z" fill="#425AC2"/>
<path d="M92.8564 95.3241C92.6776 95.2221 92.5208 95.0859 92.3949 94.9231C92.269 94.7604 92.1766 94.5743 92.1229 94.3757C92.0693 94.1771 92.0554 93.9698 92.0822 93.7658C92.109 93.5619 92.1759 93.3652 92.2791 93.1872C92.379 93.0064 92.5143 92.8475 92.6769 92.7201C92.8395 92.5926 93.0261 92.4991 93.2256 92.4453C93.4251 92.3914 93.6335 92.3783 93.8382 92.4067C94.0429 92.435 94.2398 92.5043 94.4172 92.6103C94.596 92.7122 94.7529 92.8485 94.8788 93.0112C95.0047 93.174 95.0971 93.3601 95.1507 93.5587C95.2044 93.7573 95.2182 93.9645 95.1914 94.1685C95.1646 94.3724 95.0977 94.5691 94.9945 94.7471C94.8925 94.9258 94.7561 95.0826 94.5932 95.2084C94.4304 95.3342 94.2443 95.4266 94.0455 95.4802C93.8468 95.5339 93.6394 95.5477 93.4353 95.5209C93.2312 95.4941 93.0346 95.4272 92.8564 95.3241Z" fill="#425AC2"/>
<path d="M98.6079 76.9903C98.4011 76.9931 98.1958 76.9548 98.0039 76.8777C97.8121 76.8006 97.6375 76.6861 97.4903 76.541C97.3431 76.3958 97.2262 76.2229 97.1464 76.0323C97.0667 75.8416 97.0256 75.637 97.0256 75.4304C97.0256 75.011 97.1924 74.6088 97.4891 74.3123C97.7858 74.0157 98.1883 73.8491 98.6079 73.8491C98.8147 73.8491 99.0194 73.8901 99.2101 73.9698C99.4009 74.0496 99.5739 74.1664 99.7191 74.3135C99.8643 74.4606 99.9788 74.6351 100.056 74.8268C100.133 75.0186 100.171 75.2237 100.169 75.4304C100.172 75.636 100.133 75.8401 100.056 76.0307C99.9782 76.2212 99.8634 76.3944 99.7179 76.5398C99.5724 76.6852 99.3992 76.8 99.2086 76.8774C99.0179 76.9548 98.8136 76.9932 98.6079 76.9903Z" fill="#425AC2"/>
<path d="M94.4172 58.3358C94.0572 58.5426 93.6296 58.5981 93.2287 58.4899C92.8277 58.3817 92.4861 58.1187 92.2792 57.7589C92.0722 57.399 92.0168 56.9717 92.125 56.5709C92.2333 56.1702 92.4964 55.8289 92.8565 55.622C93.0338 55.516 93.2307 55.4467 93.4354 55.4184C93.6401 55.39 93.8484 55.4031 94.0479 55.457C94.2475 55.5108 94.4342 55.6042 94.5968 55.7317C94.7594 55.8592 94.8947 56.0181 94.9946 56.199C95.0977 56.377 95.1647 56.5736 95.1915 56.7776C95.2183 56.9815 95.2044 57.1888 95.1508 57.3874C95.0971 57.586 95.0047 57.772 94.8788 57.9348C94.7529 58.0976 94.596 58.2339 94.4172 58.3358Z" fill="#425AC2"/>
<path d="M87.3664 79.5952C89.7011 65.2683 79.9727 51.7625 65.6374 49.4292C51.3021 47.0959 37.7885 56.8186 35.4539 71.1456C33.1192 85.4726 42.8476 98.9784 57.1829 101.312C71.5182 103.645 85.0318 93.9222 87.3664 79.5952Z" fill="white"/>
<path d="M81.4177 44.1041C81.3157 44.2828 81.1794 44.4395 81.0166 44.5654C80.8537 44.6912 80.6676 44.7835 80.4689 44.8372C80.2702 44.8908 80.0628 44.9046 79.8587 44.8778C79.6546 44.851 79.4578 44.7841 79.2797 44.681C79.1009 44.5791 78.944 44.4428 78.8181 44.2801C78.6922 44.1173 78.5998 43.9312 78.5461 43.7326C78.4925 43.534 78.4787 43.3268 78.5055 43.1228C78.5324 42.9189 78.5993 42.7222 78.7025 42.5441C78.8023 42.3633 78.9375 42.2045 79.1001 42.077C79.2627 41.9495 79.4494 41.8561 79.649 41.8022C79.8485 41.7484 80.0568 41.7352 80.2615 41.7636C80.4662 41.7919 80.6632 41.8612 80.8405 41.9672C81.0193 42.0692 81.1761 42.2054 81.302 42.3682C81.4279 42.531 81.5204 42.717 81.5741 42.9156C81.6277 43.1142 81.6415 43.3215 81.6146 43.5254C81.5878 43.7294 81.5209 43.926 81.4177 44.1041Z" fill="#425AC2"/>
<path d="M44.4907 63.5216L42.9575 66.4097L60.2955 75.6038L61.8288 72.7157L44.4907 63.5216Z" fill="#425AC2"/>
<path d="M87.3103 59.4537L61.472 73.6914L62.6488 75.8247L88.4872 61.587L87.3103 59.4537Z" fill="#425AC2"/>
<path d="M68.8886 75.4301C68.8844 76.9041 68.4432 78.3439 67.6207 79.5675C66.7982 80.7911 65.6313 81.7435 64.2675 82.3047C62.9036 82.8659 61.404 83.0105 59.9579 82.7204C58.5119 82.4302 57.1844 81.7183 56.143 80.6745C55.1015 79.6307 54.393 78.3018 54.1068 76.8558C53.8206 75.4098 53.9696 73.9114 54.535 72.5499C55.1004 71.1885 56.0567 70.0251 57.2834 69.2066C58.51 68.388 59.9519 67.9512 61.4268 67.9512C62.4085 67.9512 63.3806 68.1447 64.2873 68.5209C65.194 68.897 66.0175 69.4482 66.7106 70.143C67.4038 70.8377 67.9531 71.6624 68.3269 72.5697C68.7006 73.4769 68.8915 74.449 68.8886 75.4301Z" fill="#FE958E"/>
<path d="M191.507 224.304H177.289V278.708H191.507V224.304Z" fill="#CCCCCC"/>
<path d="M188.557 263.023H180.218V317.427H188.557V263.023Z" fill="#CCCCCC"/>
<path d="M133.352 231.163H224.241C229.009 231.163 232.793 227.958 232.793 223.983V217.444C232.793 213.47 228.945 210.265 224.241 210.265H133.352C128.605 210.265 124.799 213.47 124.799 217.444V223.983C124.735 227.958 128.605 231.163 133.352 231.163Z" fill="#03053F"/>
<path d="M133.352 211.995H224.241C229.009 211.995 232.793 208.769 232.793 204.816V198.277C232.793 194.302 228.945 191.076 224.241 191.076H133.352C128.605 191.076 124.799 194.302 124.799 198.277V204.816C124.735 208.769 128.605 211.995 133.352 211.995Z" fill="#0E24A5"/>
<path d="M225.203 318.453C227.75 314.659 229.126 310.2 229.159 305.631C229.159 288.537 209.082 274.626 184.409 274.626C159.735 274.626 139.638 288.537 139.638 305.631C139.663 309.861 140.838 314.005 143.037 317.619L149.622 313.687C148.126 311.264 147.32 308.479 147.292 305.631C147.292 292.96 164.396 282.276 184.409 282.276C204.421 282.276 221.504 292.96 221.504 305.631C221.467 308.733 220.523 311.756 218.789 314.328L225.203 318.453Z" fill="#CCCCCC"/>
<path d="M232.195 317.683C232.19 315.892 231.655 314.143 230.656 312.656C229.658 311.169 228.24 310.011 226.584 309.328C224.927 308.646 223.105 308.469 221.347 308.821C219.59 309.173 217.977 310.038 216.711 311.306C215.446 312.574 214.584 314.188 214.236 315.945C213.888 317.702 214.069 319.523 214.756 321.177C215.443 322.831 216.604 324.245 218.095 325.239C219.585 326.234 221.337 326.765 223.129 326.765C224.321 326.765 225.502 326.53 226.603 326.073C227.705 325.617 228.705 324.947 229.547 324.104C230.389 323.26 231.056 322.259 231.511 321.157C231.965 320.055 232.197 318.875 232.195 317.683Z" fill="#0E24A5"/>
<path d="M193.944 317.684C193.944 315.886 193.411 314.13 192.412 312.636C191.412 311.142 189.992 309.978 188.33 309.291C186.668 308.605 184.84 308.426 183.077 308.778C181.314 309.13 179.695 309.997 178.425 311.27C177.155 312.542 176.291 314.162 175.943 315.925C175.595 317.688 175.778 319.515 176.469 321.174C177.16 322.833 178.328 324.25 179.825 325.245C181.322 326.24 183.081 326.769 184.879 326.765C186.071 326.765 187.252 326.53 188.353 326.073C189.454 325.617 190.455 324.947 191.297 324.104C192.139 323.26 192.806 322.259 193.26 321.157C193.715 320.056 193.947 318.875 193.944 317.684Z" fill="#0E24A5"/>
<path d="M117.508 167.913H211.006V190.349C211.006 196.181 208.688 201.774 204.562 205.897C200.436 210.021 194.84 212.337 189.005 212.337H117.508C111.673 212.337 106.077 210.021 101.952 205.897C97.8256 201.774 95.5077 196.181 95.5077 190.349V189.901C95.5077 184.069 97.8256 178.476 101.952 174.353C106.077 170.229 111.673 167.913 117.508 167.913Z" fill="#425AC2"/>
<path d="M96.8547 185.242L85.3518 313.346H102.285C102.285 313.346 129.375 230.009 132.09 202.85C134.805 175.691 115.157 180.499 115.157 180.499L96.8547 185.242Z" fill="#425AC2"/>
<path d="M150.371 185.242L138.868 313.346H155.801C155.801 313.346 182.891 230.009 185.606 202.85C188.321 175.691 168.672 180.499 168.672 180.499L150.371 185.242Z" fill="#425AC2"/>
<path d="M85.6938 313.346H102.285V326.167H68.6107C66.4726 326.167 65.6388 321.188 67.5844 320.12L85.6938 313.346Z" fill="#0E24A5"/>
<path d="M138.868 313.346H155.459V326.167H121.806C119.668 326.167 118.813 321.188 120.758 320.12L138.868 313.346Z" fill="#0E24A5"/>
<path d="M210.835 167.507H149.644L141.989 76.8834C141.83 74.9645 142.07 73.0335 142.695 71.212C143.319 69.3906 144.315 67.7183 145.619 66.3008C146.923 64.8832 148.506 63.7512 150.27 62.9761C152.034 62.2009 153.939 61.7996 155.865 61.7974H204.592C206.519 61.7996 208.424 62.2009 210.187 62.9761C211.951 63.7512 213.535 64.8832 214.839 66.3008C216.142 67.7183 217.138 69.3906 217.763 71.212C218.388 73.0335 218.628 74.9645 218.468 76.8834L210.835 167.507Z" fill="#A4B8EA"/>
<path d="M184.088 67.4384H174.595C173.088 67.3502 171.677 66.6689 170.671 65.5435C169.665 64.4182 169.147 62.9405 169.228 61.4339V49.7881C169.141 48.2778 169.657 46.7947 170.663 45.6647C171.67 44.5347 173.084 43.8503 174.595 43.7622H184.088C185.595 43.8558 187.004 44.5424 188.006 45.6718C189.008 46.8012 189.521 48.2813 189.433 49.7881V61.498C189.498 62.9904 188.974 64.4485 187.975 65.5593C186.975 66.67 185.58 67.3447 184.088 67.4384Z" fill="#E98896"/>
<path d="M161.232 52.1175C169.784 62.4812 178.999 56.3912 189.369 47.8439C191.873 45.8129 193.949 43.3061 195.477 40.4683C197.005 37.6305 197.955 34.5182 198.272 31.3111C198.589 28.1041 198.267 24.866 197.324 21.7842C196.381 18.7024 194.836 15.8379 192.779 13.3566C190.721 10.8752 188.192 8.82607 185.337 7.32772C182.483 5.82938 179.359 4.91153 176.147 4.62727C172.935 4.34301 169.698 4.69791 166.625 5.67156C163.551 6.64521 160.7 8.21823 158.239 10.2997C147.869 18.8684 152.658 41.7539 161.232 52.1175Z" fill="#FFB3B6"/>
<path d="M143.379 70.1094L114.344 120.026L136.943 129.62L154.925 100.068L143.379 70.1094Z" fill="#A4B8EA"/>
<path d="M218.19 64.1266C235.397 79.3165 247.586 99.3673 253.148 121.629C254.922 125.411 253.575 131.458 249.598 132.762L194.116 160.434L186.483 147.378L225.31 117.825L196.788 87.0762L198.263 61.9043C198.263 61.9043 213.935 60.4726 218.19 64.1266Z" fill="#A4B8EA"/>
<path d="M218.024 120.113L185.442 151.791L186.127 152.495L218.709 120.818L218.024 120.113Z" fill="#8EA8DD"/>
<path d="M227.963 143.082L190.696 162.653L191.154 163.523L228.421 143.952L227.963 143.082Z" fill="#8EA8DD"/>
<path d="M196.018 160.049H100.489V168.147H196.018V160.049Z" fill="#03053F"/>
<path d="M195.142 160.284H170.789L168.993 149.6H187.381C189.048 149.598 190.661 150.187 191.934 151.264C193.207 152.34 194.056 153.833 194.329 155.476L195.142 160.284Z" fill="#FFB3B6"/>
<path d="M177.268 160.37H100.575L90.0342 112.911H166.748L177.268 160.37Z" fill="#03053F"/>
<path d="M137.307 137.933C137.307 138.93 137.011 139.905 136.457 140.734C135.902 141.564 135.114 142.21 134.192 142.592C133.27 142.973 132.255 143.073 131.277 142.879C130.298 142.684 129.399 142.204 128.693 141.498C127.987 140.793 127.507 139.895 127.312 138.916C127.117 137.938 127.217 136.924 127.599 136.003C127.981 135.081 128.628 134.294 129.458 133.739C130.288 133.185 131.263 132.89 132.261 132.89C133.599 132.89 134.883 133.421 135.829 134.367C136.775 135.312 137.307 136.595 137.307 137.933Z" fill="#425AC2"/>
<path d="M196.638 38.8692C195.869 40.5787 190.224 41.006 191.657 36.1554C193.495 30.1295 193.624 21.0266 186.91 22.2874C180.197 23.5481 185.029 30.1296 182.313 31.3048C179.598 32.4801 177.823 21.7318 174.467 16.7316C171.11 11.7314 157.362 18.3769 150.178 20.2573C142.994 22.1378 135.81 7.88505 154.24 2.41475C166.641 -1.26061 176.776 -1.38882 189.091 6.68842C198.413 12.7143 201.599 27.8859 196.638 38.8692Z" fill="#FE958E"/>
</g>
<defs>
<clipPath id="clip0_662_1552">
<rect width="284" height="327" fill="white"/>
</clipPath>
</defs>
</svg>
