<svg width="124" height="135" viewBox="0 0 124 135" fill="none" xmlns="http://www.w3.org/2000/svg">
<g clip-path="url(#clip0_662_1059)">
<path d="M106.589 121.231C105.497 121.011 102.541 118.718 100.137 112.381C98.7592 108.758 94.8842 90.0887 100.137 88.7789C105.391 87.4691 104.405 96.8503 104.405 105.493C104.405 110.759 106.589 121.231 106.589 121.231Z" fill="#0E24A5"/>
<path d="M108.999 122.115C106.236 121.935 106.809 94.0378 106.589 87.4823C106.369 80.9268 105.058 56.4532 108.78 52.5173C112.502 48.5813 116.33 52.0785 116.656 57.1713C116.816 59.5847 115.99 77.1171 115.564 82.1435C115.138 87.1698 114.579 98.5323 114.139 105.739C113.7 112.946 112.282 122.321 108.999 122.115Z" fill="#0E24A5"/>
<path d="M114.139 122.434C114.139 122.434 120.271 110.354 121.803 101.019C124.539 84.2978 125.085 68.022 121.363 68.2347C117.642 68.4475 117.369 84.8563 117.209 91.8373C116.769 109.975 112.502 121.337 112.502 121.337L114.139 122.434Z" fill="#0E24A5"/>
<path d="M113.613 121.929L113.36 121.836C113.36 121.776 115.544 115.792 116.969 111.79C119.772 103.925 120.238 93.4662 120.245 93.3599H120.511C120.511 93.4662 120.045 103.958 117.222 111.863C115.797 115.885 113.633 121.869 113.613 121.929Z" fill="#FFC1C1"/>
<path d="M109.898 120.247H109.632C109.632 116.517 110.298 105.62 110.298 105.487H110.571C110.551 105.613 109.898 116.524 109.898 120.247Z" fill="#FFC1C1"/>
<path d="M105.537 121.118C104.127 117.633 102.92 114.07 101.922 110.447C101.126 107.217 100.792 103.89 100.93 100.567H101.203C101.061 103.861 101.39 107.159 102.182 110.36C103.177 113.972 104.379 117.524 105.784 120.998L105.537 121.118Z" fill="#FFC1C1"/>
<path d="M111.41 105.713C111.411 105.876 111.364 106.036 111.274 106.173C111.184 106.309 111.055 106.416 110.905 106.479C110.754 106.543 110.588 106.56 110.427 106.529C110.266 106.498 110.119 106.42 110.003 106.305C109.886 106.19 109.807 106.043 109.775 105.883C109.742 105.723 109.758 105.557 109.821 105.405C109.883 105.254 109.989 105.125 110.125 105.034C110.261 104.944 110.42 104.895 110.584 104.895C110.802 104.895 111.011 104.981 111.165 105.134C111.32 105.287 111.408 105.495 111.41 105.713Z" fill="#425AC2"/>
<path d="M101.889 100.686C101.89 100.85 101.842 101.01 101.752 101.147C101.662 101.284 101.533 101.39 101.382 101.453C101.231 101.517 101.064 101.534 100.904 101.502C100.743 101.47 100.595 101.392 100.479 101.276C100.363 101.16 100.285 101.013 100.253 100.852C100.221 100.692 100.238 100.525 100.301 100.375C100.365 100.224 100.472 100.095 100.608 100.005C100.745 99.9148 100.906 99.8674 101.07 99.8687C101.177 99.8687 101.284 99.8898 101.383 99.9309C101.482 99.972 101.573 100.032 101.649 100.108C101.725 100.184 101.785 100.274 101.826 100.373C101.867 100.473 101.889 100.579 101.889 100.686Z" fill="#425AC2"/>
<path d="M121.197 93.3664C121.197 93.5281 121.149 93.6862 121.059 93.8207C120.969 93.9552 120.841 94.06 120.691 94.1219C120.542 94.1838 120.377 94.2 120.218 94.1684C120.059 94.1369 119.913 94.059 119.799 93.9446C119.684 93.8302 119.606 93.6845 119.575 93.5259C119.543 93.3673 119.559 93.2028 119.621 93.0534C119.683 92.904 119.788 92.7763 119.923 92.6864C120.058 92.5966 120.216 92.5486 120.378 92.5486C120.595 92.5486 120.803 92.6347 120.957 92.7881C121.111 92.9415 121.197 93.1495 121.197 93.3664Z" fill="#425AC2"/>
<path d="M56.4672 27.4056L51.8731 29.5066C51.7422 29.5655 51.5982 29.5891 51.4554 29.5749C51.3125 29.5607 51.1759 29.5093 51.0593 29.4258C50.9426 29.3423 50.85 29.2297 50.7906 29.0992C50.7313 28.9686 50.7074 28.8248 50.7212 28.6822L51.194 23.6691C51.2069 23.5257 51.2576 23.3883 51.3409 23.2707C51.4242 23.1531 51.537 23.0596 51.6681 22.9995C51.7992 22.9395 51.9438 22.9151 52.0873 22.9287C52.2309 22.9424 52.3683 22.9937 52.4856 23.0774L56.6003 25.9961C56.7173 26.0793 56.8104 26.1917 56.8702 26.3222C56.9299 26.4526 56.9543 26.5964 56.9408 26.7392C56.9273 26.882 56.8765 27.0188 56.7933 27.1358C56.7102 27.2527 56.5977 27.3458 56.4672 27.4056Z" fill="#425AC2"/>
<path d="M40.0883 34.5196L44.9753 38.3957C45.1158 38.5047 45.2248 38.649 45.2912 38.8137C45.3575 38.9785 45.379 39.1579 45.3533 39.3337C45.3275 39.5094 45.2556 39.6752 45.1447 39.8141C45.0339 39.953 44.8881 40.0601 44.7223 40.1244L38.9098 42.4181C38.7445 42.4831 38.5649 42.5035 38.3892 42.4772C38.2135 42.451 38.0477 42.379 37.9087 42.2684C37.7697 42.1579 37.6623 42.0128 37.5972 41.8477C37.5322 41.6826 37.5119 41.5032 37.5383 41.3278L38.4571 35.1578C38.4838 34.9826 38.5562 34.8175 38.667 34.679C38.7778 34.5406 38.9231 34.4336 39.0884 34.369C39.2536 34.3043 39.433 34.2842 39.6085 34.3106C39.784 34.3371 39.9495 34.4091 40.0883 34.5196Z" fill="#425AC2"/>
<path d="M46.6931 28.7152L47.1458 32.4717C47.1651 32.581 47.1542 32.6934 47.1144 32.797C47.0745 32.9006 47.0072 32.9914 46.9197 33.0597C46.8321 33.128 46.7276 33.1712 46.6173 33.1848C46.507 33.1983 46.3951 33.1817 46.2936 33.1366L42.8048 31.6473C42.7047 31.6055 42.6176 31.538 42.5523 31.4516C42.4869 31.3652 42.4457 31.263 42.4329 31.1555C42.42 31.0481 42.436 30.9391 42.4791 30.8397C42.5222 30.7404 42.5909 30.6543 42.6783 30.5901L45.7144 28.323C45.7988 28.2582 45.8986 28.2165 46.0041 28.202C46.1095 28.1875 46.217 28.2007 46.3158 28.2403C46.4146 28.2799 46.5013 28.3445 46.5675 28.4278C46.6337 28.5111 46.677 28.6102 46.6931 28.7152Z" fill="#425AC2"/>
<path d="M53.5176 39.2801L49.1299 36.7869C49.0055 36.7151 48.9022 36.6118 48.8303 36.4875C48.7585 36.3633 48.7207 36.2223 48.7207 36.0788C48.7207 35.9353 48.7585 35.7943 48.8303 35.67C48.9022 35.5457 49.0055 35.4425 49.1299 35.3707L53.4843 32.8243C53.6078 32.7499 53.7489 32.7097 53.893 32.7078C54.0372 32.7059 54.1793 32.7424 54.3047 32.8135C54.4301 32.8845 54.5343 32.9877 54.6066 33.1123C54.6789 33.2368 54.7167 33.3784 54.7161 33.5224L54.7493 38.562C54.7514 38.7069 54.715 38.8497 54.6436 38.9759C54.5723 39.1021 54.4687 39.207 54.3434 39.2801C54.2181 39.3531 54.0756 39.3916 53.9305 39.3916C53.7854 39.3916 53.6429 39.3531 53.5176 39.2801Z" fill="#425AC2"/>
<path d="M49.9023 46.9259L49.3363 45.9086C47.239 42.1322 45.2549 38.5952 48.2178 33.7151C51.1806 28.835 53.2779 26.0359 53.2979 26.0027L53.5176 26.1622C53.5176 26.1955 51.4003 29.0278 48.4508 33.8547C45.5679 38.5752 47.512 42.0724 49.576 45.7823C49.7625 46.1147 49.9489 46.4538 50.1353 46.7995L49.9023 46.9259Z" fill="#0E24A5"/>
<path d="M44.932 30.3752L44.7083 30.5188L47.2502 34.4673L47.4739 34.3237L44.932 30.3752Z" fill="#0E24A5"/>
<path d="M42.2453 38.6791L42.2029 38.9417L46.8498 39.6916L46.8923 39.429L42.2453 38.6791Z" fill="#0E24A5"/>
<path d="M51.9262 35.8504L47.226 36.1079L47.2406 36.3735L51.9408 36.116L51.9262 35.8504Z" fill="#0E24A5"/>
<path d="M41.846 110.52L46.6066 109.915C46.7421 109.897 46.8799 109.916 47.0061 109.968C47.1323 110.021 47.2423 110.106 47.3253 110.214C47.4083 110.323 47.4613 110.451 47.4788 110.586C47.4964 110.722 47.478 110.859 47.4255 110.985L45.5679 115.407C45.5141 115.531 45.4287 115.639 45.3203 115.72C45.2118 115.801 45.0841 115.853 44.9496 115.869C44.8151 115.886 44.6786 115.868 44.5535 115.816C44.4284 115.764 44.3191 115.68 44.2363 115.573L41.3333 111.763C41.2506 111.655 41.1976 111.527 41.1798 111.392C41.1619 111.257 41.1799 111.12 41.2318 110.994C41.2836 110.869 41.3677 110.758 41.4755 110.675C41.5832 110.592 41.711 110.538 41.846 110.52Z" fill="#425AC2"/>
<path d="M58.7309 108.698L55.4018 103.798C55.3078 103.663 55.2503 103.506 55.2347 103.342C55.2192 103.178 55.2462 103.013 55.3131 102.863C55.38 102.713 55.4846 102.582 55.6168 102.484C55.7489 102.386 55.9042 102.323 56.0677 102.302L61.98 101.87C62.1483 101.858 62.3167 101.891 62.4685 101.964C62.6203 102.038 62.7501 102.15 62.8451 102.289C62.9401 102.428 62.9969 102.59 63.0098 102.758C63.0227 102.926 62.9914 103.094 62.9188 103.246L60.3355 108.565C60.2588 108.705 60.1486 108.823 60.0148 108.91C59.8811 108.997 59.7279 109.049 59.569 109.062C59.41 109.075 59.2503 109.049 59.1041 108.985C58.9578 108.922 58.8296 108.823 58.7309 108.698Z" fill="#425AC2"/>
<path d="M51.0808 112.102L51.7466 108.565C51.7638 108.464 51.8077 108.369 51.8739 108.29C51.9401 108.211 52.0261 108.151 52.1231 108.117C52.2201 108.082 52.3245 108.074 52.4257 108.093C52.5269 108.113 52.6211 108.158 52.6987 108.226L55.4418 110.56C55.5202 110.626 55.5796 110.713 55.6139 110.81C55.6483 110.907 55.6564 111.011 55.6375 111.112C55.6186 111.213 55.5733 111.308 55.5062 111.386C55.4392 111.464 55.3526 111.523 55.2554 111.557L51.8597 112.76C51.7624 112.796 51.6572 112.806 51.555 112.788C51.4527 112.77 51.3571 112.725 51.2778 112.658C51.1986 112.591 51.1386 112.505 51.104 112.407C51.0693 112.309 51.0613 112.204 51.0808 112.102Z" fill="#425AC2"/>
<path d="M47.8915 100.587L51.1607 104.091C51.2546 104.19 51.3205 104.312 51.3518 104.444C51.383 104.577 51.3785 104.716 51.3385 104.846C51.2986 104.977 51.2247 105.094 51.1245 105.187C51.0242 105.28 50.9012 105.344 50.7678 105.374L46.1072 106.451C45.9742 106.481 45.8355 106.476 45.7051 106.436C45.5748 106.396 45.4572 106.322 45.3641 106.223C45.2711 106.123 45.2059 106.001 45.1751 105.868C45.1442 105.736 45.1488 105.597 45.1884 105.467L46.5932 100.886C46.6335 100.758 46.7067 100.642 46.8055 100.551C46.9043 100.459 47.0253 100.395 47.1566 100.365C47.2878 100.335 47.4247 100.339 47.5536 100.378C47.6825 100.417 47.799 100.489 47.8915 100.587Z" fill="#425AC2"/>
<path d="M44.3228 112.694L44.1697 112.475C44.1697 112.475 46.8995 110.48 50.9476 106.936C54.9957 103.393 54.1235 99.7491 53.3046 95.8065L53.0848 94.7228L53.3512 94.6763L53.5709 95.7533C54.4031 99.7425 55.1888 103.572 51.1207 107.136C47.0526 110.699 44.3561 112.674 44.3228 112.694Z" fill="#0E24A5"/>
<path d="M49.1494 106.8L48.8873 106.871L50.0506 111.16L50.3127 111.09L49.1494 106.8Z" fill="#0E24A5"/>
<path d="M54.0469 102.086L53.9279 102.324L57.931 104.32L58.05 104.082L54.0469 102.086Z" fill="#0E24A5"/>
<path d="M48.4101 103.895L48.3444 104.152L52.6806 105.254L52.7462 104.996L48.4101 103.895Z" fill="#0E24A5"/>
<path d="M103.2 118.711H115.89L113.68 134.96H105.411L103.2 118.711Z" fill="#FFC1C1"/>
<path d="M39.5889 87.2231L45.7743 114.609L40.8606 132.128H36.7992L38.9697 114.562C38.9697 114.562 35.674 106.165 34.0228 101.744L31.2397 102.355L32.1652 115.174L28.9094 132.128H24.8479L25.3606 115.333C25.3606 115.333 20.9729 94.1909 21.0329 91.5314C20.9197 91.1126 39.5889 87.2231 39.5889 87.2231Z" fill="#FE958E"/>
<path d="M41.1403 91.2389L21.9583 94.9422L9.308 80.9801C8.94885 80.6846 8.65573 80.3172 8.44758 79.9015C8.23943 79.4859 8.12087 79.0312 8.09954 78.567C8.07821 78.1028 8.15457 77.6392 8.32374 77.2063C8.4929 76.7734 8.75108 76.3807 9.08163 76.0535L17.351 67.7494C17.6763 67.4174 18.0677 67.1571 18.5 66.9854C18.9323 66.8137 19.3958 66.7344 19.8606 66.7525C20.3255 66.7707 20.7814 66.886 21.1989 67.0909C21.6164 67.2958 21.9862 67.5858 22.2846 67.9422L41.1403 91.2389Z" fill="#0E24A5"/>
<path d="M14.8675 72.1906L13.2496 73.8062C13.1154 73.9264 12.9588 74.0189 12.7888 74.0786C12.6188 74.1382 12.4387 74.1639 12.2587 74.154C12.0788 74.1441 11.9026 74.0989 11.7402 74.021C11.5777 73.9431 11.4323 73.834 11.3121 73.6999L9.31465 71.7053C9.04356 71.465 8.87879 71.1272 8.85634 70.7659C8.83388 70.4046 8.95557 70.0492 9.19481 69.7772L10.806 68.1549C11.0778 67.914 11.4339 67.79 11.7967 67.8099C12.1596 67.8299 12.4999 67.9921 12.7436 68.2613L14.741 70.2559C15.0134 70.4965 15.1796 70.8348 15.2033 71.1972C15.227 71.5597 15.1063 71.9167 14.8675 72.1906Z" fill="#E98896"/>
<path d="M8.25602 77.4696C7.76332 78.6996 8.74206 94.5897 9.64755 95.7466C11.4586 98.0404 25.8999 99.0244 25.8999 99.0244V95.5206L15.247 91.7508L13.689 78.5533C13.689 78.5533 9.00172 75.6146 8.25602 77.4696Z" fill="#0E24A5"/>
<path d="M13.5492 65.4024C15.1072 68.2414 12.9367 69.7506 10.0937 71.2997C9.41626 71.6866 8.66842 71.9348 7.89386 72.0298C7.1193 72.1248 6.33355 72.0646 5.58253 71.8529C4.83151 71.6412 4.13028 71.2821 3.51983 70.7967C2.90937 70.3112 2.40193 69.7091 2.02716 69.0256C1.6524 68.3421 1.41782 67.5908 1.33714 66.8157C1.25645 66.0407 1.33128 65.2573 1.55725 64.5114C1.78322 63.7655 2.15579 63.0721 2.65321 62.4717C3.15062 61.8712 3.76292 61.3758 4.45427 61.0143C7.29727 59.4586 11.9912 62.5568 13.5492 65.4024Z" fill="#FFB3B6"/>
<path d="M3.29572 66.7986C3.29572 66.7986 10.027 61.4797 11.1057 58.9599C12.111 56.5598 11.4918 54.7247 8.84856 54.6915C5.45294 54.6516 3.63529 58.2286 2.92287 62.2576C2.68318 63.6073 3.29572 66.7986 3.29572 66.7986Z" fill="#7F4D4E"/>
<path d="M4.27448 65.3027C4.27448 65.3027 5.74592 66.7587 5.54618 66.9648C5.19235 67.1401 4.89849 67.4162 4.70177 67.7582C4.50504 68.1002 4.41428 68.4928 4.44093 68.8863C4.59407 70.1495 5.90572 70.216 6.71801 69.7373C7.53029 69.2586 8.79532 71.3995 6.9244 72.6627C5.05348 73.9259 0.805622 70.8144 0.193079 68.5937C-0.419464 66.3731 0.579266 62.231 1.58463 61.4199C2.59 60.6088 5.2266 62.3175 5.2266 62.3175L4.27448 65.3027Z" fill="#7F4D4E"/>
<path d="M15.8795 64.5381C16.4536 65.112 16.8445 65.843 17.0027 66.6386C17.1608 67.4342 17.0793 68.2588 16.7682 69.0082C16.4572 69.7575 15.9306 70.398 15.2551 70.8485C14.5797 71.2991 13.7856 71.5396 12.9733 71.5396C12.1609 71.5396 11.3669 71.2991 10.6914 70.8485C10.0159 70.398 9.48938 69.7575 9.17833 69.0082C8.86729 68.2588 8.78569 67.4342 8.94387 66.6386C9.10205 65.843 9.4929 65.112 10.067 64.5381C10.4485 64.1568 10.9016 63.8543 11.4003 63.6479C11.8989 63.4414 12.4334 63.3352 12.9733 63.3352C13.5131 63.3352 14.0476 63.4414 14.5463 63.6479C15.045 63.8543 15.498 64.1568 15.8795 64.5381Z" fill="#7F4D4E"/>
<path d="M11.727 65.0559L10.511 66.2769C10.2621 66.5269 10.2632 66.931 10.5136 67.1795L10.7118 67.3765C10.9622 67.625 11.3669 67.6239 11.6158 67.3739L12.8317 66.1529C13.0806 65.903 13.0795 65.4988 12.8292 65.2503L12.6309 65.0534C12.3806 64.8048 11.9759 64.8059 11.727 65.0559Z" fill="#FFB3B6"/>
<path d="M48.0047 133.843L46.52 133.198L62.8589 96.0725L64.3436 96.7241L48.0047 133.843Z" fill="#CCCCCC"/>
<path d="M48.6705 133.418C48.6758 133.712 48.5934 134.002 48.4339 134.249C48.2744 134.497 48.045 134.692 47.7745 134.81C47.504 134.927 47.2048 134.962 46.9145 134.91C46.6242 134.857 46.356 134.72 46.1438 134.516C45.9315 134.311 45.7848 134.048 45.7221 133.761C45.6593 133.473 45.6835 133.173 45.7915 132.899C45.8994 132.625 46.0864 132.389 46.3286 132.221C46.5709 132.053 46.8576 131.96 47.1525 131.955C47.5475 131.95 47.9287 132.1 48.213 132.374C48.4974 132.648 48.6618 133.023 48.6705 133.418Z" fill="#FFC1C1"/>
<path d="M83.1327 133.843L84.6241 133.198L68.1454 95.7666L66.6606 96.4182L83.1327 133.843Z" fill="#CCCCCC"/>
<path d="M82.4736 133.418C82.4683 133.712 82.5507 134.002 82.7102 134.249C82.8697 134.497 83.0992 134.692 83.3696 134.81C83.6401 134.927 83.9393 134.962 84.2296 134.91C84.5199 134.857 84.7881 134.72 85.0003 134.516C85.2126 134.311 85.3594 134.048 85.4221 133.761C85.4848 133.473 85.4606 133.173 85.3527 132.899C85.2447 132.625 85.0578 132.389 84.8155 132.221C84.5733 132.053 84.2865 131.96 83.9916 131.955C83.5971 131.951 83.2169 132.103 82.9329 132.376C82.649 132.65 82.484 133.024 82.4736 133.418Z" fill="#FFC1C1"/>
<path d="M61.3076 40.6961C61.5939 37.6842 64.0374 36.8199 65.0427 35.5301C66.0481 34.2402 66.2878 30.4106 67.4863 28.303C68.7646 26.0492 70.8153 22.6584 76.488 23.2833C81.0421 23.782 82.2871 27.3456 82.4336 30.0782C82.5801 32.8108 85.017 35.3971 86.7414 36.2481C88.4658 37.0992 89.3314 40.2373 89.1849 41.7C89.0384 43.1627 61.3076 40.6961 61.3076 40.6961Z" fill="#0E24A5"/>
<path d="M68.0855 58.2019H83.3658L81.2618 50.423L85.2567 37.9635C85.4231 36.3146 83.8252 34.8918 81.7945 34.8918H69.6368C67.6394 34.8918 66.0081 36.3146 66.1813 37.9635L70.509 50.423L68.0855 58.2019Z" fill="#FE958E"/>
<path d="M68.0522 41.0019C66.8138 40.8623 64.9762 38.615 62.273 33.8546C59.5698 29.0942 59.3368 28.1701 59.3834 27.4853C59.43 26.8005 61.3808 17.1799 61.3808 17.1799H64.317L63.4448 27.6249C63.4448 27.6249 67.0535 33.5355 69.3505 34.9384C70.6289 35.7495 68.0522 41.0019 68.0522 41.0019Z" fill="#FE958E"/>
<path d="M83.2126 41.0019C84.451 40.8623 86.282 38.615 88.9918 33.8546C91.7017 29.0942 91.928 28.1701 91.8814 27.4853C91.8348 26.8005 89.884 17.1799 89.884 17.1799H86.9478L87.82 27.6249C87.82 27.6249 84.198 33.3161 82.2605 35.0181C81.1486 36.0021 83.2126 41.0019 83.2126 41.0019Z" fill="#FE958E"/>
<path d="M75.6491 38.5088C79.032 38.5088 81.7745 35.7703 81.7745 32.3921C81.7745 29.0139 79.032 26.2754 75.6491 26.2754C72.2661 26.2754 69.5236 29.0139 69.5236 32.3921C69.5236 35.7703 72.2661 38.5088 75.6491 38.5088Z" fill="#E98896"/>
<path d="M106.709 39.9648H24.4351C21.1882 39.9648 18.5561 42.5933 18.5561 45.8356V92.1631C18.5561 95.4054 21.1882 98.0338 24.4351 98.0338H106.709C109.956 98.0338 112.588 95.4054 112.588 92.1631V45.8356C112.588 42.5933 109.956 39.9648 106.709 39.9648Z" fill="#FEE2E3"/>
<path d="M34.0827 44.8979H25.9265C24.7572 44.8979 23.8093 45.8445 23.8093 47.0122V55.1568C23.8093 56.3244 24.7572 57.271 25.9265 57.271H34.0827C35.252 57.271 36.1999 56.3244 36.1999 55.1568V47.0122C36.1999 45.8445 35.252 44.8979 34.0827 44.8979Z" fill="#FFC1C1"/>
<path d="M52.0195 44.8979H43.8634C42.6941 44.8979 41.7461 45.8445 41.7461 47.0122V55.1568C41.7461 56.3244 42.6941 57.271 43.8634 57.271H52.0195C53.1889 57.271 54.1368 56.3244 54.1368 55.1568V47.0122C54.1368 45.8445 53.1889 44.8979 52.0195 44.8979Z" fill="#FFC1C1"/>
<path d="M69.9564 44.8979H61.8003C60.6309 44.8979 59.683 45.8445 59.683 47.0122V55.1568C59.683 56.3244 60.6309 57.271 61.8003 57.271H69.9564C71.1257 57.271 72.0737 56.3244 72.0737 55.1568V47.0122C72.0737 45.8445 71.1257 44.8979 69.9564 44.8979Z" fill="#FFC1C1"/>
<path d="M87.8932 44.8979H79.7371C78.5678 44.8979 77.6198 45.8445 77.6198 47.0122V55.1568C77.6198 56.3244 78.5678 57.271 79.7371 57.271H87.8932C89.0626 57.271 90.0105 56.3244 90.0105 55.1568V47.0122C90.0105 45.8445 89.0626 44.8979 87.8932 44.8979Z" fill="#FFC1C1"/>
<path d="M105.83 44.8979H97.674C96.5046 44.8979 95.5567 45.8445 95.5567 47.0122V55.1568C95.5567 56.3244 96.5046 57.271 97.674 57.271H105.83C106.999 57.271 107.947 56.3244 107.947 55.1568V47.0122C107.947 45.8445 106.999 44.8979 105.83 44.8979Z" fill="#FFC1C1"/>
<path d="M34.0827 62.5037H25.9265C24.7572 62.5037 23.8093 63.4502 23.8093 64.6179V72.7625C23.8093 73.9301 24.7572 74.8767 25.9265 74.8767H34.0827C35.252 74.8767 36.1999 73.9301 36.1999 72.7625V64.6179C36.1999 63.4502 35.252 62.5037 34.0827 62.5037Z" fill="#FFC1C1"/>
<path d="M52.0195 62.5037H43.8634C42.6941 62.5037 41.7461 63.4502 41.7461 64.6179V72.7625C41.7461 73.9301 42.6941 74.8767 43.8634 74.8767H52.0195C53.1889 74.8767 54.1368 73.9301 54.1368 72.7625V64.6179C54.1368 63.4502 53.1889 62.5037 52.0195 62.5037Z" fill="#FFC1C1"/>
<path d="M69.9564 62.5037H61.8003C60.6309 62.5037 59.683 63.4502 59.683 64.6179V72.7625C59.683 73.9301 60.6309 74.8767 61.8003 74.8767H69.9564C71.1257 74.8767 72.0737 73.9301 72.0737 72.7625V64.6179C72.0737 63.4502 71.1257 62.5037 69.9564 62.5037Z" fill="#FFC1C1"/>
<path d="M105.83 62.5037H97.674C96.5046 62.5037 95.5567 63.4502 95.5567 64.6179V72.7625C95.5567 73.9301 96.5046 74.8767 97.674 74.8767H105.83C106.999 74.8767 107.947 73.9301 107.947 72.7625V64.6179C107.947 63.4502 106.999 62.5037 105.83 62.5037Z" fill="#FFC1C1"/>
<path d="M34.0827 80.1091H25.9265C24.7572 80.1091 23.8093 81.0557 23.8093 82.2234V90.3679C23.8093 91.5356 24.7572 92.4822 25.9265 92.4822H34.0827C35.252 92.4822 36.1999 91.5356 36.1999 90.3679V82.2234C36.1999 81.0557 35.252 80.1091 34.0827 80.1091Z" fill="#FFC1C1"/>
<path d="M52.0195 80.1091H43.8634C42.6941 80.1091 41.7461 81.0557 41.7461 82.2234V90.3679C41.7461 91.5356 42.6941 92.4822 43.8634 92.4822H52.0195C53.1889 92.4822 54.1368 91.5356 54.1368 90.3679V82.2234C54.1368 81.0557 53.1889 80.1091 52.0195 80.1091Z" fill="#FFC1C1"/>
<path d="M69.9564 80.1091H61.8003C60.6309 80.1091 59.683 81.0557 59.683 82.2234V90.3679C59.683 91.5356 60.6309 92.4822 61.8003 92.4822H69.9564C71.1257 92.4822 72.0737 91.5356 72.0737 90.3679V82.2234C72.0737 81.0557 71.1257 80.1091 69.9564 80.1091Z" fill="#FFC1C1"/>
<path d="M87.8932 80.1091H79.7371C78.5678 80.1091 77.6198 81.0557 77.6198 82.2234V90.3679C77.6198 91.5356 78.5678 92.4822 79.7371 92.4822H87.8932C89.0626 92.4822 90.0105 91.5356 90.0105 90.3679V82.2234C90.0105 81.0557 89.0626 80.1091 87.8932 80.1091Z" fill="#FFC1C1"/>
<path d="M105.83 80.1091H97.674C96.5046 80.1091 95.5567 81.0557 95.5567 82.2234V90.3679C95.5567 91.5356 96.5046 92.4822 97.674 92.4822H105.83C106.999 92.4822 107.947 91.5356 107.947 90.3679V82.2234C107.947 81.0557 106.999 80.1091 105.83 80.1091Z" fill="#FFC1C1"/>
<path d="M40.8606 132.088H36.7592V134.747H43.8634C44.3361 134.747 44.4959 133.697 44.0831 133.464L40.8606 132.088Z" fill="#425AC2"/>
<path d="M28.9093 132.088H24.8146V134.747H31.9188C32.3849 134.747 32.5513 133.697 32.1385 133.464L28.9093 132.088Z" fill="#425AC2"/>
<path d="M91.6883 71.333C92.6138 71.6455 95.0174 73.5138 96.0827 75.6014C96.8883 77.1638 101.07 85.5743 100.863 86.9041C100.657 88.2338 88.2129 96.3783 88.2129 96.3783L86.3552 92.2562C86.3552 92.2562 95.0107 86.4918 94.7045 85.6674C94.3982 84.843 90.0438 76.1266 90.0438 76.1266L91.6883 71.333Z" fill="white"/>
<path d="M83.8518 100.274H76.3814L76.7876 132.507H79.6705C79.6705 132.507 81.8544 116.291 82.68 107.329H83.7253C83.8651 104.975 83.8651 102.635 83.8518 100.274Z" fill="#FFB3B6"/>
<path d="M85.3632 99.4697L78.4921 102.794C79.544 104.908 80.5627 107.016 81.4682 109.19L82.3271 108.778L93.8922 131.157L96.4889 129.9C96.4889 129.9 88.4991 105.673 86.2687 101.311C86.0004 100.682 85.6982 100.067 85.3632 99.4697Z" fill="#FFB3B6"/>
<path d="M89.3913 89.9424H78.7051L75.9753 72.7757C75.8288 71.3728 77.1804 70.1694 78.9048 70.1694H90.0238C91.7483 70.1694 93.1065 71.3728 92.96 72.7757L89.3913 89.9424Z" fill="white"/>
<path d="M76.5346 132.46H79.8037V134.96H73.1789C72.7462 134.96 72.593 133.983 72.9725 133.77L76.5346 132.46Z" fill="#0E24A5"/>
<path d="M93.5726 131.263L96.5088 129.834L97.6074 132.088L91.6484 134.973C91.2556 135.166 90.6963 134.348 90.9427 133.996L93.5726 131.263Z" fill="#0E24A5"/>
<path d="M78.7051 89.9424H89.358C89.358 89.9424 92.1411 93.1936 94.0986 102.874C95.7764 111.145 97.5008 123.671 97.5008 123.671H72.1469C72.1469 123.671 73.9712 105.254 75.3961 99.2704C76.8608 93.0938 78.7051 89.9424 78.7051 89.9424Z" fill="#425AC2"/>
<path d="M95.6233 86.864H73.9712V88.1006H95.6233V86.864Z" fill="#03053F"/>
<path d="M95.6233 83.8455H73.9712V85.0821H95.6233V83.8455Z" fill="#03053F"/>
<path d="M95.6233 80.8271H73.9712V82.0638H95.6233V80.8271Z" fill="#03053F"/>
<path d="M95.6233 77.8086H73.9712V79.0452H95.6233V77.8086Z" fill="#03053F"/>
<path d="M95.6233 74.7969H73.9712V76.0335H95.6233V74.7969Z" fill="#03053F"/>
<path d="M95.6233 71.7783H73.9712V73.015H95.6233V71.7783Z" fill="#03053F"/>
<path d="M83.2326 71.3396H85.1767C85.4848 71.3208 85.7727 71.1807 85.9775 70.9501C86.1822 70.7195 86.2869 70.4172 86.2687 70.1096V67.7161C86.2869 67.4085 86.1822 67.1062 85.9775 66.8756C85.7727 66.645 85.4848 66.5049 85.1767 66.4861H83.2326C82.924 66.5049 82.6354 66.6448 82.4297 66.8752C82.2239 67.1056 82.1176 67.4078 82.134 67.7161V70.1096C82.1176 70.4179 82.2239 70.7201 82.4297 70.9505C82.6354 71.1809 82.924 71.3207 83.2326 71.3396Z" fill="#E98896"/>
<path d="M79.9169 66.4795C80.7025 69.139 82.913 68.7201 85.5563 67.9356C86.1853 67.7483 86.7714 67.4391 87.2808 67.0257C87.7902 66.6122 88.2131 66.1027 88.5254 65.526C88.8376 64.9494 89.033 64.317 89.1005 63.665C89.1679 63.0129 89.1062 62.354 88.9186 61.7258C88.7311 61.0976 88.4214 60.5124 88.0074 60.0037C87.5934 59.495 87.0831 59.0727 86.5056 58.7609C85.9282 58.4491 85.2949 58.254 84.6419 58.1866C83.9889 58.1192 83.3291 58.1809 82.7 58.3682C80.0833 59.1527 79.1379 63.84 79.9169 66.4795Z" fill="#FFCACE"/>
<path d="M82.893 57.6768C79.8436 58.8469 79.6106 60.416 79.4508 61.3933C79.3177 62.2643 79.9169 61.6992 81.3484 61.892C82.1939 62.0117 83.0129 62.0117 83.0861 62.5568C83.2659 63.7868 83.0862 73.8595 83.7187 73.8595C84.3512 73.8595 93.2464 74.398 93.4528 73.5736C93.6592 72.7491 91.9813 61.1407 88.659 58.827C85.9558 56.9587 84.2313 57.1582 82.893 57.6768Z" fill="#FE958E"/>
<path d="M79.5973 70.2558C79.5973 70.2558 71.2747 69.9035 70.2161 69.6375C69.1574 69.3716 62.0999 59.1726 62.0999 59.1726L59.8828 60.2829C59.8828 60.2829 66.2678 72.2504 67.5995 72.7757C68.9311 73.3009 76.8142 76.2928 76.8142 76.2928C76.8142 76.2928 78.2524 76.2928 79.1845 73.9192C80.1632 71.446 79.5973 70.2558 79.5973 70.2558Z" fill="white"/>
<path d="M54.0833 38.3031L53.0805 39.3044L77.6891 63.878L78.6919 62.8766L54.0833 38.3031Z" fill="#425AC2"/>
<path d="M77.6711 38.2746L53.0625 62.8481L54.0653 63.8495L78.6739 39.276L77.6711 38.2746Z" fill="#425AC2"/>
<path d="M18.2064 55.911L17.2036 56.9124L41.8122 81.4859L42.815 80.4845L18.2064 55.911Z" fill="#425AC2"/>
<path d="M41.8122 55.9108L17.2036 80.4844L18.2064 81.4857L42.815 56.9122L41.8122 55.9108Z" fill="#425AC2"/>
<path d="M36.1391 73.5064L35.1363 74.5078L59.7448 99.0814L60.7476 98.08L36.1391 73.5064Z" fill="#425AC2"/>
<path d="M59.7448 73.5063L35.1363 98.0798L36.1391 99.0812L60.7476 74.5076L59.7448 73.5063Z" fill="#425AC2"/>
<path d="M77.7796 30.5503H73.1789V36.288H77.7796V30.5503Z" fill="#E98896"/>
<path d="M77.1138 32.3588C75.183 33.9744 73.8447 32.5316 72.2268 30.6035C71.8417 30.1452 71.5507 29.6155 71.3705 29.0448C71.1903 28.4742 71.1245 27.8736 71.1767 27.2776C71.229 26.6815 71.3983 26.1015 71.675 25.5708C71.9517 25.04 72.3304 24.5689 72.7894 24.1843C73.2484 23.7997 73.7789 23.5092 74.3503 23.3292C74.9218 23.1493 75.5232 23.0836 76.1201 23.1358C76.717 23.1879 77.2978 23.357 77.8293 23.6333C78.3608 23.9096 78.8326 24.2877 79.2178 24.7461C80.8357 26.6875 79.0447 30.7565 77.1138 32.3588Z" fill="#FFB3B6"/>
<path d="M74.7103 23.9748C73.7115 23.9748 71.8007 20.9962 73.5451 19.3208C75.1896 17.765 77.8462 19.1944 77.9461 20.8965C78.1258 23.8086 76.8808 23.9748 74.7103 23.9748Z" fill="#0E24A5"/>
<path d="M69.8299 28.835C70.4957 28.835 72.613 28.3164 73.0924 26.8803C73.5717 25.4442 73.6982 25.2315 75.1697 25.2315C77.0805 25.2315 77.6265 25.2315 77.9061 26.2753C78.3323 27.851 80.5694 30.1847 82.0009 29.8988C83.4324 29.6129 82.8597 25.0054 80.5627 23.9549C78.2657 22.9044 71.9405 21.1758 70.8885 22.9975C69.8366 24.8193 69.4504 28.835 69.4504 28.835H69.8299Z" fill="#0E24A5"/>
<path d="M63.1512 52.4256L59.5967 55.9751L60.9149 57.2914L64.4694 53.742L63.1512 52.4256Z" fill="white"/>
<path d="M62.0999 59.1527C62.0999 59.1527 62.7657 56.0278 61.9667 55.8749C61.454 55.7685 61.3009 57.1581 60.5752 56.8988C60.2623 56.7924 61.0346 53.9668 60.4687 53.9136C59.9027 53.8604 58.7176 56.6462 58.8175 57.4174C59.0907 58.4074 59.4471 59.3727 59.8828 60.3029L62.0999 59.1527Z" fill="#FFB3B6"/>
<path d="M63.1519 52.4243L64.4702 53.7407L65.0028 52.3711L64.6499 51.9722L63.1519 52.4243Z" fill="#FEE2E3"/>
<path d="M64.6499 51.9789L65.0028 52.3712C65.0028 52.3712 65.5088 51.8925 65.3157 51.7063C65.1227 51.5202 64.6499 51.9789 64.6499 51.9789Z" fill="#0E24A5"/>
<path d="M74.8102 95.0085H80.3896C80.3896 95.0085 80.8823 102.275 76.448 103.692C72.9858 104.802 72.1802 102.874 72.1802 102.874L74.8102 95.0085Z" fill="#0E24A5"/>
<path d="M25.8999 99.0245C25.8999 99.0245 31.0666 98.6123 31.5593 97.8743C32.052 97.1363 30.6604 95.9927 28.7695 96.1523C28.186 96.2254 27.6233 96.4157 27.1152 96.7116C26.6072 97.0075 26.1644 97.403 25.8134 97.8743L25.8999 99.0245Z" fill="#FFB3B6"/>
<path d="M61.3941 17.1667H64.3303C64.3303 17.1667 65.3024 12.772 64.7698 12.5127C64.4502 12.3664 63.9908 13.9089 63.7844 14.2746C63.578 14.6402 61.98 14.115 61.5672 14.6868C61.1544 15.2586 61.3941 17.1667 61.3941 17.1667Z" fill="#FFB3B6"/>
<path d="M89.9306 17.1667H86.9944C86.9944 17.1667 86.0223 12.772 86.555 12.5127C86.8746 12.3664 87.334 13.9089 87.5404 14.2746C87.7468 14.6402 89.3447 14.115 89.7575 14.6868C90.1703 15.2586 89.9306 17.1667 89.9306 17.1667Z" fill="#FFB3B6"/>
<path d="M123.714 120.081H100.078V121.39H123.714V120.081Z" fill="#FEE2E3"/>
<path d="M76.9407 4.43474C76.9407 5.58495 75.5359 8.57017 75.5359 8.57017C75.5359 8.57017 73.8247 5.58495 73.8247 4.43474C73.8247 3.28453 75.5359 -0.0131836 75.5359 -0.0131836C75.5359 -0.0131836 76.9407 3.29118 76.9407 4.43474Z" fill="#FFC1C1"/>
<path d="M61.6471 7.29353C62.3129 8.23763 62.8722 11.4888 62.8722 11.4888C62.8722 11.4888 59.7562 10.0261 59.0904 9.082C58.4246 8.1379 57.9386 4.42798 57.9386 4.42798C57.9386 4.42798 60.9813 6.34942 61.6471 7.29353Z" fill="#FFC1C1"/>
<path d="M52.4856 18.0842C53.5642 18.503 55.8147 20.9032 55.8147 20.9032C55.8147 20.9032 52.4057 21.4018 51.3338 20.983C50.2618 20.5641 47.8183 17.765 47.8183 17.765C47.8183 17.765 51.407 17.6653 52.4856 18.0842Z" fill="#FFC1C1"/>
<path d="M88.9919 7.29353C88.3261 8.23763 87.7668 11.4888 87.7668 11.4888C87.7668 11.4888 90.8827 10.0261 91.5485 9.082C92.2143 8.1379 92.7004 4.42798 92.7004 4.42798C92.7004 4.42798 89.6577 6.34942 88.9919 7.29353Z" fill="#FFC1C1"/>
<path d="M98.1534 18.0842C97.0814 18.503 94.8243 20.9032 94.8243 20.9032C94.8243 20.9032 98.2333 21.4018 99.3119 20.983C100.39 20.5641 102.827 17.765 102.827 17.765C102.827 17.765 99.232 17.6653 98.1534 18.0842Z" fill="#FFC1C1"/>
</g>
<defs>
<clipPath id="clip0_662_1059">
<rect width="124" height="135" fill="white"/>
</clipPath>
</defs>
</svg>
