<svg width="131" height="123" viewBox="0 0 131 123" fill="none" xmlns="http://www.w3.org/2000/svg">
<g clip-path="url(#clip0_662_941)">
<path d="M105.642 87.5156H105.309V117.758H105.642V87.5156Z" fill="#231F20"/>
<path d="M112.613 36.8721H112.28V113.241H112.613V36.8721Z" fill="#231F20"/>
<path d="M109.124 61.5037H108.791V117.758H109.124V61.5037Z" fill="#231F20"/>
<path d="M119.585 50.8093H119.252V108.874H119.585V50.8093Z" fill="#231F20"/>
<path d="M116.103 35.7183H115.77V114.123H116.103V35.7183Z" fill="#231F20"/>
<path d="M120.264 119.634C124.631 115.283 124.631 108.23 120.264 103.88C115.898 99.53 108.819 99.53 104.453 103.88C100.087 108.23 100.087 115.283 104.453 119.634C108.819 123.984 115.898 123.984 120.264 119.634Z" fill="#CCCCCC"/>
<path d="M105.225 99.6504H119.487C120.244 99.6504 120.864 100.472 120.864 101.483V104.357C120.864 105.367 120.244 106.189 119.487 106.189H105.225C104.468 106.189 103.848 105.367 103.848 104.357V101.483C103.848 100.472 104.468 99.6504 105.225 99.6504Z" fill="#CCCCCC"/>
<path d="M121.826 103.648H100.949V103.98H121.826V103.648Z" fill="#425AC2"/>
<path d="M109.048 34.9188C108.714 36.3495 108.281 37.7555 107.754 39.1272L108.299 37.8526L108.162 38.1618C107.479 39.4185 107.288 40.8829 107.625 42.2721C107.811 42.9475 108.128 43.5798 108.559 44.1327C108.991 44.6857 109.527 45.1485 110.138 45.4945C110.749 45.8406 111.423 46.0632 112.12 46.1495C112.818 46.2359 113.526 46.1843 114.203 45.9978C114.877 45.829 115.508 45.5245 116.059 45.1029C116.61 44.6813 117.068 44.1516 117.405 43.5467C118.215 41.6766 118.873 39.7447 119.373 37.7696C119.56 37.0942 119.611 36.3886 119.525 35.6933C119.438 34.998 119.215 34.3266 118.867 33.7173C118.52 33.108 118.056 32.5728 117.501 32.1423C116.946 31.7118 116.312 31.3944 115.634 31.2082C114.264 30.8322 112.801 31.0134 111.566 31.7121C110.331 32.4108 109.426 33.5697 109.048 34.9339V34.9188Z" fill="#FFC1C1"/>
<path d="M92.1603 85.0571C93.2643 88.042 95.1579 90.674 97.6407 92.6743C99.8586 94.5749 103.568 93.5115 105.089 91.3093C106.868 88.7224 105.922 85.7811 103.711 83.8881C104.885 84.8911 103.658 83.7599 103.431 83.4959C103.204 83.2319 102.281 81.8367 103.06 83.0585C102.53 82.2158 102.106 81.3116 101.796 80.366C100.865 77.6057 97.0124 76.7535 94.6355 77.8999C91.7666 79.28 91.2292 82.2741 92.1603 85.0269V85.0571Z" fill="#FFC1C1"/>
<path d="M104.007 64.5733C103.921 66.4697 103.668 68.355 103.25 70.2071C102.793 72.5647 102.745 74.9828 103.106 77.3567C103.545 80.2302 106.717 82.0478 109.449 81.467C110.828 81.1558 112.03 80.3218 112.802 79.1419C113.574 77.962 113.853 76.5291 113.582 75.147C113.484 74.4757 113.469 74.3928 113.522 74.8378C113.522 74.4607 113.522 74.0836 113.522 73.6914C113.59 72.7389 113.719 71.7918 113.908 70.8557C114.318 69.0022 114.572 67.1177 114.665 65.2219C114.732 63.8145 114.245 62.4366 113.307 61.3815C112.37 60.3265 111.056 59.6776 109.646 59.5731C106.853 59.4071 104.007 61.6622 103.976 64.5733H104.007Z" fill="#FFC1C1"/>
<path d="M118.336 53.9091C118.692 54.6633 119.048 55.3496 119.388 56.0812C119.532 56.3979 119.676 56.7222 119.812 57.039C119.169 55.5759 119.812 57.039 119.933 57.3708C120.344 58.6932 121.217 59.8251 122.393 60.561C123.011 60.9186 123.694 61.15 124.402 61.242C125.11 61.3339 125.83 61.2845 126.519 61.0965C129.115 60.3876 131.325 57.2502 130.258 54.5351C129.456 52.4912 128.57 50.4851 127.579 48.5016C126.269 45.8997 122.651 45.1832 120.251 46.586C117.617 48.0943 117.019 51.2845 118.336 53.8865V53.9091Z" fill="#FFC1C1"/>
<path d="M121.008 68.729C120.63 69.3172 120.251 69.8904 119.797 70.441L120.637 69.3625C120.334 69.7446 120.024 70.1217 119.706 70.4937C118.73 71.5118 118.171 72.8569 118.139 74.2647C118.139 75.6795 118.703 77.0365 119.706 78.0377C120.71 79.0389 122.071 79.6023 123.491 79.6043C124.196 79.6128 124.895 79.4781 125.546 79.2084C126.196 78.9387 126.785 78.5396 127.276 78.0356C128.357 76.7981 129.351 75.4877 130.251 74.1138C130.967 72.8927 131.168 71.4379 130.808 70.0695C130.448 68.7011 129.557 67.5312 128.332 66.8171C127.106 66.103 125.646 65.9033 124.273 66.2618C122.899 66.6204 121.725 67.5078 121.008 68.729Z" fill="#FFC1C1"/>
<path d="M116.784 94.2732C118.039 94.2979 119.293 94.1867 120.524 93.9414L119.101 94.1299C119.672 94.0507 120.25 94.0205 120.826 94.0394C123.748 94.1903 126.186 91.5054 126.186 88.7073C126.164 87.2986 125.592 85.9536 124.592 84.9581C123.591 83.9625 122.24 83.3947 120.826 83.3752C119.576 83.3795 118.329 83.5007 117.102 83.7372L118.525 83.5412C117.949 83.6244 117.365 83.6471 116.784 83.609C113.87 83.3903 111.432 86.2034 111.432 88.9411C111.432 92.0182 113.877 94.062 116.784 94.2732Z" fill="#FFC1C1"/>
<path d="M97.1411 47.9511C97.1426 48.0692 97.1088 48.1851 97.044 48.2841C96.9792 48.3831 96.8863 48.4606 96.7772 48.5069C96.6681 48.5531 96.5476 48.566 96.4311 48.5439C96.3146 48.5217 96.2074 48.4656 96.123 48.3826C96.0386 48.2996 95.9809 48.1934 95.9572 48.0776C95.9335 47.9619 95.9449 47.8417 95.9899 47.7324C96.0349 47.6231 96.1116 47.5296 96.2101 47.4638C96.3085 47.3979 96.4245 47.3628 96.5431 47.3628C96.7004 47.3628 96.8513 47.4245 96.9633 47.5346C97.0752 47.6447 97.1391 47.7943 97.1411 47.9511Z" fill="white"/>
<path d="M112.962 41.1408C112.962 41.2586 112.927 41.3738 112.861 41.4718C112.795 41.5698 112.702 41.6461 112.592 41.6912C112.483 41.7363 112.363 41.7481 112.247 41.7251C112.131 41.7021 112.024 41.6454 111.941 41.5621C111.857 41.4788 111.8 41.3726 111.777 41.257C111.754 41.1414 111.766 41.0216 111.811 40.9128C111.856 40.8039 111.933 40.7109 112.031 40.6454C112.13 40.5799 112.245 40.545 112.364 40.545C112.442 40.544 112.521 40.5587 112.594 40.5883C112.667 40.6178 112.733 40.6617 112.789 40.7172C112.844 40.7728 112.888 40.8388 112.918 40.9116C112.948 40.9843 112.963 41.0623 112.962 41.1408Z" fill="white"/>
<path d="M120.637 51.8049C120.634 51.9227 120.596 52.037 120.528 52.1332C120.46 52.2295 120.364 52.3034 120.254 52.3457C120.144 52.388 120.023 52.3968 119.908 52.3709C119.793 52.345 119.687 52.2856 119.606 52.2002C119.525 52.1148 119.47 52.0072 119.45 51.8911C119.43 51.775 119.445 51.6556 119.493 51.5479C119.541 51.4402 119.62 51.3491 119.72 51.2861C119.82 51.2231 119.936 51.1911 120.054 51.194C120.133 51.196 120.21 51.2133 120.282 51.2451C120.354 51.2769 120.419 51.3224 120.473 51.3792C120.527 51.4359 120.569 51.5027 120.598 51.5757C120.626 51.6488 120.639 51.7267 120.637 51.8049Z" fill="white"/>
<path d="M112.863 67.7861C112.865 67.9045 112.831 68.0208 112.766 68.1199C112.7 68.219 112.607 68.2965 112.498 68.3426C112.388 68.3886 112.267 68.401 112.15 68.3783C112.034 68.3555 111.926 68.2986 111.842 68.2149C111.758 68.1311 111.701 68.0242 111.678 67.908C111.655 67.7917 111.668 67.6713 111.714 67.5621C111.76 67.4529 111.838 67.36 111.938 67.2951C112.037 67.2302 112.154 67.1963 112.273 67.1978C112.429 67.1978 112.58 67.2598 112.69 67.3701C112.801 67.4804 112.863 67.63 112.863 67.7861Z" fill="white"/>
<path d="M126.7 72.9599C126.702 73.0784 126.668 73.1946 126.603 73.2937C126.538 73.3928 126.444 73.4704 126.335 73.5164C126.225 73.5624 126.104 73.5748 125.988 73.5521C125.871 73.5294 125.764 73.4725 125.68 73.3887C125.596 73.3049 125.538 73.1981 125.516 73.0818C125.493 72.9655 125.505 72.8451 125.551 72.7359C125.598 72.6268 125.675 72.5338 125.775 72.4689C125.874 72.404 125.991 72.3701 126.11 72.3716C126.267 72.3716 126.417 72.4336 126.528 72.5439C126.638 72.6542 126.7 72.8039 126.7 72.9599Z" fill="white"/>
<path d="M123.029 89.0014C123.031 89.1199 122.997 89.2361 122.932 89.3352C122.866 89.4343 122.773 89.5119 122.664 89.5579C122.554 89.6039 122.433 89.6164 122.316 89.5936C122.2 89.5709 122.092 89.514 122.008 89.4302C121.924 89.3464 121.867 89.2396 121.844 89.1233C121.822 89.007 121.834 88.8866 121.88 88.7774C121.926 88.6683 122.004 88.5753 122.104 88.5104C122.203 88.4455 122.32 88.4116 122.439 88.4131C122.595 88.4131 122.746 88.4751 122.856 88.5854C122.967 88.6958 123.029 88.8454 123.029 89.0014Z" fill="white"/>
<path d="M98.7155 85.8866C98.736 86.001 98.722 86.1189 98.6754 86.2253C98.6287 86.3318 98.5515 86.4221 98.4533 86.4849C98.3552 86.5477 98.2406 86.5801 98.124 86.5781C98.0074 86.5761 97.8941 86.5397 97.7982 86.4736C97.7023 86.4074 97.6282 86.3145 97.5853 86.2065C97.5424 86.0985 97.5325 85.9802 97.5569 85.8666C97.5814 85.753 97.6391 85.6492 97.7227 85.5682C97.8063 85.4872 97.9121 85.4326 98.0267 85.4115C98.1811 85.385 98.3398 85.4199 98.4686 85.5088C98.5974 85.5976 98.6861 85.7333 98.7155 85.8866Z" fill="white"/>
<path d="M22.2169 53.6904H20.491V91.2111H22.2169V53.6904Z" fill="#CCCCCC"/>
<path d="M14.4429 57.1069H12.717V90.2156H14.4429V57.1069Z" fill="#CCCCCC"/>
<path d="M30.4223 59.4976H28.6965V92.6063H30.4223V59.4976Z" fill="#CCCCCC"/>
<path d="M35.0928 89.0088H8.59912C9.78133 91.1615 11.4729 92.9944 13.527 94.3484V123.007H30.1801V94.3484C32.2287 92.9925 33.9149 91.1598 35.0928 89.0088Z" fill="#C4C4C4"/>
<path d="M43.0031 94.439H10.8322V94.7708H43.0031V94.439Z" fill="#FFC1C1"/>
<path d="M32.1406 39.67C29.1128 33.2142 19.5221 32.3017 15.2906 40.4242C11.6951 47.3099 3.17927 44.889 0.75699 51.3297C-3.56527 62.9442 11.7027 67.4014 18.1671 61.3679C22.6257 57.2048 28.3104 59.6786 33.3064 63.6305C41.368 70.0863 53.8882 56.3149 45.9704 49.8591C39.8163 44.8438 35.8649 47.6267 32.1406 39.67Z" fill="#FFC1C1"/>
<path d="M10.2038 81.1276C8.79589 82.3041 10.5672 85.449 14.1022 84.8004C17.6372 84.1518 19.4539 82.4926 17.501 80.6977C15.548 78.9027 12.8759 78.8952 10.2038 81.1276Z" fill="#FFC1C1"/>
<path d="M20.1352 73.337C22.5499 68.9325 26.2439 72.6281 28.5451 73.7518C33.1625 76.0143 33.9195 73.0504 36.3494 74.2571C38.7792 75.4638 37.78 78.654 32.5645 79.5364C27.9698 80.3735 17.6448 77.8395 20.1352 73.337Z" fill="#FFC1C1"/>
<path d="M109.85 4.3291H28.6662C24.6695 4.3291 21.4296 7.55713 21.4296 11.5391V68.4725C21.4296 72.4545 24.6695 75.6825 28.6662 75.6825H109.85C113.847 75.6825 117.087 72.4545 117.087 68.4725V11.5391C117.087 7.55713 113.847 4.3291 109.85 4.3291Z" fill="#A4B8EA"/>
<path d="M89.4882 15.5513H28.863V17.5197H89.4882V15.5513Z" fill="white"/>
<path d="M89.4882 31.2007H28.863V33.1691H89.4882V31.2007Z" fill="white"/>
<path d="M89.4882 46.8499H28.863V48.8183H89.4882V46.8499Z" fill="white"/>
<path d="M89.4882 62.4993H28.863V64.4677H89.4882V62.4993Z" fill="white"/>
<path d="M102.357 11.7275H96.1419C95.2472 11.7275 94.522 12.4501 94.522 13.3415V19.5334C94.522 20.4247 95.2472 21.1473 96.1419 21.1473H102.357C103.251 21.1473 103.976 20.4247 103.976 19.5334V13.3415C103.976 12.4501 103.251 11.7275 102.357 11.7275Z" fill="white"/>
<path d="M102.357 27.2712H96.1419C95.2472 27.2712 94.522 27.9938 94.522 28.8852V35.0771C94.522 35.9684 95.2472 36.691 96.1419 36.691H102.357C103.251 36.691 103.976 35.9684 103.976 35.0771V28.8852C103.976 27.9938 103.251 27.2712 102.357 27.2712Z" fill="white"/>
<path d="M102.357 42.8076H96.1419C95.2472 42.8076 94.522 43.5302 94.522 44.4216V50.6134C94.522 51.5048 95.2472 52.2274 96.1419 52.2274H102.357C103.251 52.2274 103.976 51.5048 103.976 50.6134V44.4216C103.976 43.5302 103.251 42.8076 102.357 42.8076Z" fill="white"/>
<path d="M102.357 58.3513H96.1419C95.2472 58.3513 94.522 59.0739 94.522 59.9653V66.1571C94.522 67.0485 95.2472 67.7711 96.1419 67.7711H102.357C103.251 67.7711 103.976 67.0485 103.976 66.1571V59.9653C103.976 59.0739 103.251 58.3513 102.357 58.3513Z" fill="white"/>
<path d="M98.519 45.3376L94.1407 49.7L95.7625 51.3158L100.141 46.9535L98.519 45.3376Z" fill="#FE958E"/>
<path d="M95.1427 53.5923C96.157 53.3057 97.8904 51.6691 97.6179 50.8772C97.3454 50.0853 96.7096 47.8605 95.2184 48.6146L92.5538 50.4398L93.8558 53.9316L95.1427 53.5923Z" fill="#FFB3B6"/>
<path d="M49.2783 74.0308H70.6701L73.0015 98.7605L70.0948 119.561H61.5487L65.0383 100.91C65.0383 100.91 62.1618 88.4583 61.753 84.0011H58.922L57.4081 101.242L50.1109 119.425H41.3302L48.9604 99.7485C48.9604 99.7485 49.2631 79.9134 49.3161 76.9721C49.2509 75.993 49.2383 75.0112 49.2783 74.0308Z" fill="#FFC1C1"/>
<path d="M49.2783 74.0307H70.6701L73.3421 45.7261C73.5768 43.4183 71.3362 41.4348 68.49 41.4348H51.4583C48.6046 41.4348 46.3715 43.4183 46.6062 45.7261L49.2783 74.0307Z" fill="#425AC2"/>
<path d="M60.0802 44.4064C56.2953 44.4064 56.2953 41.8346 56.2953 41.2237V37.0757C56.2953 36.1254 57.7109 36.2084 58.5662 36.2084H61.2837C62.1239 36.2084 63.5546 36.9626 63.5546 37.9204V41.2539C63.5466 41.6921 63.4488 42.1242 63.2674 42.5235C63.0859 42.9228 62.8245 43.281 62.4992 43.5761C62.1739 43.8712 61.7916 44.0971 61.3756 44.2399C60.9597 44.3826 60.5189 44.4393 60.0802 44.4064Z" fill="#E98896"/>
<path d="M65.8936 36.2008C64.8036 39.8737 61.7228 39.3156 58.0363 38.2296C56.3107 37.6709 54.872 36.4633 54.0265 34.8637C53.1811 33.2642 52.9956 31.399 53.5095 29.6653C54.0235 27.9315 55.1963 26.4661 56.7784 25.5809C58.3604 24.6957 60.2268 24.4606 61.9801 24.9257C65.6666 26.0118 66.9837 32.5279 65.8936 36.2008Z" fill="#FFB3B6"/>
<path d="M73.4405 44.8138L79.1405 56.1265L92.4176 50.176C92.4176 49.8065 95.559 52.959 95.0745 53.8112C94.3176 55.1913 85.1129 60.5989 80.2456 64.4301C77.5205 66.572 70.8441 57.7556 70.4657 57.1221C69.8525 56.1115 69.0274 49.8442 68.9517 46.3523C68.9327 45.962 69.0665 45.5795 69.3249 45.2855C69.5833 44.9914 69.9461 44.8088 70.337 44.7761L71.6011 42.5135C72.2672 42.4155 73.1983 44.1576 73.4405 44.8138Z" fill="#425AC2"/>
<path d="M48.3699 42.3625C48.3699 42.3625 38.4764 52.8759 34.9944 56.1868C33.0641 58.0119 34.9944 59.3845 36.092 60.7119C39.1199 64.4828 49.0134 71.2704 49.0134 71.2704L48.4683 65.516L42.511 58.5775C42.511 58.5775 50.8906 52.1292 51.1707 51.6616C51.9277 50.3946 51.2918 44.8212 51.2918 44.8212L48.3699 42.3625Z" fill="#425AC2"/>
<path d="M67.998 119.508H63.8423V122.676H72.2673C72.8274 122.676 73.0242 121.431 72.5246 121.167L67.998 119.508Z" fill="#FE958E"/>
<path d="M48.2488 119.508H44.1006V122.676H52.5181C53.0783 122.676 53.2751 121.431 52.783 121.167L48.2488 119.508Z" fill="#FE958E"/>
<path d="M71.9342 49.5801H71.6011V65.0333H71.9342V49.5801Z" fill="#FC6262"/>
<path d="M47.6618 50.2934L47.3294 50.3145L48.3026 65.5559L48.635 65.5348L47.6618 50.2934Z" fill="#FC6262"/>
<path d="M98.5112 45.3415L100.131 46.9555L100.79 45.2661L100.351 44.7834L98.5112 45.3415Z" fill="#FEE2E3"/>
<path d="M100.373 44.7835L100.812 45.2737C100.812 45.2737 101.433 44.6855 101.191 44.4517C100.949 44.2179 100.373 44.7835 100.373 44.7835Z" fill="#0E24A5"/>
<path d="M60.1104 33.5085C61.2762 33.0108 59.3535 31.1857 60.8674 30.1449C63.0248 28.6365 64.8566 27.8823 65.2956 25.1296C65.7877 22.1128 62.4192 20.1746 61.8666 20.1746C61.314 20.1746 63.0248 21.057 61.1096 22.3768C59.5276 23.4854 52.5938 25.2955 52.2078 29.8734C51.8217 34.4513 53.1994 35.9069 54.9707 36.8194C56.742 37.732 54.4181 34.9415 55.8563 33.1767C57.2945 31.4119 59.3383 33.8479 60.1104 33.5085Z" fill="#FE958E"/>
<path d="M96.3039 14.7358L95.5277 15.509L99.1835 19.1514L99.9596 18.3781L96.3039 14.7358Z" fill="#FE958E"/>
<path d="M102.12 14.7695L98.4643 18.4119L99.2404 19.1851L102.896 15.5428L102.12 14.7695Z" fill="#FE958E"/>
<path d="M96.3082 30.2008L95.532 30.9741L99.1878 34.6165L99.964 33.8432L96.3082 30.2008Z" fill="#FE958E"/>
<path d="M102.119 30.2217L98.4633 33.864L99.2394 34.6373L102.895 30.9949L102.119 30.2217Z" fill="#FE958E"/>
<path d="M35.7211 8.81642C35.7112 9.2199 35.5434 9.60353 35.2534 9.88537C34.9635 10.1672 34.5744 10.3249 34.1693 10.3248C33.7678 10.3248 33.3827 10.1659 33.0988 9.883C32.8149 9.60012 32.6554 9.21647 32.6554 8.81642V1.54608C32.6503 1.34485 32.6858 1.14464 32.7596 0.957266C32.8334 0.769887 32.9441 0.599122 33.0852 0.455039C33.2263 0.310955 33.3949 0.196466 33.5811 0.118316C33.7673 0.0401663 33.9673 -6.28412e-05 34.1693 7.36809e-08C34.5809 7.36809e-08 34.9756 0.162892 35.2666 0.452838C35.5576 0.742784 35.7211 1.13603 35.7211 1.54608V8.81642Z" fill="#425AC2"/>
<path d="M107.852 8.81642C107.842 9.21346 107.68 9.59158 107.398 9.8724C107.116 10.1532 106.737 10.3152 106.338 10.3248C105.933 10.3249 105.544 10.1672 105.254 9.88537C104.964 9.60353 104.796 9.2199 104.786 8.81642V1.54608C104.786 1.13603 104.95 0.742784 105.241 0.452838C105.532 0.162892 105.927 0 106.338 0C106.743 0.00984376 107.128 0.177071 107.411 0.465957C107.694 0.754843 107.852 1.14248 107.852 1.54608V8.81642Z" fill="#425AC2"/>
</g>
<defs>
<clipPath id="clip0_662_941">
<rect width="131" height="123" fill="white"/>
</clipPath>
</defs>
</svg>
