<svg width="102" height="143" viewBox="0 0 102 143" fill="none" xmlns="http://www.w3.org/2000/svg">
<g clip-path="url(#clip0_662_1020)">
<path d="M52.9601 10.3032C52.9601 11.7772 51.1916 15.5359 51.1916 15.5359C51.1916 15.5359 49.0399 11.7625 49.0399 10.3032C49.0399 8.84393 51.1916 4.68726 51.1916 4.68726C51.1916 4.68726 52.9601 8.84393 52.9601 10.3032Z" fill="#FFC1C1"/>
<path d="M37.0507 12.4331C37.5444 13.7965 37.1686 17.9532 37.1686 17.9532C37.1686 17.9532 33.8674 15.1452 33.3736 13.7744C32.8799 12.4036 33.4768 7.7605 33.4768 7.7605C33.4768 7.7605 36.557 11.0623 37.0507 12.4331Z" fill="#FFC1C1"/>
<path d="M68.6264 13.7746C68.1326 15.1454 65.1925 18.086 65.1925 18.086C65.1925 18.086 64.4556 13.7967 64.9493 12.4332C65.443 11.0698 68.8769 7.93018 68.8769 7.93018C68.8769 7.93018 69.1274 12.4038 68.6264 13.7746Z" fill="#FFC1C1"/>
<path d="M36.3286 10.1411L36.6086 12.4258C36.6086 12.4258 33.0052 11.6888 32.7252 11.0918C32.6341 10.9471 32.6024 10.7728 32.6367 10.6053C32.671 10.4377 32.7687 10.2899 32.9094 10.1927L36.3286 10.1411Z" fill="#FFB3B6"/>
<path d="M59.9605 142.993H43.6311C43.0718 142.992 42.5181 142.881 42.0018 142.666C41.4854 142.451 41.0164 142.136 40.6216 141.74C40.2268 141.344 39.9138 140.873 39.7007 140.356C39.4875 139.839 39.3783 139.285 39.3793 138.726V122.29C39.3783 121.731 39.4875 121.177 39.7007 120.66C39.9138 120.142 40.2268 119.672 40.6216 119.276C41.0164 118.88 41.4854 118.565 42.0018 118.35C42.5181 118.135 43.0718 118.024 43.6311 118.023H59.9753C60.5346 118.024 61.0883 118.135 61.6047 118.35C62.1211 118.565 62.59 118.88 62.9849 119.276C63.3797 119.672 63.6926 120.142 63.9058 120.66C64.1189 121.177 64.2281 121.731 64.2271 122.29V138.726C64.2281 139.286 64.1184 139.842 63.9044 140.36C63.6903 140.878 63.376 141.349 62.9796 141.745C62.5833 142.142 62.1126 142.456 61.5945 142.67C61.0764 142.884 60.5211 142.994 59.9605 142.993Z" fill="#425AC2"/>
<path d="M53.6528 135.682L51.619 137.723L42.01 128.061L44.0438 126.02L53.6528 135.682Z" fill="white"/>
<path d="M49.6736 135.682L51.7074 137.723L61.3238 128.061L59.29 126.02L49.6736 135.682Z" fill="white"/>
<path d="M31.3177 142.993H14.9662C14.4069 142.992 13.8532 142.881 13.3368 142.666C12.8204 142.451 12.3514 142.136 11.9566 141.74C11.5618 141.344 11.2489 140.873 11.0357 140.356C10.8226 139.839 10.7134 139.285 10.7143 138.726V122.29C10.7134 121.731 10.8226 121.177 11.0357 120.66C11.2489 120.142 11.5618 119.672 11.9566 119.276C12.3514 118.88 12.8204 118.565 13.3368 118.35C13.8532 118.135 14.4069 118.024 14.9662 118.023H31.3177C31.8767 118.024 32.43 118.135 32.946 118.35C33.462 118.565 33.9305 118.88 34.3247 119.277C34.7189 119.673 35.0312 120.143 35.2435 120.66C35.4558 121.177 35.5641 121.731 35.5622 122.29V138.726C35.5641 139.285 35.4558 139.839 35.2435 140.356C35.0312 140.873 34.7189 141.343 34.3247 141.739C33.9305 142.136 33.462 142.45 32.946 142.666C32.43 142.881 31.8767 142.992 31.3177 142.993Z" fill="#425AC2"/>
<path d="M25.0026 135.682L22.9688 137.723L13.3598 128.061L15.3936 126.02L25.0026 135.682Z" fill="white"/>
<path d="M21.0308 135.682L23.0572 137.723L32.6736 128.061L30.6398 126.02L21.0308 135.682Z" fill="white"/>
<path d="M88.5813 142.993H72.2666C71.7072 142.992 71.1536 142.881 70.6372 142.666C70.1208 142.451 69.6519 142.136 69.257 141.74C68.8622 141.344 68.5493 140.873 68.3361 140.356C68.123 139.839 68.0138 139.285 68.0148 138.726V122.29C68.0138 121.731 68.123 121.177 68.3361 120.66C68.5493 120.142 68.8622 119.672 69.257 119.276C69.6519 118.88 70.1208 118.565 70.6372 118.35C71.1536 118.135 71.7072 118.024 72.2666 118.023H88.5813C89.1406 118.024 89.6942 118.135 90.2106 118.35C90.727 118.565 91.196 118.88 91.5909 119.276C91.9857 119.672 92.2986 120.142 92.5117 120.66C92.7249 121.177 92.8341 121.731 92.8331 122.29V138.726C92.8341 139.285 92.7249 139.839 92.5117 140.356C92.2986 140.873 91.9857 141.344 91.5909 141.74C91.196 142.136 90.727 142.451 90.2106 142.666C89.6942 142.881 89.1406 142.992 88.5813 142.993Z" fill="#BBBBBB"/>
<path d="M55.8192 96.429L51.8179 96.9597V96.7902L47.7577 96.2595L51.8179 128.223L55.8192 96.429Z" fill="#03053F"/>
<path d="M68.4716 53.8157H35.1127V100.151H68.4716V53.8157Z" fill="#FFC1C1"/>
<path d="M71.9571 58.7832H31.6272C29.4166 58.7832 27.6406 57.265 27.6406 55.393V52.5924C27.6406 50.7204 29.4239 49.1948 31.6272 49.1948H71.9571C74.1678 49.1948 75.9436 50.7204 75.9436 52.5924V55.393C75.9436 57.3092 74.153 58.7832 71.9571 58.7832Z" fill="#FE958E"/>
<path d="M71.9571 105.575H31.6272C29.4166 105.575 27.6406 104.05 27.6406 102.178V99.3771C27.6406 97.5051 29.4239 95.9795 31.6272 95.9795H71.9571C74.1678 95.9795 75.9436 97.5051 75.9436 99.3771V102.178C75.9436 104.05 74.153 105.575 71.9571 105.575Z" fill="#FE958E"/>
<path d="M53.6528 7.67944C51.1474 7.67944 45.1933 11.755 45.1933 11.755L36.3138 10.0894L35.717 12.212L45.8418 15.0863C45.8418 15.0863 52.098 13.089 53.5275 11.3202C54.9571 9.55142 55.1044 7.67944 53.6528 7.67944Z" fill="#03053F"/>
<path d="M78.0512 12.3521L77.7638 14.6367C77.7638 14.6367 81.3671 13.8998 81.6545 13.3028C81.7435 13.1556 81.7733 12.98 81.7377 12.8117C81.7021 12.6434 81.6039 12.4949 81.463 12.3963L78.0512 12.3521Z" fill="#FFB3B6"/>
<path d="M60.3069 9.66211C62.3923 9.66211 68.6485 13.9662 68.6485 13.9662L78.0659 12.2932L78.6554 14.4231L68.5158 17.2974C68.5158 17.2974 62.2523 15.3002 60.8227 13.5314C59.3932 11.7626 58.8552 9.66211 60.3069 9.66211Z" fill="#03053F"/>
<path d="M57.9931 24.5199H47.7872L50.8747 10.2884C51.1105 9.16081 52.9822 7.39938 54.0802 7.7384L61.4491 9.90518C61.7106 9.98381 61.953 10.116 62.1607 10.2935C62.3684 10.4709 62.5368 10.6896 62.6554 10.9357C62.7739 11.1819 62.8399 11.45 62.8491 11.723C62.8584 11.996 62.8107 12.2679 62.7092 12.5215L57.9931 24.5199Z" fill="#03053F"/>
<path d="M58.4573 9.80949L57.1751 9.40414C56.9741 9.32952 56.8108 9.17826 56.721 8.9835C56.6313 8.78873 56.6223 8.56632 56.6961 8.36497L57.1751 6.77305C57.2241 6.56596 57.3533 6.38678 57.5343 6.27485C57.7153 6.16293 57.9333 6.12741 58.1404 6.17608L59.43 6.56669C59.6298 6.6429 59.7918 6.79435 59.8814 6.98859C59.9709 7.18282 59.9808 7.40441 59.909 7.60586L59.43 9.19778C59.4065 9.30195 59.3627 9.40045 59.301 9.48763C59.2394 9.57481 59.1611 9.64894 59.0707 9.70578C58.9803 9.76262 58.8796 9.80104 58.7744 9.81884C58.6691 9.83664 58.5613 9.83346 58.4573 9.80949Z" fill="#E98896"/>
<path d="M55.7013 5.44654C55.7013 7.36274 57.2341 7.53225 59.1352 7.54699C60.0538 7.55188 60.9366 7.19162 61.5896 6.54547C62.2426 5.89932 62.6122 5.0202 62.617 4.10152C62.6219 3.18284 62.2617 2.29984 61.6157 1.64678C60.9696 0.993715 60.0906 0.624083 59.1721 0.619197C57.2709 0.604457 55.7087 3.50823 55.7013 5.44654Z" fill="#FFB3B6"/>
<path d="M60.4617 2.77118C60.4617 2.77118 60.1079 3.94301 60.2701 3.9946C60.5026 3.98539 60.7326 4.04567 60.9308 4.16774C61.129 4.28981 61.2863 4.46815 61.3828 4.68001C61.6554 5.38016 60.9996 5.80025 60.4395 5.7634C59.8795 5.72655 59.8353 7.2374 61.1764 7.34058C62.5176 7.44376 63.8145 4.66527 63.5123 3.33867C63.2102 2.01207 61.5375 0.140089 60.7859 5.92396e-05C60.0343 -0.139971 52.378 0.302229 52.378 0.302229L60.4617 2.77118Z" fill="#FE958E"/>
<path d="M57.9931 24.52H47.7872V47.7281H49.8136C49.8136 47.7281 51.339 36.2899 51.9211 29.9664H53.3212L56.7551 38.2577L66.9021 42.0016L68 40.1444L59.7984 36.1057C59.7984 36.1057 58.1183 27.9987 58.0889 26.451C58.0907 25.8061 58.0588 25.1615 57.9931 24.52Z" fill="#FE958E"/>
<path d="M47.7577 47.6619H49.8136V49.2464H45.6428C45.3701 49.2464 45.2744 48.6273 45.5175 48.5094L47.7577 47.6619Z" fill="#0E24A5"/>
<path d="M66.5999 41.7143L67.742 39.9971L69.0537 40.8741L66.7399 44.3675C66.5925 44.5959 66.003 44.3675 66.0472 44.0579L66.5999 41.7143Z" fill="#0E24A5"/>
<path d="M22.8214 19.8917C23.7573 21.0119 24.8184 25.0507 24.8184 25.0507C24.8184 25.0507 20.7581 23.5767 19.8223 22.4343C18.8864 21.292 17.8769 16.7742 17.8769 16.7742C17.8769 16.7742 21.8929 18.7788 22.8214 19.8917Z" fill="#FFC1C1"/>
<path d="M11.9965 31.8014C13.2566 32.5237 15.6294 35.936 15.6294 35.936C15.6294 35.936 11.3039 35.936 10.0511 35.199C8.79844 34.462 6.28566 30.519 6.28566 30.519C6.28566 30.519 10.7438 31.0718 11.9965 31.8014Z" fill="#FFC1C1"/>
<path d="M5.873 46.7035C7.30257 46.9615 10.6922 49.3641 10.6922 49.3641C10.6922 49.3641 6.62462 50.8381 5.19506 50.5801C3.76549 50.3222 0.0368423 47.4774 0.0368423 47.4774C0.0368423 47.4774 4.44344 46.453 5.873 46.7035Z" fill="#FFC1C1"/>
<path d="M5.19506 62.8145C6.62462 62.5639 10.6259 63.6547 10.6259 63.6547C10.6259 63.6547 7.30257 66.4405 5.873 66.6911C4.44344 66.9417 -0.0220985 65.5414 -0.0220985 65.5414C-0.0220985 65.5414 3.76549 63.0724 5.19506 62.8145Z" fill="#FFC1C1"/>
<path d="M10.0438 78.1957C11.2965 77.4587 15.4304 77.1123 15.4304 77.1123C15.4304 77.1123 13.2198 80.871 11.9965 81.6006C10.7733 82.3303 6.10144 82.5366 6.10144 82.5366C6.10144 82.5366 8.78371 78.918 10.0438 78.1957Z" fill="#FFC1C1"/>
<path d="M19.8223 90.9753C20.7581 89.8551 24.5236 88.1084 24.5236 88.1084C24.5236 88.1084 23.7867 92.3904 22.8214 93.5032C21.8561 94.6161 17.5895 96.4144 17.5895 96.4144C17.5895 96.4144 18.8938 92.0882 19.8223 90.9753Z" fill="#FFC1C1"/>
<path d="M79.1786 93.5032C78.2427 92.3904 77.1816 88.3442 77.1816 88.3442C77.1816 88.3442 81.2419 89.8182 82.1777 90.9606C83.1136 92.1029 84.1599 96.6649 84.1599 96.6649C84.1599 96.6649 80.1071 94.6235 79.1786 93.5032Z" fill="#FFC1C1"/>
<path d="M90.0035 81.6301C88.7434 80.8931 86.378 77.4734 86.378 77.4734C86.378 77.4734 90.7035 77.4734 91.9562 78.2104C93.2089 78.9474 95.7217 82.883 95.7217 82.883C95.7217 82.883 91.2562 82.3671 90.0035 81.6301Z" fill="#FFC1C1"/>
<path d="M96.127 66.6912C94.6974 66.4406 91.3078 64.038 91.3078 64.038C91.3078 64.038 95.3754 62.564 96.8049 62.8146C98.2345 63.0651 101.963 65.9173 101.963 65.9173C101.963 65.9173 97.5492 66.9491 96.127 66.6912Z" fill="#FFC1C1"/>
<path d="M96.8049 50.5802C95.3754 50.8307 91.3741 49.74 91.3741 49.74C91.3741 49.74 94.6974 46.9615 96.127 46.7035C97.5566 46.4456 102.022 47.8606 102.022 47.8606C102.022 47.8606 98.2345 50.3296 96.8049 50.5802Z" fill="#FFC1C1"/>
<path d="M91.9562 35.1991C90.7035 35.9361 86.5696 36.2751 86.5696 36.2751C86.5696 36.2751 88.7802 32.5164 90.0035 31.7942C91.2267 31.0719 95.8986 30.8508 95.8986 30.8508C95.8986 30.8508 93.2163 34.4621 91.9562 35.1991Z" fill="#FFC1C1"/>
<path d="M82.1777 22.4269C81.2419 23.5398 77.4764 25.2865 77.4764 25.2865C77.4764 25.2865 78.2133 21.0119 79.1786 19.8916C80.1439 18.7714 84.4105 16.9805 84.4105 16.9805C84.4105 16.9805 83.1062 21.3067 82.1777 22.4269Z" fill="#FFC1C1"/>
</g>
<defs>
<clipPath id="clip0_662_1020">
<rect width="102" height="143" fill="white"/>
</clipPath>
</defs>
</svg>
