<svg width="300" height="425" viewBox="0 0 300 425" fill="none" xmlns="http://www.w3.org/2000/svg">
<path d="M64.2454 370.928C66.7494 370.43 73.5618 365.116 79.1111 350.575C82.2693 342.207 91.2023 299.058 79.1111 296.028C67.02 292.997 69.2758 314.73 69.2758 334.676C69.2758 346.662 64.2454 370.928 64.2454 370.928Z" fill="#CCCCCC"/>
<path d="M58.6961 372.941C65.0574 372.511 63.7266 308.036 64.2454 292.884C64.7642 277.732 67.7645 221.173 59.1924 212.082C50.6203 202.99 41.8227 211.064 41.1459 222.801C40.785 228.364 42.6573 268.89 43.6724 280.514C44.6875 292.138 45.9283 318.394 46.9434 335.061C47.9585 351.728 51.1391 373.461 58.6961 372.941Z" fill="#CCCCCC"/>
<path d="M46.1539 384.881C46.1539 384.881 32.0551 356.952 28.536 335.377C22.2197 296.729 20.979 259.098 29.5286 259.595C38.0781 260.093 38.7097 298.04 39.1157 314.165C40.1083 356.07 49.9436 382.348 49.9436 382.348L46.1539 384.881Z" fill="#CCCCCC"/>
<path d="M57.3653 368.644H56.5081C56.5081 360.05 54.9966 334.835 54.9966 334.586H55.8538C55.8764 334.789 57.3653 360.028 57.3653 368.644Z" fill="#231F20"/>
<path d="M66.772 370.702L65.9825 370.385C69.2218 362.367 71.9936 354.167 74.2838 345.826C76.0868 338.43 76.8461 330.818 76.5396 323.211H77.3969C77.7222 330.901 76.9628 338.598 75.1411 346.075C72.8443 354.444 70.0495 362.668 66.772 370.702Z" fill="#231F20"/>
<path d="M53.1469 335.061C53.1469 335.436 53.258 335.804 53.4662 336.116C53.6744 336.429 53.9703 336.672 54.3165 336.816C54.6628 336.96 55.0438 336.997 55.4114 336.924C55.779 336.851 56.1166 336.67 56.3816 336.404C56.6466 336.138 56.827 335.8 56.9002 335.431C56.9733 335.063 56.9358 334.681 56.7924 334.334C56.6489 333.987 56.406 333.69 56.0944 333.481C55.7828 333.273 55.4165 333.161 55.0417 333.161C54.541 333.167 54.0625 333.369 53.7084 333.724C53.3543 334.079 53.1528 334.559 53.1469 335.061Z" fill="white"/>
<path d="M75.0733 323.437C75.0688 323.813 75.1761 324.183 75.3816 324.498C75.587 324.814 75.8814 325.061 76.2272 325.208C76.573 325.355 76.9548 325.396 77.3239 325.325C77.6929 325.254 78.0326 325.075 78.2999 324.811C78.5672 324.546 78.7499 324.207 78.8249 323.838C78.8999 323.469 78.8637 323.086 78.7209 322.738C78.5782 322.389 78.3352 322.091 78.0232 321.882C77.7111 321.672 77.344 321.56 76.9682 321.56C76.7205 321.557 76.4745 321.603 76.2447 321.696C76.0149 321.789 75.8059 321.927 75.6297 322.101C75.4534 322.276 75.3135 322.484 75.218 322.713C75.1225 322.942 75.0733 323.188 75.0733 323.437Z" fill="white"/>
<path d="M32.4836 308.443C33.5301 308.443 34.3785 307.593 34.3785 306.544C34.3785 305.495 33.5301 304.644 32.4836 304.644C31.4371 304.644 30.5887 305.495 30.5887 306.544C30.5887 307.593 31.4371 308.443 32.4836 308.443Z" fill="white"/>
<path d="M233.815 293.857C233.634 316.019 225.355 373.303 225.355 373.303C225.355 373.303 216.332 315.861 216.603 293.721C216.873 271.581 226.799 208.463 226.799 208.463C226.799 208.463 234.018 271.694 233.815 293.857Z" fill="#CCCCCC"/>
<path d="M225.761 272.916H224.859V356.794H225.761V272.916Z" fill="#231F20"/>
<path d="M227.318 273.684C227.318 274.078 227.201 274.463 226.983 274.79C226.765 275.117 226.455 275.372 226.092 275.523C225.73 275.674 225.331 275.713 224.946 275.636C224.56 275.56 224.207 275.37 223.929 275.092C223.651 274.813 223.462 274.459 223.386 274.073C223.309 273.687 223.348 273.286 223.499 272.923C223.649 272.559 223.903 272.248 224.23 272.03C224.556 271.811 224.94 271.694 225.333 271.694C225.859 271.694 226.364 271.904 226.736 272.277C227.109 272.65 227.318 273.157 227.318 273.684Z" fill="white"/>
<path d="M257.049 293.857C256.846 316.019 248.59 373.303 248.59 373.303C248.59 373.303 239.567 315.861 239.838 293.721C240.108 271.581 250.011 208.463 250.011 208.463C250.011 208.463 257.23 271.694 257.049 293.857Z" fill="#CCCCCC"/>
<path d="M248.996 272.916H248.094V356.794H248.996V272.916Z" fill="#231F20"/>
<path d="M250.553 273.684C250.557 274.083 250.443 274.475 250.225 274.809C250.008 275.143 249.695 275.404 249.329 275.56C248.963 275.716 248.558 275.759 248.167 275.684C247.776 275.609 247.417 275.419 247.134 275.138C246.851 274.858 246.657 274.499 246.578 274.108C246.498 273.717 246.537 273.311 246.688 272.942C246.839 272.573 247.097 272.257 247.427 272.035C247.758 271.813 248.147 271.694 248.545 271.694C249.074 271.694 249.581 271.903 249.957 272.276C250.333 272.648 250.547 273.155 250.553 273.684Z" fill="white"/>
<path d="M280.262 293.857C280.081 316.019 271.802 373.303 271.802 373.303C271.802 373.303 262.779 315.861 263.072 293.721C263.366 271.581 273.246 208.463 273.246 208.463C273.246 208.463 280.465 271.694 280.262 293.857Z" fill="#CCCCCC"/>
<path d="M272.208 272.916H271.306V356.794H272.208V272.916Z" fill="#231F20"/>
<path d="M273.765 273.684C273.765 274.078 273.649 274.463 273.43 274.79C273.212 275.117 272.902 275.372 272.539 275.523C272.177 275.674 271.778 275.713 271.393 275.636C271.007 275.56 270.654 275.37 270.376 275.092C270.099 274.813 269.909 274.459 269.833 274.073C269.756 273.687 269.796 273.286 269.946 272.923C270.096 272.559 270.351 272.248 270.677 272.03C271.003 271.811 271.387 271.694 271.78 271.694C272.306 271.694 272.811 271.904 273.184 272.277C273.556 272.65 273.765 273.157 273.765 273.684Z" fill="white"/>
<path d="M247.688 345.961H247.598H218.475L231.311 423.1H245.455H249.831H263.997L276.81 345.961H247.688Z" fill="#FFC1C1"/>
<path d="M54.2748 424.321C73.71 424.321 89.4654 408.526 89.4654 389.042C89.4654 369.558 73.71 353.763 54.2748 353.763C34.8395 353.763 19.0842 369.558 19.0842 389.042C19.0842 408.526 34.8395 424.321 54.2748 424.321Z" fill="#FFC1C1"/>
<path d="M31.9423 350.688H76.7877C79.1789 350.688 81.1414 353.288 81.1414 356.5V365.545C81.1414 368.757 79.1789 371.357 76.7877 371.357H31.9423C29.5511 371.357 27.6111 368.757 27.6111 365.545V356.5C27.4307 353.288 29.4609 350.688 31.9423 350.688Z" fill="#CCCCCC"/>
<path d="M31.9423 350.688H76.7877C79.1789 350.688 81.1414 353.288 81.1414 356.5V365.545C81.1414 368.757 79.1789 371.357 76.7877 371.357H31.9423C29.5511 371.357 27.6111 368.757 27.6111 365.545V356.5C27.4307 353.288 29.4609 350.688 31.9423 350.688Z" fill="#FFC1C1"/>
<path d="M187.864 276.285H112.294C112.294 276.285 119.062 258.193 118.701 248.198C118.317 231.938 102.91 190.032 102.91 190.032C102.075 181.823 109.993 174.79 120.054 174.79H180.239C190.3 174.79 198.286 181.823 197.383 190.032C197.383 190.032 181.705 236.981 181.435 253.354C181.209 263.508 187.864 276.285 187.864 276.285Z" fill="#0E24A5"/>
<path d="M11.0308 169.294L17.1667 156.087C17.1667 156.087 5.59437 151.564 1.19554 158.078C-4.28607 166.196 11.0308 169.294 11.0308 169.294Z" fill="#FFAD97"/>
<path d="M134.74 192.022C131.536 197.314 115.001 198.015 87.9089 200.186C60.8166 202.357 56.3276 201.475 53.2371 199.824C50.1467 198.174 11.0309 169.294 11.0309 169.294L17.1668 156.087L62.2829 181.936C62.2829 181.936 105.594 173.682 119.964 174.79C124.972 175.174 134.74 192.022 134.74 192.022Z" fill="#0E24A5"/>
<path d="M285.946 169.294L279.788 156.087C279.788 156.087 291.36 151.564 295.759 158.078C301.263 166.196 285.946 169.294 285.946 169.294Z" fill="#FFAD97"/>
<path d="M162.215 192.022C165.418 197.314 181.954 198.015 209.046 200.186C236.138 202.357 240.627 201.475 243.718 199.824C246.808 198.174 285.946 169.294 285.946 169.294L279.788 156.087L234.672 181.936C234.672 181.936 191.36 173.682 176.991 174.79C171.983 175.174 162.215 192.022 162.215 192.022Z" fill="#0E24A5"/>
<path d="M112.294 276.285H187.864C187.864 276.285 207.986 314.866 189.127 320.271C168.486 326.173 134.988 325.812 115.024 320.995C91.7213 315.386 112.294 276.285 112.294 276.285Z" fill="#425AC2"/>
<path d="M56.7562 278.32C55.9441 266.583 78.3218 262.807 89.9392 268.347C101.557 273.888 143.56 304.938 154.636 313.238C165.712 321.537 188.924 342.637 188.924 342.637L174.532 361.475C174.532 361.475 119.919 328.209 93.8191 316.562C67.7194 304.915 57.8841 294.4 56.7562 278.32Z" fill="#8EA8DD"/>
<path d="M245.861 278.32C246.673 266.583 224.295 262.807 212.7 268.347C201.105 273.888 159.057 304.938 148.004 313.238C136.95 321.537 113.715 342.637 113.715 342.637L128.085 361.475C128.085 361.475 182.833 328.209 208.82 316.562C234.807 304.915 244.755 294.4 245.861 278.32Z" fill="#A4B8EA"/>
<path d="M113.715 342.637L128.085 361.475C128.085 361.475 124.227 388.273 116.806 389.743C109.384 391.213 107.58 364.618 106.113 355.821C104.647 347.024 113.715 342.637 113.715 342.637Z" fill="#FE958E"/>
<path d="M188.676 342.637L174.306 361.475C174.306 361.475 178.164 388.273 185.585 389.743C193.007 391.213 194.812 364.618 196.278 355.821C197.744 347.024 188.676 342.637 188.676 342.637Z" fill="#FE958E"/>
<path d="M149.718 185.442C163.118 185.442 163.027 176.396 163.027 174.134V159.299C163.027 155.929 158.019 156.223 155.042 156.223H145.455C142.477 156.223 137.469 158.937 137.469 162.307V174.134C137.483 175.699 137.817 177.243 138.451 178.673C139.084 180.103 140.003 181.387 141.151 182.447C142.299 183.507 143.651 184.319 145.125 184.834C146.598 185.349 148.162 185.556 149.718 185.442Z" fill="#FF9283"/>
<path d="M141.913 166.92C151.726 174.79 158.944 167.485 166.727 157.648C168.707 155.322 170.2 152.621 171.118 149.705C172.036 146.79 172.361 143.719 172.072 140.675C171.784 137.631 170.888 134.677 169.438 131.987C167.988 129.297 166.014 126.927 163.632 125.017C161.251 123.107 158.51 121.696 155.575 120.868C152.639 120.041 149.567 119.813 146.541 120.199C143.516 120.585 140.599 121.576 137.963 123.114C135.327 124.653 133.026 126.706 131.198 129.153C123.393 138.99 132.1 158.959 141.913 166.92Z" fill="#FFAD97"/>
<path d="M127.746 155.431C127.746 155.431 133.183 134.558 139.454 130.849C145.725 127.14 147.778 134.241 150.237 134.468C152.696 134.694 154.365 129.176 158.516 130.306C170.697 133.631 173.088 163.188 173.088 163.188C173.088 163.188 187.458 119.225 157.974 113.3C128.491 107.375 123.325 128.09 123.686 132.885C124.047 137.679 127.746 155.431 127.746 155.431Z" fill="#03053F"/>
<path d="M149.244 123.929C145.635 121.984 137.334 109.795 142.883 102.852C147.034 97.6509 159.283 98.7138 160.298 106.742C161.403 115.607 156.147 124.201 154.207 125.309C152.267 126.417 149.244 123.929 149.244 123.929Z" fill="#03053F"/>
<path d="M148.477 64.7236C166.305 64.7236 180.758 50.2347 180.758 32.3618C180.758 14.4889 166.305 0 148.477 0C130.649 0 116.197 14.4889 116.197 32.3618C116.197 50.2347 130.649 64.7236 148.477 64.7236Z" fill="#0E24A5"/>
<path d="M148.477 59.2734C163.303 59.2734 175.321 47.2247 175.321 32.3618C175.321 17.4989 163.303 5.4502 148.477 5.4502C133.652 5.4502 121.633 17.4989 121.633 32.3618C121.633 47.2247 133.652 59.2734 148.477 59.2734Z" fill="#425AC2"/>
<path d="M149.47 8.93304C149.47 9.12984 149.412 9.32222 149.302 9.48585C149.193 9.64949 149.038 9.77703 148.857 9.85234C148.676 9.92765 148.476 9.94736 148.284 9.90897C148.091 9.87057 147.914 9.7758 147.775 9.63664C147.637 9.49748 147.542 9.32018 147.504 9.12716C147.465 8.93414 147.485 8.73407 147.56 8.55225C147.635 8.37042 147.763 8.21502 147.926 8.10569C148.089 7.99635 148.281 7.93799 148.477 7.93799C148.74 7.93799 148.993 8.04282 149.179 8.22943C149.365 8.41604 149.47 8.66913 149.47 8.93304Z" fill="#FFC1C1"/>
<path d="M137.672 11.5787C137.736 11.693 137.777 11.8188 137.792 11.9489C137.808 12.0791 137.797 12.2109 137.761 12.337C137.726 12.4631 137.666 12.5809 137.585 12.6836C137.503 12.7863 137.403 12.872 137.289 12.9356C137.065 13.0279 136.815 13.0352 136.586 12.956C136.358 12.8768 136.166 12.7166 136.047 12.5055C135.928 12.2944 135.889 12.0469 135.939 11.8096C135.99 11.5723 136.124 11.3615 136.319 11.2169C136.546 11.0855 136.816 11.0498 137.07 11.1176C137.323 11.1854 137.54 11.3512 137.672 11.5787Z" fill="#FFC1C1"/>
<path d="M128.761 19.7882C128.883 19.8486 128.991 19.9334 129.079 20.0374C129.166 20.1413 129.232 20.2621 129.271 20.3924C129.31 20.5227 129.322 20.6596 129.306 20.7947C129.291 20.9299 129.248 21.0604 129.18 21.1781C129.112 21.2959 129.02 21.3984 128.911 21.4793C128.802 21.5603 128.677 21.618 128.545 21.6488C128.413 21.6796 128.276 21.6829 128.142 21.6585C128.009 21.6341 127.882 21.5825 127.769 21.5069C127.654 21.4436 127.554 21.3577 127.473 21.2544C127.392 21.151 127.333 21.0324 127.3 20.9057C127.266 20.7789 127.258 20.6466 127.277 20.5167C127.295 20.3869 127.34 20.2621 127.408 20.15C127.54 19.9225 127.757 19.7567 128.01 19.6889C128.264 19.6211 128.534 19.6568 128.761 19.7882Z" fill="#FFC1C1"/>
<path d="M125.13 31.3667C125.326 31.3667 125.518 31.4251 125.681 31.5344C125.844 31.6437 125.972 31.7991 126.047 31.981C126.122 32.1628 126.141 32.3628 126.103 32.5559C126.065 32.7489 125.97 32.9262 125.832 33.0654C125.693 33.2045 125.516 33.2993 125.323 33.3377C125.131 33.3761 124.931 33.3564 124.75 33.2811C124.568 33.2057 124.413 33.0782 124.304 32.9146C124.195 32.7509 124.137 32.5586 124.137 32.3617C124.137 32.0978 124.242 31.8447 124.428 31.6581C124.614 31.4715 124.866 31.3667 125.13 31.3667Z" fill="#FFC1C1"/>
<path d="M127.769 43.1945C127.939 43.0955 128.134 43.0492 128.33 43.0615C128.526 43.0739 128.714 43.1443 128.871 43.2638C129.027 43.3834 129.144 43.5467 129.207 43.7332C129.271 43.9196 129.278 44.1207 129.227 44.311C129.177 44.5013 129.071 44.6723 128.923 44.8023C128.775 44.9323 128.593 45.0154 128.398 45.0411C128.203 45.0669 128.005 45.0341 127.829 44.9469C127.652 44.8597 127.506 44.7221 127.408 44.5514C127.34 44.4393 127.295 44.3145 127.277 44.1847C127.258 44.0548 127.266 43.9225 127.3 43.7957C127.333 43.669 127.392 43.5504 127.473 43.447C127.554 43.3437 127.654 43.2578 127.769 43.1945Z" fill="#FFC1C1"/>
<path d="M135.957 52.127C136.021 52.0151 136.105 51.9169 136.207 51.8381C136.308 51.7593 136.424 51.7013 136.548 51.6677C136.672 51.634 136.801 51.6253 136.928 51.6421C137.055 51.6588 137.178 51.7006 137.288 51.7652C137.419 51.8189 137.536 51.8997 137.632 52.0023C137.729 52.105 137.803 52.227 137.849 52.3603C137.895 52.4937 137.912 52.6353 137.899 52.7758C137.886 52.9163 137.844 53.0525 137.774 53.1753C137.705 53.2981 137.611 53.4047 137.497 53.488C137.384 53.5714 137.254 53.6296 137.116 53.6588C136.978 53.688 136.836 53.6875 136.698 53.6573C136.561 53.6272 136.431 53.5681 136.319 53.4839C136.204 53.4206 136.103 53.3347 136.022 53.2314C135.942 53.1281 135.883 53.0094 135.849 52.8827C135.815 52.7559 135.808 52.6236 135.826 52.4937C135.845 52.3639 135.89 52.2391 135.957 52.127Z" fill="#FFC1C1"/>
<path d="M147.485 55.768C147.485 55.5712 147.543 55.3788 147.652 55.2152C147.761 55.0515 147.916 54.924 148.098 54.8487C148.279 54.7734 148.478 54.7537 148.671 54.7921C148.864 54.8305 149.04 54.9252 149.179 55.0644C149.318 55.2036 149.413 55.3809 149.451 55.5739C149.489 55.7669 149.47 55.967 149.394 56.1488C149.319 56.3306 149.192 56.486 149.029 56.5954C148.866 56.7047 148.674 56.7631 148.477 56.7631C148.347 56.7631 148.218 56.7373 148.098 56.6873C147.977 56.6373 147.868 56.564 147.775 56.4716C147.683 56.3792 147.61 56.2695 147.56 56.1488C147.51 56.0281 147.485 55.8987 147.485 55.768Z" fill="#FFC1C1"/>
<path d="M159.305 53.1223C159.206 52.9521 159.16 52.7562 159.173 52.5597C159.185 52.3631 159.255 52.1746 159.374 52.018C159.494 51.8615 159.657 51.7439 159.843 51.6803C160.028 51.6167 160.229 51.6098 160.419 51.6606C160.609 51.7113 160.779 51.8174 160.909 51.9654C161.039 52.1134 161.122 52.2967 161.147 52.492C161.173 52.6872 161.14 52.8858 161.053 53.0624C160.966 53.239 160.829 53.3858 160.659 53.4842C160.431 53.6156 160.161 53.6513 159.907 53.5835C159.654 53.5156 159.437 53.3498 159.305 53.1223Z" fill="#FFC1C1"/>
<path d="M168.216 44.9129C168.045 44.8145 167.908 44.6678 167.821 44.4911C167.734 44.3145 167.701 44.116 167.727 43.9207C167.753 43.7254 167.836 43.5421 167.965 43.3941C168.095 43.2461 168.266 43.14 168.455 43.0893C168.645 43.0385 168.846 43.0454 169.032 43.109C169.218 43.1727 169.381 43.2902 169.5 43.4467C169.619 43.6033 169.689 43.7918 169.702 43.9884C169.714 44.185 169.668 44.3808 169.569 44.551C169.437 44.7785 169.221 44.9443 168.967 45.0122C168.713 45.08 168.443 45.0443 168.216 44.9129Z" fill="#FFC1C1"/>
<path d="M171.802 33.3343C171.568 33.2985 171.354 33.1796 171.199 32.9991C171.044 32.8186 170.959 32.5885 170.959 32.3505C170.959 32.1125 171.044 31.8824 171.199 31.7019C171.354 31.5215 171.568 31.4026 171.802 31.3668C171.944 31.3452 172.088 31.3545 172.226 31.3941C172.363 31.4336 172.49 31.5025 172.598 31.5959C172.707 31.6893 172.794 31.8051 172.854 31.9353C172.913 32.0656 172.944 32.2072 172.944 32.3505C172.944 32.4938 172.913 32.6355 172.854 32.7657C172.794 32.896 172.707 33.0117 172.598 33.1052C172.49 33.1986 172.363 33.2674 172.226 33.307C172.088 33.3465 171.944 33.3558 171.802 33.3343Z" fill="#FFC1C1"/>
<path d="M169.208 21.5065C169.038 21.6056 168.843 21.6519 168.647 21.6395C168.451 21.6272 168.263 21.5568 168.107 21.4372C167.951 21.3176 167.833 21.1543 167.77 20.9679C167.706 20.7815 167.7 20.5804 167.75 20.39C167.801 20.1997 167.907 20.0287 168.054 19.8987C168.202 19.7688 168.385 19.6856 168.579 19.6599C168.774 19.6342 168.972 19.667 169.148 19.7541C169.325 19.8413 169.471 19.979 169.569 20.1496C169.7 20.3777 169.736 20.6485 169.668 20.9028C169.601 21.1571 169.435 21.3742 169.208 21.5065Z" fill="#FFC1C1"/>
<path d="M161.02 12.5739C160.922 12.7445 160.775 12.8822 160.599 12.9694C160.423 13.0565 160.225 13.0893 160.03 13.0636C159.835 13.0379 159.652 12.9547 159.505 12.8248C159.357 12.6948 159.251 12.5238 159.201 12.3335C159.15 12.1431 159.157 11.942 159.22 11.7556C159.284 11.5692 159.401 11.4059 159.557 11.2863C159.713 11.1667 159.901 11.0963 160.097 11.084C160.294 11.0716 160.489 11.1179 160.659 11.217C160.886 11.3493 161.051 11.5664 161.119 11.8207C161.186 12.075 161.151 12.3458 161.02 12.5739Z" fill="#FFC1C1"/>
<path d="M137.833 24.6049L136.803 26.3853L147.498 32.6004L148.528 30.82L137.833 24.6049Z" fill="#A4B8EA"/>
<path d="M164.763 22.3519L148.503 31.3354L149.244 32.6823L165.503 23.6988L164.763 22.3519Z" fill="#A4B8EA"/>
<path d="M153.192 32.3163C153.192 33.2512 152.915 34.165 152.397 34.9422C151.879 35.7195 151.143 36.3253 150.282 36.6831C149.42 37.0408 148.472 37.1344 147.558 36.952C146.643 36.7696 145.803 36.3195 145.144 35.6585C144.484 34.9975 144.035 34.1553 143.853 33.2384C143.671 32.3216 143.765 31.3712 144.122 30.5076C144.478 29.6439 145.083 28.9058 145.858 28.3864C146.633 27.8671 147.545 27.5898 148.477 27.5898C149.096 27.5898 149.71 27.7121 150.282 27.9496C150.854 28.1872 151.373 28.5353 151.811 28.9742C152.249 29.4131 152.596 29.9341 152.833 30.5076C153.07 31.081 153.192 31.6956 153.192 32.3163Z" fill="#FE958E"/>
<path d="M72.9173 110.158C78.4442 93.1657 69.1842 74.899 52.2345 69.3581C35.2847 63.8173 17.0638 73.1006 11.5368 90.093C6.00989 107.085 15.2699 125.352 32.2197 130.893C49.1694 136.434 67.3904 127.15 72.9173 110.158Z" fill="#FFC1C1"/>
<path d="M45.9835 126.61C60.6673 124.56 70.9127 110.964 68.8673 96.2433C66.8219 81.5226 53.2603 71.2513 38.5765 73.3018C23.8927 75.3524 13.6471 88.9482 15.6925 103.669C17.7379 118.39 31.2997 128.661 45.9835 126.61Z" fill="#FE958E"/>
<path d="M21.137 90.1881C21.3195 90.2632 21.4755 90.3913 21.5851 90.5557C21.6947 90.7202 21.753 90.9138 21.7524 91.1116C21.7518 91.3094 21.6923 91.5026 21.5817 91.6664C21.471 91.8302 21.3142 91.9572 21.1312 92.0313C20.9482 92.1053 20.7473 92.123 20.5543 92.082C20.3612 92.041 20.1847 91.9433 20.0473 91.8013C19.9099 91.6593 19.8179 91.4795 19.783 91.2848C19.748 91.0901 19.7717 90.8893 19.8511 90.7082C19.9004 90.5885 19.9729 90.4799 20.0645 90.3887C20.1562 90.2975 20.2652 90.2255 20.3849 90.1771C20.5047 90.1286 20.6329 90.1047 20.762 90.1065C20.8912 90.1084 21.0186 90.1361 21.137 90.1881Z" fill="#FFC1C1"/>
<path d="M19.0165 102.128C19.2115 102.103 19.4096 102.136 19.5857 102.224C19.7618 102.311 19.9079 102.45 20.0056 102.621C20.1033 102.792 20.1482 102.988 20.1345 103.184C20.1208 103.381 20.0493 103.569 19.9288 103.725C19.8083 103.881 19.6443 103.997 19.4578 104.059C19.2712 104.122 19.0704 104.127 18.8809 104.075C18.6913 104.022 18.5215 103.915 18.3931 103.765C18.2646 103.616 18.1833 103.432 18.1593 103.237C18.1273 102.976 18.1994 102.713 18.36 102.505C18.5206 102.298 18.7566 102.162 19.0165 102.128Z" fill="#FFC1C1"/>
<path d="M23.122 113.526C23.3331 113.369 23.5968 113.3 23.8577 113.334C24.1186 113.367 24.3563 113.501 24.5206 113.707C24.6396 113.863 24.7097 114.051 24.7223 114.247C24.735 114.443 24.6895 114.639 24.5915 114.809C24.4936 114.979 24.3477 115.116 24.1722 115.203C23.9966 115.29 23.7992 115.323 23.6049 115.298C23.4106 115.273 23.228 115.191 23.0802 115.062C22.9324 114.933 22.826 114.763 22.7744 114.574C22.7228 114.384 22.7282 114.184 22.7901 113.997C22.8519 113.811 22.9675 113.647 23.122 113.526Z" fill="#FFC1C1"/>
<path d="M32.3934 121.351C32.4405 121.229 32.5114 121.118 32.6022 121.025C32.6929 120.931 32.8015 120.857 32.9214 120.806C33.0414 120.756 33.1703 120.73 33.3005 120.73C33.4307 120.73 33.5595 120.757 33.6793 120.808C33.8069 120.853 33.924 120.924 34.0233 121.016C34.1227 121.108 34.2023 121.219 34.2571 121.343C34.312 121.467 34.3408 121.601 34.3422 121.737C34.3436 121.873 34.3173 122.007 34.265 122.132C34.2126 122.257 34.1353 122.37 34.0378 122.464C33.9403 122.558 33.8247 122.631 33.698 122.679C33.5713 122.726 33.4363 122.747 33.3012 122.741C33.1661 122.734 33.0336 122.7 32.9122 122.64C32.7928 122.591 32.6845 122.518 32.5935 122.426C32.5025 122.334 32.4307 122.225 32.3824 122.105C32.3341 121.985 32.3102 121.856 32.3121 121.727C32.3139 121.597 32.3416 121.47 32.3934 121.351Z" fill="#FFC1C1"/>
<path d="M44.304 123.477C44.2787 123.281 44.3119 123.083 44.3993 122.906C44.4867 122.73 44.6244 122.583 44.795 122.485C44.9656 122.387 45.1613 122.342 45.3575 122.356C45.5536 122.37 45.7413 122.441 45.8966 122.562C46.052 122.683 46.168 122.847 46.2301 123.034C46.2922 123.221 46.2974 123.423 46.2452 123.613C46.1931 123.803 46.0858 123.973 45.937 124.102C45.7882 124.231 45.6045 124.312 45.4094 124.336C45.1493 124.368 44.8871 124.296 44.6801 124.135C44.473 123.974 44.3378 123.737 44.304 123.477Z" fill="#FFC1C1"/>
<path d="M55.6734 119.338C55.5934 119.237 55.5346 119.12 55.5003 118.995C55.466 118.87 55.4571 118.739 55.4739 118.611C55.4907 118.482 55.5329 118.358 55.5982 118.246C55.6635 118.134 55.7503 118.037 55.8537 117.959C56.0088 117.837 56.1967 117.764 56.3935 117.749C56.5902 117.734 56.7868 117.779 56.9582 117.876C57.1297 117.974 57.2682 118.121 57.356 118.298C57.4438 118.475 57.4769 118.674 57.4513 118.871C57.4256 119.067 57.3424 119.251 57.212 119.399C57.0816 119.547 56.91 119.653 56.7192 119.704C56.5284 119.754 56.327 119.746 56.1407 119.681C55.9544 119.616 55.7918 119.497 55.6734 119.338Z" fill="#FFC1C1"/>
<path d="M63.5236 110.066C63.3409 109.993 63.184 109.867 63.073 109.704C62.9619 109.541 62.9018 109.349 62.9 109.151C62.8983 108.954 62.955 108.761 63.0632 108.596C63.1713 108.431 63.326 108.302 63.5074 108.225C63.6888 108.149 63.8887 108.128 64.0819 108.166C64.2751 108.203 64.4529 108.298 64.5924 108.437C64.732 108.576 64.8271 108.754 64.8657 108.947C64.9044 109.141 64.8848 109.341 64.8094 109.524C64.7624 109.645 64.6914 109.756 64.6007 109.85C64.51 109.943 64.4014 110.018 64.2814 110.068C64.1614 110.119 64.0324 110.145 63.9022 110.145C63.772 110.144 63.6433 110.118 63.5236 110.066Z" fill="#FFC1C1"/>
<path d="M65.5988 98.1256C65.3387 98.1576 65.0766 98.0853 64.8695 97.9243C64.6624 97.7633 64.5273 97.5267 64.4935 97.2662C64.4745 97.1367 64.4819 97.0046 64.5151 96.8779C64.5483 96.7513 64.6066 96.6327 64.6866 96.5292C64.7667 96.4257 64.8668 96.3395 64.9809 96.2757C65.095 96.212 65.2208 96.172 65.3507 96.1581C65.5994 96.1476 65.8429 96.2311 66.033 96.3921C66.2232 96.5531 66.346 96.7799 66.3773 97.0275C66.4085 97.275 66.3457 97.5253 66.2016 97.7287C66.0574 97.9321 65.8423 98.0737 65.5988 98.1256Z" fill="#FFC1C1"/>
<path d="M61.4709 86.7276C61.3152 86.8469 61.1278 86.9173 60.9323 86.9299C60.7368 86.9426 60.5419 86.897 60.3722 86.7988C60.2025 86.7007 60.0656 86.5543 59.9787 86.3783C59.8918 86.2023 59.8587 86.0044 59.8838 85.8096C59.9089 85.6148 59.9909 85.4318 60.1195 85.2837C60.2481 85.1355 60.4176 85.0288 60.6066 84.9771C60.7956 84.9253 60.9957 84.9308 61.1816 84.9928C61.3675 85.0548 61.5309 85.1706 61.6512 85.3255C61.7318 85.4292 61.7911 85.5479 61.8257 85.6747C61.8602 85.8015 61.8695 85.9339 61.8527 86.0643C61.8359 86.1947 61.7935 86.3204 61.7279 86.4343C61.6624 86.5481 61.5751 86.6478 61.4709 86.7276Z" fill="#FFC1C1"/>
<path d="M52.2444 78.9029C52.1995 79.0308 52.129 79.1482 52.0372 79.2478C51.9454 79.3475 51.8343 79.4272 51.7106 79.4822C51.587 79.5372 51.4534 79.5663 51.3181 79.5676C51.1828 79.569 51.0488 79.5426 50.9241 79.4901C50.7993 79.4377 50.6866 79.3601 50.5928 79.2624C50.499 79.1646 50.4262 79.0487 50.3787 78.9217C50.3312 78.7947 50.3101 78.6593 50.3167 78.5239C50.3234 78.3884 50.3576 78.2557 50.4173 78.134C50.4665 78.0143 50.539 77.9057 50.6307 77.8145C50.7223 77.7232 50.8313 77.6513 50.951 77.6029C51.0708 77.5544 51.199 77.5304 51.3282 77.5323C51.4573 77.5342 51.5848 77.5619 51.7031 77.6139C51.8245 77.661 51.9352 77.7322 52.0286 77.8232C52.1219 77.9141 52.196 78.023 52.2465 78.1432C52.297 78.2635 52.3229 78.3928 52.3225 78.5233C52.3222 78.6538 52.2956 78.7829 52.2444 78.9029Z" fill="#FFC1C1"/>
<path d="M40.3114 76.7774C40.3367 76.9729 40.3035 77.1715 40.2161 77.348C40.1287 77.5246 39.991 77.6712 39.8204 77.7691C39.6498 77.8671 39.4541 77.9121 39.258 77.8983C39.0618 77.8846 38.8741 77.8128 38.7188 77.692C38.5634 77.5712 38.4474 77.4069 38.3853 77.2199C38.3232 77.0329 38.3178 76.8316 38.37 76.6416C38.4222 76.4515 38.5296 76.2813 38.6784 76.1525C38.8273 76.0237 39.0108 75.9421 39.2059 75.9181C39.466 75.886 39.7283 75.9584 39.9354 76.1194C40.1424 76.2804 40.2776 76.5169 40.3114 76.7774Z" fill="#FFC1C1"/>
<path d="M28.9419 80.9157C29.0952 81.1264 29.1597 81.3891 29.1218 81.6471C29.0838 81.9051 28.9464 82.1378 28.739 82.2952C28.5331 82.4313 28.2832 82.4837 28.0401 82.4417C27.7971 82.3997 27.5791 82.2664 27.4306 82.0691C27.3414 81.9662 27.2742 81.846 27.2333 81.716C27.1923 81.586 27.1786 81.449 27.1927 81.3134C27.2067 81.1779 27.2484 81.0466 27.3152 80.9279C27.382 80.8091 27.4723 80.7054 27.5807 80.6231C27.6891 80.5409 27.8131 80.4818 27.9452 80.4496C28.0774 80.4174 28.2147 80.4127 28.3487 80.4359C28.4826 80.4591 28.6106 80.5096 28.7243 80.5844C28.838 80.6591 28.9351 80.7565 29.0097 80.8705L28.9419 80.9157Z" fill="#FFC1C1"/>
<path d="M40.8852 99.4672L31.0413 106.963L32.2829 108.602L42.1269 101.106L40.8852 99.4672Z" fill="#A4B8EA"/>
<path d="M40.7423 80.9506L39.2173 81.1167L41.2224 99.6198L42.7473 99.4537L40.7423 80.9506Z" fill="#A4B8EA"/>
<path d="M44.1236 95.7736C44.9851 96.133 45.7207 96.7407 46.2375 97.5197C46.7542 98.2986 47.0288 99.2137 47.0264 100.149C47.024 101.085 46.7448 101.998 46.2241 102.775C45.7034 103.551 44.9646 104.155 44.1013 104.51C43.238 104.865 42.289 104.955 41.3745 104.769C40.46 104.583 39.6211 104.129 38.964 103.465C38.307 102.801 37.8614 101.956 37.6836 101.038C37.5058 100.119 37.6037 99.1689 37.9651 98.3064C38.4484 97.1532 39.368 96.2391 40.5223 95.7643C41.6767 95.2896 42.9717 95.2929 44.1236 95.7736Z" fill="#FFC1C1"/>
<path d="M258.396 135.305C276.104 133.232 288.783 117.161 286.715 99.4084C284.647 81.6561 268.616 68.9454 250.908 71.0183C233.201 73.0911 220.522 89.1626 222.589 106.915C224.657 124.667 240.688 137.378 258.396 135.305Z" fill="#A4B8EA"/>
<path d="M281.277 99.6862C281.968 104.963 281.082 110.327 278.732 115.1C276.382 119.872 272.673 123.839 268.075 126.499C263.476 129.158 258.194 130.391 252.897 130.041C247.599 129.692 242.524 127.775 238.313 124.534C234.102 121.292 230.944 116.872 229.239 111.832C227.534 106.791 227.358 101.357 228.733 96.2167C230.108 91.076 232.973 86.4596 236.965 82.9511C240.958 79.4427 245.898 77.1998 251.162 76.506C254.657 76.0452 258.209 76.2794 261.615 77.195C265.02 78.1106 268.212 79.6898 271.009 81.8423C273.805 83.9949 276.151 86.6786 277.913 89.7403C279.675 92.802 280.818 96.1816 281.277 99.6862Z" fill="#0E24A5"/>
<path d="M252.605 79.8077C252.631 80.0032 252.598 80.2018 252.51 80.3783C252.423 80.5549 252.285 80.7014 252.114 80.7994C251.944 80.8974 251.748 80.9423 251.552 80.9286C251.356 80.9149 251.168 80.8431 251.013 80.7223C250.857 80.6015 250.741 80.4372 250.679 80.2502C250.617 80.0632 250.612 79.8619 250.664 79.6718C250.716 79.4818 250.824 79.3116 250.972 79.1828C251.121 79.054 251.305 78.9724 251.5 78.9484C251.76 78.9163 252.022 78.9887 252.229 79.1497C252.436 79.3106 252.572 79.5472 252.605 79.8077Z" fill="#FFC1C1"/>
<path d="M241.236 84.0139C241.355 84.1715 241.425 84.3609 241.436 84.5582C241.447 84.7554 241.399 84.9515 241.299 85.1215C241.199 85.2915 241.05 85.4277 240.872 85.5127C240.694 85.5977 240.495 85.6277 240.3 85.5989C240.105 85.5701 239.923 85.4837 239.777 85.3508C239.631 85.2179 239.528 85.0445 239.481 84.8527C239.434 84.6609 239.445 84.4593 239.512 84.2737C239.58 84.088 239.701 83.9268 239.86 83.8104C239.963 83.7314 240.081 83.6739 240.206 83.6414C240.332 83.6088 240.463 83.6018 240.591 83.6208C240.719 83.6397 240.843 83.6843 240.953 83.7518C241.064 83.8194 241.16 83.9085 241.236 84.0139Z" fill="#FFC1C1"/>
<path d="M233.476 93.3766C233.596 93.426 233.704 93.4987 233.795 93.5906C233.886 93.6825 233.958 93.7917 234.006 93.9118C234.054 94.0319 234.078 94.1604 234.076 94.2899C234.075 94.4193 234.047 94.5471 233.995 94.6657C233.895 94.9076 233.704 95.1002 233.463 95.2018C233.223 95.3034 232.952 95.3058 232.709 95.2084C232.466 95.1036 232.274 94.9079 232.173 94.6629C232.072 94.4179 232.07 94.1431 232.168 93.8968C232.219 93.7763 232.294 93.6672 232.388 93.5757C232.482 93.4843 232.593 93.4123 232.714 93.364C232.836 93.3157 232.966 93.2919 233.096 93.2941C233.227 93.2962 233.356 93.3243 233.476 93.3766Z" fill="#FFC1C1"/>
<path d="M231.378 105.25C231.573 105.224 231.771 105.257 231.947 105.345C232.124 105.433 232.27 105.571 232.367 105.742C232.465 105.913 232.51 106.109 232.496 106.306C232.483 106.502 232.411 106.69 232.291 106.846C232.17 107.002 232.006 107.118 231.82 107.18C231.633 107.243 231.432 107.248 231.243 107.196C231.053 107.143 230.883 107.036 230.755 106.887C230.626 106.737 230.545 106.553 230.521 106.358C230.489 106.097 230.561 105.834 230.722 105.626C230.882 105.419 231.118 105.283 231.378 105.25Z" fill="#FFC1C1"/>
<path d="M235.529 116.647C235.684 116.525 235.872 116.452 236.069 116.437C236.265 116.423 236.462 116.467 236.633 116.565C236.805 116.663 236.943 116.81 237.031 116.987C237.119 117.164 237.152 117.363 237.126 117.559C237.101 117.755 237.017 117.939 236.887 118.087C236.757 118.236 236.585 118.342 236.394 118.392C236.203 118.442 236.002 118.434 235.816 118.369C235.63 118.304 235.467 118.185 235.348 118.027C235.268 117.925 235.21 117.808 235.175 117.683C235.141 117.558 235.132 117.428 235.149 117.299C235.166 117.17 235.208 117.047 235.273 116.935C235.339 116.823 235.425 116.725 235.529 116.647Z" fill="#FFC1C1"/>
<path d="M244.8 124.427C244.85 124.307 244.922 124.198 245.014 124.107C245.106 124.016 245.214 123.944 245.334 123.895C245.454 123.847 245.582 123.823 245.711 123.825C245.84 123.827 245.968 123.854 246.086 123.906C246.208 123.954 246.318 124.025 246.412 124.116C246.505 124.207 246.579 124.315 246.63 124.436C246.68 124.556 246.706 124.685 246.706 124.816C246.705 124.946 246.679 125.075 246.627 125.195C246.583 125.323 246.512 125.441 246.42 125.54C246.328 125.64 246.217 125.72 246.094 125.775C245.97 125.83 245.836 125.859 245.701 125.86C245.566 125.861 245.432 125.835 245.307 125.783C245.182 125.73 245.07 125.653 244.976 125.555C244.882 125.457 244.809 125.341 244.762 125.214C244.714 125.087 244.693 124.952 244.7 124.816C244.707 124.681 244.741 124.548 244.8 124.427Z" fill="#FFC1C1"/>
<path d="M256.711 126.53C256.682 126.395 256.682 126.256 256.71 126.121C256.738 125.987 256.793 125.859 256.873 125.747C256.952 125.635 257.054 125.54 257.172 125.469C257.29 125.399 257.421 125.353 257.557 125.336C257.694 125.319 257.832 125.33 257.964 125.369C258.095 125.408 258.217 125.474 258.322 125.563C258.427 125.652 258.513 125.762 258.573 125.885C258.634 126.009 258.668 126.144 258.674 126.281C258.696 126.41 258.692 126.541 258.661 126.668C258.631 126.794 258.575 126.913 258.496 127.017C258.418 127.121 258.319 127.208 258.206 127.272C258.093 127.336 257.968 127.376 257.839 127.389C257.576 127.422 257.311 127.35 257.101 127.19C256.89 127.029 256.75 126.792 256.711 126.53Z" fill="#FFC1C1"/>
<path d="M268.08 122.369C268 122.267 267.941 122.15 267.907 122.025C267.873 121.9 267.864 121.769 267.881 121.641C267.898 121.512 267.94 121.389 268.005 121.277C268.07 121.165 268.157 121.067 268.261 120.989C268.364 120.909 268.483 120.849 268.609 120.814C268.736 120.78 268.868 120.771 268.998 120.787C269.128 120.804 269.253 120.847 269.367 120.912C269.48 120.978 269.58 121.066 269.659 121.17C269.739 121.272 269.798 121.389 269.832 121.514C269.867 121.639 269.876 121.77 269.859 121.898C269.842 122.027 269.8 122.15 269.735 122.262C269.669 122.374 269.582 122.472 269.479 122.55C269.375 122.631 269.257 122.69 269.131 122.725C269.004 122.759 268.872 122.768 268.742 122.752C268.612 122.735 268.487 122.692 268.373 122.627C268.259 122.561 268.16 122.473 268.08 122.369Z" fill="#FFC1C1"/>
<path d="M275.863 113.074C275.68 113.001 275.523 112.875 275.412 112.712C275.301 112.549 275.241 112.356 275.239 112.159C275.238 111.962 275.294 111.768 275.402 111.604C275.511 111.439 275.665 111.31 275.847 111.233C276.028 111.157 276.228 111.136 276.421 111.174C276.614 111.211 276.792 111.306 276.932 111.445C277.071 111.584 277.166 111.761 277.205 111.955C277.244 112.148 277.224 112.349 277.149 112.531C277.102 112.653 277.031 112.764 276.94 112.858C276.849 112.951 276.741 113.026 276.621 113.076C276.501 113.127 276.372 113.153 276.242 113.152C276.111 113.152 275.983 113.125 275.863 113.074Z" fill="#FFC1C1"/>
<path d="M277.938 101.133C277.743 101.159 277.545 101.125 277.369 101.038C277.193 100.95 277.047 100.812 276.949 100.641C276.851 100.47 276.806 100.274 276.82 100.077C276.834 99.8805 276.905 99.6924 277.026 99.5366C277.146 99.3809 277.31 99.2645 277.497 99.2023C277.683 99.14 277.884 99.1347 278.074 99.1871C278.263 99.2394 278.433 99.347 278.562 99.4962C278.69 99.6453 278.771 99.8294 278.795 100.025C278.827 100.286 278.755 100.549 278.595 100.756C278.434 100.964 278.198 101.099 277.938 101.133Z" fill="#FFC1C1"/>
<path d="M273.81 89.7354C273.654 89.8547 273.467 89.9251 273.272 89.9377C273.076 89.9504 272.881 89.9048 272.711 89.8066C272.542 89.7085 272.405 89.5621 272.318 89.3861C272.231 89.2101 272.198 89.0122 272.223 88.8174C272.248 88.6226 272.33 88.4396 272.459 88.2915C272.587 88.1433 272.757 88.0367 272.946 87.9849C273.135 87.9331 273.335 87.9386 273.521 88.0006C273.707 88.0626 273.87 88.1784 273.991 88.3333C274.148 88.5449 274.217 88.8094 274.183 89.0709C274.149 89.3325 274.015 89.5707 273.81 89.7354Z" fill="#FFC1C1"/>
<path d="M264.516 81.9334C264.469 82.0551 264.398 82.1661 264.307 82.2597C264.217 82.3533 264.108 82.4276 263.988 82.4783C263.868 82.5289 263.739 82.5548 263.609 82.5545C263.479 82.5541 263.35 82.5275 263.23 82.4762C263.103 82.4312 262.986 82.3605 262.886 82.2685C262.787 82.1764 262.707 82.065 262.653 81.941C262.598 81.8171 262.569 81.6832 262.567 81.5475C262.566 81.4119 262.592 81.2775 262.645 81.1524C262.697 81.0274 262.774 80.9144 262.872 80.8204C262.969 80.7263 263.085 80.6533 263.212 80.6057C263.338 80.5581 263.473 80.537 263.608 80.5437C263.744 80.5503 263.876 80.5846 263.997 80.6444C264.117 80.6937 264.225 80.7665 264.316 80.8584C264.407 80.9503 264.479 81.0595 264.527 81.1795C264.575 81.2996 264.599 81.4281 264.597 81.5576C264.596 81.6871 264.568 81.8148 264.516 81.9334Z" fill="#FFC1C1"/>
<path d="M242.96 96.8359L242.17 98.7354L253.581 103.504L254.37 101.604L242.96 96.8359Z" fill="#A4B8EA"/>
<path d="M269.509 91.1731L254.555 102.202L255.464 103.441L270.418 92.4118L269.509 91.1731Z" fill="#A4B8EA"/>
<path d="M259.328 102.581C259.449 103.508 259.294 104.451 258.881 105.289C258.468 106.128 257.817 106.825 257.008 107.292C256.2 107.759 255.272 107.976 254.341 107.914C253.41 107.852 252.518 107.514 251.779 106.944C251.039 106.374 250.485 105.596 250.187 104.71C249.888 103.824 249.859 102.869 250.102 101.966C250.345 101.063 250.849 100.253 251.552 99.6375C252.255 99.0223 253.124 98.6299 254.049 98.51C254.663 98.4275 255.286 98.4675 255.885 98.6278C256.483 98.7881 257.043 99.0654 257.534 99.4437C258.024 99.8221 258.435 100.294 258.743 100.832C259.051 101.371 259.25 101.965 259.328 102.581Z" fill="#425AC2"/>
<path d="M198.24 416.112C198.243 417.277 198.017 418.431 197.573 419.508C197.13 420.585 196.479 421.564 195.657 422.387C194.835 423.211 193.859 423.864 192.785 424.308C191.711 424.753 190.56 424.98 189.398 424.977H107.557C105.212 424.977 102.963 424.043 101.304 422.381C99.6459 420.718 98.7141 418.463 98.7141 416.112C98.7141 413.761 99.6459 411.506 101.304 409.844C102.963 408.181 105.212 407.247 107.557 407.247H189.398C190.56 407.244 191.711 407.471 192.785 407.916C193.859 408.36 194.835 409.013 195.657 409.837C196.479 410.661 197.13 411.639 197.573 412.716C198.017 413.793 198.243 414.947 198.24 416.112Z" fill="#CCCCCC"/>
</svg>
