<svg width="437" height="346" viewBox="0 0 437 346" fill="none" xmlns="http://www.w3.org/2000/svg">
<g clip-path="url(#clip0_662_1409)">
<path d="M254.996 40.3173C254.753 50.7225 241.441 77.3209 241.441 77.3209C241.441 77.3209 226.67 50.0597 226.914 39.6545C227.157 29.2494 243.277 0 243.277 0C243.277 0 255.151 29.9342 254.996 40.3173Z" fill="#FFC1C1"/>
<path d="M180.014 59.6694C187.024 67.3353 195.846 95.7452 195.846 95.7452C195.846 95.7452 166.305 86.2678 159.273 78.5799C152.241 70.892 143.64 38.6382 143.64 38.6382C143.64 38.6382 173.005 51.9815 180.014 59.6694Z" fill="#FFC1C1"/>
<path d="M299.795 59.6694C292.763 67.3353 283.963 95.7452 283.963 95.7452C283.963 95.7452 313.504 86.2678 320.514 78.5799C327.523 70.892 336.169 38.6382 336.169 38.6382C336.169 38.6382 306.804 51.9815 299.795 59.6694Z" fill="#FFC1C1"/>
<path d="M241.729 35.6558H240.844V278.709H241.729V35.6558Z" fill="#03053F"/>
<path d="M222.956 276.588C222.956 275.55 218.798 173.022 212.961 137.963C205.907 95.7454 165.597 64.9275 165.177 64.6182L165.73 63.8892C166.128 64.1984 206.725 95.2372 213.823 137.808C219.683 172.934 223.818 275.528 223.862 276.544L222.956 276.588Z" fill="#03053F"/>
<path d="M258.556 276.588H257.671C257.671 275.571 261.828 172.978 267.688 137.852C274.786 95.2813 315.384 64.2424 315.804 63.9331L316.335 64.6622C315.937 64.9715 275.604 95.7894 268.573 138.007C262.713 173.044 258.6 275.549 258.556 276.588Z" fill="#03053F"/>
<path d="M257.207 265.343H219.617C219.617 265.343 211.325 269.231 210.352 281.824C208.561 304.799 222.956 345.205 222.956 345.205H258.335C258.335 345.205 270.12 296.979 267.511 281.824C265.543 269.673 257.207 265.343 257.207 265.343Z" fill="#0055AA"/>
<path d="M150.406 233.311H134.839V292.826H150.406V233.311Z" fill="#8EA8DD"/>
<path d="M147.2 275.682H138.068V335.197H147.2V275.682Z" fill="#8EA8DD"/>
<path d="M53.7765 140.393L102.799 219.746C102.799 219.746 187.598 233.001 188.306 225.821C188.461 224.341 189.367 197.941 182.579 195.799C175.791 193.656 53.7765 140.393 53.7765 140.393Z" fill="#04153F"/>
<path d="M180.478 217.957H97.4698C93.1223 217.957 89.5979 221.478 89.5979 225.821V232.957C89.5979 237.3 93.1223 240.821 97.4698 240.821H180.478C184.826 240.821 188.35 237.3 188.35 232.957V225.821C188.35 221.478 184.826 217.957 180.478 217.957Z" fill="#03053F"/>
<path d="M92.4725 239.761L104.634 217.956C104.634 217.956 48.1378 129.28 46.6784 129.59C45.219 129.899 28.7899 126.386 28.7899 135.665C28.7899 144.943 92.4725 239.761 92.4725 239.761Z" fill="#0E24A5"/>
<path d="M98.0005 336.28C95.1724 332.134 93.6339 327.246 93.5781 322.229C93.5781 303.518 115.535 288.296 142.534 288.296C169.533 288.296 191.49 303.518 191.49 322.229C191.474 326.853 190.189 331.384 187.775 335.33L180.589 331.044C182.224 328.384 183.103 325.329 183.132 322.207C183.132 308.356 164.536 296.647 142.534 296.647C120.533 296.647 101.937 308.356 101.937 322.207C101.972 325.598 103.01 328.904 104.922 331.707L98.0005 336.28Z" fill="#8EA8DD"/>
<path d="M266.605 342.377C265.577 343.409 264.356 344.228 263.011 344.787C261.665 345.346 260.223 345.633 258.766 345.633C257.309 345.633 255.867 345.346 254.521 344.787C253.176 344.228 251.955 343.409 250.927 342.377C249.891 341.35 249.069 340.128 248.507 338.782C247.946 337.436 247.657 335.993 247.657 334.534C247.657 333.076 247.946 331.633 248.507 330.287C249.069 328.94 249.891 327.719 250.927 326.692L269.656 308.002C270.684 306.97 271.905 306.151 273.25 305.593C274.595 305.034 276.038 304.746 277.495 304.746C278.952 304.746 280.394 305.034 281.74 305.593C283.085 306.151 284.306 306.97 285.334 308.002C286.366 309.029 287.186 310.249 287.746 311.593C288.305 312.937 288.593 314.378 288.593 315.834C288.593 317.289 288.305 318.731 287.746 320.075C287.186 321.419 286.366 322.639 285.334 323.665L266.605 342.377Z" fill="#8EA8DD"/>
<path d="M399.166 342.377C400.194 343.409 401.415 344.228 402.76 344.787C404.106 345.346 405.548 345.633 407.005 345.633C408.462 345.633 409.904 345.346 411.25 344.787C412.595 344.228 413.816 343.409 414.844 342.377C415.88 341.35 416.703 340.128 417.264 338.782C417.825 337.436 418.114 335.993 418.114 334.534C418.114 333.076 417.825 331.633 417.264 330.287C416.703 328.94 415.88 327.719 414.844 326.692L396.115 308.002C395.087 306.97 393.866 306.151 392.521 305.593C391.176 305.034 389.733 304.746 388.276 304.746C386.819 304.746 385.377 305.034 384.032 305.593C382.686 306.151 381.465 306.97 380.437 308.002C379.404 309.029 378.585 310.249 378.026 311.593C377.466 312.937 377.178 314.378 377.178 315.834C377.178 317.289 377.466 318.731 378.026 320.075C378.585 321.419 379.404 322.639 380.437 323.665L399.166 342.377Z" fill="#8EA8DD"/>
<path d="M279.474 131.932C276.245 127.137 274.506 121.495 274.477 115.716C274.477 94.1547 299.817 76.5918 330.973 76.5918C362.129 76.5918 387.447 94.2651 387.447 115.716C387.417 121.049 385.934 126.273 383.157 130.827L374.843 125.878C376.735 122.823 377.753 119.309 377.784 115.716C377.784 99.7439 356.335 86.2459 330.973 86.2459C305.61 86.2459 284.14 99.7439 284.14 115.716C284.161 119.656 285.354 123.501 287.567 126.762L279.474 131.932Z" fill="#A4B8EA"/>
<path d="M386.85 124.301L367.676 154.164L406.09 178.784L425.265 148.921L386.85 124.301Z" fill="#FFC1C1"/>
<path d="M370.509 131.07C371.368 129.237 372.389 127.485 373.561 125.834C378.944 118.646 386.923 113.84 395.8 112.44C404.676 111.04 413.749 113.156 421.087 118.338C428.426 123.519 433.451 131.357 435.093 140.184C436.735 149.011 434.865 158.129 429.88 165.599C428.706 167.238 427.397 168.775 425.966 170.194L370.509 131.07Z" fill="#FE958E"/>
<path d="M275.378 125.966L236.964 150.586L256.138 180.449L294.553 155.829L275.378 125.966Z" fill="#FFC1C1"/>
<path d="M433.842 266.337C447.807 210.125 413.518 153.245 357.254 139.293C300.991 125.34 244.059 159.598 230.093 215.81C216.128 272.022 250.417 328.901 306.681 342.854C362.944 356.807 419.876 322.549 433.842 266.337Z" fill="#FE958E"/>
<path d="M417.355 259.72C427.605 212.677 397.742 166.24 350.655 156C303.569 145.76 257.089 175.595 246.84 222.638C236.591 269.681 266.453 316.118 313.539 326.358C360.626 336.598 407.106 306.763 417.355 259.72Z" fill="#FEE2E3"/>
<path d="M335.262 165.268C335.267 165.907 335.081 166.532 334.729 167.066C334.377 167.599 333.875 168.016 333.285 168.263C332.696 168.511 332.046 168.578 331.418 168.456C330.79 168.334 330.213 168.029 329.759 167.578C329.306 167.128 328.996 166.554 328.87 165.927C328.743 165.301 328.806 164.651 329.05 164.061C329.293 163.47 329.707 162.965 330.238 162.61C330.77 162.254 331.395 162.064 332.034 162.064C332.887 162.064 333.704 162.401 334.309 163.001C334.914 163.601 335.257 164.416 335.262 165.268Z" fill="#425AC2"/>
<path d="M296.854 173.839C297.163 174.39 297.302 175.018 297.255 175.647C297.208 176.276 296.976 176.877 296.588 177.375C296.2 177.873 295.674 178.245 295.075 178.445C294.476 178.645 293.832 178.664 293.222 178.5C292.613 178.335 292.065 177.995 291.649 177.521C291.232 177.047 290.965 176.461 290.881 175.836C290.796 175.21 290.898 174.574 291.174 174.007C291.45 173.44 291.888 172.967 292.432 172.647C293.177 172.222 294.06 172.109 294.889 172.332C295.717 172.556 296.424 173.098 296.854 173.839Z" fill="#425AC2"/>
<path d="M267.887 200.416C268.439 200.735 268.884 201.21 269.165 201.782C269.447 202.353 269.553 202.995 269.47 203.627C269.387 204.258 269.119 204.851 268.699 205.331C268.279 205.81 267.726 206.154 267.111 206.32C266.495 206.487 265.844 206.467 265.24 206.264C264.635 206.061 264.105 205.683 263.715 205.179C263.325 204.675 263.093 204.067 263.049 203.432C263.004 202.796 263.149 202.162 263.465 201.609C263.895 200.867 264.601 200.325 265.43 200.102C266.258 199.878 267.142 199.991 267.887 200.416Z" fill="#425AC2"/>
<path d="M256.102 237.927C256.74 237.927 257.364 238.116 257.895 238.471C258.426 238.825 258.84 239.329 259.084 239.918C259.329 240.508 259.392 241.156 259.268 241.782C259.143 242.408 258.836 242.982 258.384 243.433C257.933 243.884 257.358 244.192 256.731 244.316C256.105 244.44 255.456 244.377 254.866 244.133C254.276 243.888 253.772 243.475 253.417 242.945C253.063 242.414 252.873 241.791 252.873 241.153C252.873 240.297 253.213 239.477 253.819 238.872C254.424 238.267 255.245 237.927 256.102 237.927Z" fill="#425AC2"/>
<path d="M264.659 276.301C265.025 276.084 265.431 275.942 265.853 275.883C266.275 275.824 266.704 275.85 267.116 275.959C267.528 276.068 267.913 276.258 268.251 276.518C268.588 276.778 268.871 277.102 269.081 277.472C269.394 278.02 269.537 278.649 269.493 279.278C269.449 279.908 269.22 280.51 268.835 281.01C268.449 281.51 267.925 281.885 267.327 282.089C266.729 282.292 266.084 282.314 265.473 282.152C264.863 281.991 264.313 281.652 263.895 281.18C263.476 280.708 263.206 280.122 263.119 279.497C263.032 278.872 263.132 278.235 263.406 277.667C263.68 277.098 264.116 276.623 264.659 276.301Z" fill="#425AC2"/>
<path d="M291.282 305.241C291.604 304.698 292.08 304.263 292.649 303.989C293.218 303.715 293.855 303.615 294.481 303.702C295.107 303.789 295.693 304.059 296.165 304.477C296.638 304.896 296.977 305.445 297.139 306.055C297.3 306.665 297.278 307.309 297.075 307.906C296.872 308.504 296.496 309.028 295.996 309.413C295.495 309.798 294.892 310.027 294.262 310.071C293.632 310.115 293.003 309.971 292.454 309.659C291.715 309.226 291.177 308.518 290.958 307.691C290.738 306.864 290.855 305.983 291.282 305.241Z" fill="#425AC2"/>
<path d="M328.828 317.016C328.824 316.376 329.01 315.75 329.363 315.216C329.716 314.682 330.22 314.265 330.811 314.018C331.401 313.771 332.052 313.706 332.681 313.829C333.309 313.953 333.886 314.261 334.339 314.713C334.792 315.166 335.1 315.742 335.224 316.37C335.347 316.998 335.282 317.648 335.035 318.238C334.787 318.829 334.37 319.332 333.836 319.685C333.302 320.038 332.675 320.224 332.034 320.219C331.184 320.219 330.368 319.882 329.767 319.281C329.166 318.68 328.828 317.866 328.828 317.016Z" fill="#425AC2"/>
<path d="M367.214 308.444C366.906 307.894 366.766 307.265 366.813 306.636C366.861 306.007 367.093 305.406 367.481 304.909C367.869 304.411 368.395 304.039 368.994 303.839C369.592 303.639 370.237 303.62 370.846 303.784C371.456 303.948 372.003 304.289 372.42 304.763C372.836 305.237 373.104 305.823 373.188 306.448C373.272 307.073 373.17 307.709 372.894 308.277C372.618 308.844 372.181 309.317 371.637 309.637C371.269 309.853 370.862 309.994 370.439 310.051C370.017 310.108 369.587 310.08 369.175 309.969C368.763 309.858 368.377 309.666 368.041 309.404C367.704 309.142 367.423 308.816 367.214 308.444Z" fill="#425AC2"/>
<path d="M396.181 281.868C395.442 281.434 394.905 280.727 394.685 279.899C394.466 279.072 394.582 278.192 395.009 277.449C395.332 276.907 395.807 276.471 396.376 276.197C396.945 275.924 397.583 275.824 398.208 275.911C398.834 275.998 399.42 276.267 399.893 276.686C400.366 277.104 400.704 277.653 400.866 278.263C401.028 278.873 401.006 279.517 400.802 280.115C400.599 280.712 400.224 281.237 399.723 281.622C399.223 282.007 398.619 282.235 397.989 282.279C397.359 282.323 396.73 282.18 396.181 281.868Z" fill="#425AC2"/>
<path d="M407.967 244.356C407.327 244.356 406.702 244.166 406.171 243.811C405.64 243.456 405.226 242.95 404.982 242.36C404.739 241.769 404.676 241.119 404.802 240.493C404.929 239.867 405.238 239.292 405.692 238.842C406.146 238.392 406.723 238.087 407.351 237.965C407.978 237.843 408.628 237.91 409.218 238.157C409.807 238.405 410.31 238.822 410.662 239.355C411.014 239.888 411.2 240.514 411.195 241.153C411.195 241.575 411.112 241.994 410.949 242.384C410.787 242.774 410.548 243.128 410.248 243.426C409.948 243.723 409.592 243.959 409.201 244.119C408.809 244.278 408.39 244.359 407.967 244.356Z" fill="#425AC2"/>
<path d="M399.41 206.005C398.857 206.324 398.223 206.472 397.586 206.431C396.95 206.391 396.339 206.162 395.833 205.775C395.326 205.388 394.945 204.859 394.739 204.256C394.532 203.653 394.509 203.003 394.673 202.386C394.836 201.77 395.179 201.216 395.657 200.795C396.135 200.373 396.728 200.102 397.36 200.017C397.992 199.931 398.636 200.034 399.209 200.314C399.782 200.593 400.26 201.036 400.582 201.587C400.796 201.953 400.936 202.359 400.993 202.78C401.05 203.2 401.023 203.628 400.914 204.039C400.805 204.449 400.616 204.834 400.358 205.172C400.1 205.509 399.778 205.792 399.41 206.005Z" fill="#425AC2"/>
<path d="M372.787 177.043C372.464 177.585 371.989 178.021 371.42 178.295C370.85 178.568 370.213 178.668 369.587 178.581C368.962 178.494 368.376 178.225 367.903 177.806C367.43 177.388 367.092 176.839 366.93 176.229C366.768 175.619 366.79 174.975 366.993 174.377C367.197 173.78 367.572 173.256 368.073 172.87C368.573 172.485 369.176 172.257 369.806 172.213C370.437 172.169 371.066 172.312 371.615 172.624C371.983 172.837 372.305 173.12 372.563 173.457C372.821 173.795 373.01 174.18 373.119 174.59C373.228 175.001 373.255 175.429 373.198 175.85C373.141 176.27 373.001 176.676 372.787 177.043Z" fill="#425AC2"/>
<path d="M297.068 216.672L293.927 222.585L329.418 241.399L332.559 235.486L297.068 216.672Z" fill="#425AC2"/>
<path d="M384.846 208.275L331.943 237.416L334.345 241.768L387.248 212.628L384.846 208.275Z" fill="#425AC2"/>
<path d="M347.336 241.153C347.336 244.176 346.438 247.132 344.757 249.646C343.076 252.16 340.686 254.119 337.89 255.276C335.094 256.433 332.017 256.736 329.049 256.146C326.081 255.557 323.354 254.101 321.214 251.963C319.074 249.825 317.617 247.101 317.027 244.135C316.436 241.17 316.739 238.096 317.897 235.302C319.056 232.509 321.017 230.121 323.533 228.442C326.049 226.762 329.008 225.865 332.034 225.865C334.044 225.862 336.035 226.256 337.893 227.023C339.751 227.79 341.439 228.916 342.861 230.336C344.282 231.757 345.409 233.443 346.177 235.299C346.945 237.155 347.339 239.144 347.336 241.153Z" fill="#FE958E"/>
<path d="M291.79 132.572C289.748 128.253 286.829 124.405 283.218 121.273C279.608 118.141 275.385 115.793 270.818 114.378C266.252 112.963 261.44 112.513 256.69 113.054C251.939 113.596 247.353 115.119 243.223 117.525C239.093 119.932 235.508 123.17 232.697 127.035C229.887 130.899 227.91 135.305 226.895 139.973C225.879 144.641 225.845 149.469 226.796 154.15C227.748 158.832 229.662 163.265 232.419 167.168C233.586 168.811 234.896 170.349 236.333 171.763L291.79 132.572Z" fill="#FE958E"/>
<path d="M135.812 188.508L160.71 112.071C161.434 109.834 162.884 107.902 164.83 106.582C166.777 105.261 169.109 104.628 171.457 104.781L248.583 109.906L234.697 123.161L183.11 129.148L176.144 178.545L135.812 188.508Z" fill="#0055AA"/>
<path d="M155.492 176.446L124.292 113.684C123.894 102.373 123.385 85.1412 123.385 69.7433C123.385 62.3647 118.388 60.6194 113.567 61.5473C98.6859 64.4192 69.0337 73.3001 60.8081 75.7965C60.6255 75.8427 60.4613 75.9433 60.3373 76.0849C60.2133 76.2266 60.1354 76.4025 60.1138 76.5894C60.0922 76.7764 60.1281 76.9654 60.2165 77.1315C60.305 77.2977 60.4419 77.433 60.6091 77.5196L74.1417 84.9424C74.3105 85.0342 74.5033 85.0727 74.6945 85.0529L102.423 82.7332C102.564 82.723 102.706 82.7436 102.838 82.7935C102.97 82.8435 103.09 82.9217 103.189 83.0226C103.288 83.1236 103.363 83.2448 103.411 83.378C103.458 83.5112 103.475 83.653 103.462 83.7936C103.197 86.0028 102.357 91.7024 101.494 97.7114C101.074 97.9102 100.676 98.1532 100.256 98.3962L60.1447 123.559C59.2195 124.136 58.353 124.801 57.5577 125.547C50.6587 123.89 44.2904 122.322 42.0792 121.681C41.9418 121.642 41.8149 121.573 41.708 121.478C41.6011 121.383 41.5169 121.266 41.4617 121.134C41.4064 121.003 41.3815 120.86 41.3889 120.718C41.3963 120.575 41.4358 120.436 41.5043 120.311L54.7715 95.7452C54.8547 95.5814 54.8928 95.3984 54.8821 95.215L53.4227 79.8613C53.4036 79.6778 53.3312 79.5038 53.2147 79.3607C53.0983 79.2175 52.9427 79.1114 52.7668 79.0551C52.5909 78.9989 52.4024 78.9951 52.2244 79.0441C52.0464 79.0931 51.8865 79.1928 51.7643 79.3311C46.1921 85.9586 26.2691 109.575 17.7339 122.078C14.9699 126.121 14.5719 131.401 21.3603 134.339C37.7232 141.409 56.076 150.069 65.739 154.708L104.236 206.69L155.492 176.446Z" fill="#A4B8EA"/>
<path d="M84.0478 117.815C74.4954 122.234 72.2178 117.395 71.3112 115.937L65.1199 106.04C63.7047 103.831 67.1763 101.909 69.1443 100.672L75.5567 96.6514C77.5468 95.4143 82.0134 95.127 83.4286 97.3804L90.8362 108.758C91.7428 110.216 93.578 113.397 84.0478 117.815Z" fill="#E98896"/>
<path d="M86.436 89.8468C89.3106 100.142 81.1955 103.367 70.9576 106.261C66.008 107.658 60.7054 107.034 56.2165 104.525C51.7275 102.017 48.42 97.8295 47.0213 92.8844C45.6226 87.9394 46.2475 82.6417 48.7584 78.1569C51.2693 73.6721 55.4605 70.3676 60.4101 68.9702C70.7806 66.0762 83.5614 79.5521 86.436 89.8468Z" fill="#FFB3B6"/>
<path d="M56.6953 82.6007C56.6953 82.6007 60.3437 88.4109 59.5256 88.8969C58.7074 89.3829 54.9926 90.0898 54.5504 94.2651C54.1081 98.4405 58.2431 99.7218 61.184 98.6835C64.1249 97.6452 66.6235 105.576 59.6582 108.249C52.693 110.922 41.3717 97.7336 41.0621 90.134C40.7525 82.5345 47.0545 69.9643 50.902 68.0423C54.7495 66.1203 86.5023 64.0879 86.5023 64.0879L56.6953 82.6007Z" fill="#C0D1F2"/>
<path d="M256.367 104.317L259.971 115.363L268.396 112.601L261.077 90.3549C260.59 88.8748 257.119 89.4492 256.831 90.9735L256.367 104.317Z" fill="#112256"/>
<path d="M104.17 206.69L155.492 176.446L198.478 129.546L256.367 104.317L259.971 115.363L213.89 150.025C213.89 150.025 186.449 214.731 157.924 224.231C129.4 233.73 104.17 206.69 104.17 206.69Z" fill="#425AC2"/>
<path d="M90.3277 335.462C90.3234 333.498 90.903 331.576 91.9933 329.941C93.0835 328.306 94.6351 327.031 96.4514 326.278C98.2678 325.525 100.267 325.328 102.196 325.712C104.124 326.096 105.895 327.043 107.284 328.434C108.673 329.825 109.617 331.596 109.997 333.524C110.377 335.452 110.175 337.449 109.418 339.262C108.66 341.075 107.381 342.622 105.742 343.708C104.103 344.793 102.178 345.368 100.212 345.359C97.5901 345.348 95.0795 344.3 93.2278 342.446C91.376 340.592 90.3335 338.081 90.3277 335.462Z" fill="#FFC1C1"/>
<path d="M132.186 335.462C132.182 333.504 132.757 331.589 133.841 329.957C134.924 328.325 136.467 327.051 138.274 326.293C140.081 325.536 142.073 325.33 143.997 325.702C145.921 326.073 147.692 327.005 149.087 328.38C150.482 329.756 151.439 331.513 151.836 333.43C152.234 335.347 152.054 337.339 151.32 339.155C150.586 340.97 149.331 342.528 147.712 343.633C146.094 344.737 144.184 345.337 142.225 345.359C140.913 345.374 139.612 345.129 138.396 344.638C137.18 344.148 136.074 343.421 135.14 342.501C134.207 341.581 133.465 340.485 132.958 339.277C132.451 338.069 132.189 336.772 132.186 335.462Z" fill="#FFC1C1"/>
<path d="M174.044 335.462C174.044 333.5 174.626 331.583 175.717 329.951C176.808 328.32 178.358 327.049 180.173 326.298C181.987 325.547 183.983 325.351 185.909 325.734C187.835 326.116 189.604 327.061 190.992 328.448C192.381 329.835 193.327 331.603 193.71 333.527C194.093 335.451 193.896 337.446 193.145 339.258C192.393 341.071 191.121 342.62 189.488 343.71C187.855 344.8 185.936 345.381 183.972 345.381C181.339 345.381 178.814 344.336 176.952 342.476C175.09 340.616 174.044 338.093 174.044 335.462Z" fill="#FFC1C1"/>
<path d="M168.759 65.237C168.759 65.6739 168.629 66.1011 168.386 66.4644C168.143 66.8277 167.798 67.1108 167.394 67.278C166.99 67.4452 166.545 67.4889 166.116 67.4037C165.688 67.3185 165.293 67.108 164.984 66.7991C164.675 66.4901 164.464 66.0965 164.379 65.6679C164.294 65.2394 164.338 64.7952 164.505 64.3916C164.672 63.9879 164.956 63.6429 165.319 63.4001C165.683 63.1574 166.11 63.0278 166.548 63.0278C167.134 63.0278 167.697 63.2605 168.111 63.6748C168.526 64.0891 168.759 64.6511 168.759 65.237Z" fill="#03053F"/>
<path d="M243.675 35.2141C243.675 35.651 243.545 36.0781 243.302 36.4414C243.059 36.8047 242.714 37.0879 242.31 37.2551C241.905 37.4223 241.461 37.4661 241.032 37.3808C240.603 37.2956 240.209 37.0852 239.9 36.7762C239.591 36.4672 239.38 36.0736 239.295 35.6451C239.209 35.2165 239.253 34.7724 239.42 34.3687C239.588 33.965 239.871 33.62 240.235 33.3772C240.598 33.1345 241.026 33.0049 241.463 33.0049C242.05 33.0049 242.612 33.2377 243.027 33.652C243.442 34.0663 243.675 34.6281 243.675 35.2141Z" fill="#03053F"/>
<path d="M317.33 64.7951C317.33 65.232 317.2 65.6592 316.957 66.0225C316.714 66.3858 316.369 66.6689 315.965 66.8361C315.561 67.0033 315.116 67.047 314.687 66.9618C314.258 66.8766 313.864 66.6662 313.555 66.3572C313.246 66.0482 313.035 65.6547 312.95 65.2261C312.864 64.7976 312.908 64.3534 313.076 63.9497C313.243 63.546 313.526 63.201 313.89 62.9582C314.254 62.7155 314.681 62.5859 315.119 62.5859C315.705 62.5859 316.267 62.8187 316.682 63.233C317.097 63.6473 317.33 64.2092 317.33 64.7951Z" fill="#03053F"/>
</g>
<defs>
<clipPath id="clip0_662_1409">
<rect width="437" height="346" fill="white"/>
</clipPath>
</defs>
</svg>
